M48
;Layer_Color=9474304
;FILE_FORMAT=2:5
INCH,TZ
;TYPE=PLATED
T1F00S00C0.01181
T2F00S00C0.02362
T3F00S00C0.03150
T4F00S00C0.03543
T5F00S00C0.03937
T6F00S00C0.17717
;TYPE=NON_PLATED
T7F00S00C0.05906
T8F00S00C0.11811
%
T01
X2953Y22736
X5020Y25984
X7087Y29528
X8709Y32728
X9837Y36018
X11516Y39370
X12894Y43602
X14764Y47047
X16535Y50689
X68310Y42620
X69784Y39862
X75689Y43406
X79528Y40846
X115360Y8170
X118411Y7973
X121555Y10827
X123530Y6890
X135925Y12205
X145480Y30415
X144390Y33465
X148728Y46951
X147047Y50394
X168118Y51479
X172449Y50199
X173630Y53152
X177953Y50394
X185934Y42030
X189469Y39173
X182087Y35583
X186122Y31398
X194291Y28839
X175894Y57188
X176879Y60141
X175008Y66145
X172639Y70771
X168209Y69048
X164075
X161327Y70476
X156496Y71653
X153937Y70571
X155519Y57778
X163976Y58071
Y62402
X168307
Y58071
Y94587
X171457Y97539
X179232Y97835
X187205Y98622
X190157Y103642
X181398Y108268
X181496Y112500
X171465Y112013
X170776Y114966
X168709Y117230
X169783Y120571
X173721Y124705
X179724Y121653
X189075Y125591
X189469Y134744
X189272Y145276
X189469Y154724
X178740Y151673
X179331Y158563
X171161Y155610
X171063Y161811
X174311Y167126
X167618
X160138Y166043
X160039Y161122
X157382Y160925
X159055Y151673
X159941Y148721
X155217Y151673
X152362Y149114
X148917Y149508
X145877Y146063
X144291Y140748
X146850Y138287
X151877Y137310
X156602Y137015
X160736Y137113
X160138Y133760
X162114Y129731
X160734Y125993
X166437Y127165
X167922Y130026
X170776Y137015
X171465Y143216
X171063Y149409
X179134Y142618
X155217Y140748
X153452Y128746
X150499
X146850Y131201
X145472Y123130
X148524Y123327
X153017Y123432
X156110Y122152
X157685Y114277
X161268Y115453
X157980Y107486
X153846Y107092
X150795Y110931
X143996Y111319
X144882Y105610
X136417Y107087
X136129Y110045
X132880Y108175
X131890Y103248
X134153Y97441
X127270Y97446
X123524Y95276
X123819Y102756
X119691Y101678
X117224Y96850
X113490Y91737
X108180Y92038
X106344Y89646
X104528Y96653
X107879Y104729
X110531Y107972
X114080Y107092
X117815Y112205
X120866Y109320
X123234Y111226
X124022Y115360
Y118313
X122545Y121167
X123524Y124606
X120768Y126083
X116443Y122841
X106595Y121949
X106304Y126384
X103647Y127959
X102170Y125203
X101772Y116043
X107480Y116147
X107289Y110635
X102854Y110236
X103346Y107185
X99016Y106890
X95915
X92819Y106895
X91732Y111811
X93405Y115551
X93405Y120079
X92815Y123130
X88390Y123825
X88193Y126778
X84748Y129239
X82189Y127172
X78252Y130420
X75394Y130905
X75787Y137894
X72342Y137795
X68015Y136719
X68996Y133858
X68898Y129921
X68701Y126279
X59255Y128451
X59747Y132290
X60731Y139082
X58661Y145669
X59646Y149704
X62458Y151673
X65354Y153150
X65945Y159176
X60039
X57480Y161811
X72638Y158465
X75984Y158268
X75394Y154528
X79335Y155126
X82874Y155610
X84645Y153149
X86024Y157283
X91738Y153347
X96063Y156299
X104528Y156299
Y160531
X112598Y159842
X113779Y152756
X120866
X118504Y157480
X120866Y159843
X120177Y171260
X116831Y170784
X113490Y171071
X107773Y169786
X107776Y166142
X107579Y180413
X109055Y185138
X112598Y182382
X117323Y183268
X117224Y190945
X112598Y190847
X99410Y187205
X97047Y173327
X89961Y164215
X92126Y161417
X103150Y151083
X102165Y145571
X100792Y142920
X104926Y141936
X108366Y142520
X109553Y147054
X112407Y144594
X118313
X120774Y142822
X129626Y142421
Y145571
X129769Y152567
X129337Y155519
X139082Y153157
X139764Y150591
X139272Y147579
X137507Y159555
X135925Y166535
X136516Y169488
X131496Y166142
X133169Y184153
X146949Y171063
X152756Y171161
X149902Y157480
X146661Y160244
X128248Y138779
X125394Y136221
X125886Y129724
X128839Y132283
X130814Y126286
X130912Y123333
X128642Y121260
X129337Y114474
X139075Y118602
X147940Y116344
X149902Y99311
X152468Y97643
X157685Y100989
X169095Y107973
X173130Y105905
X142913Y82874
X142815Y76083
X83425Y82146
X77264Y87795
X76181Y90748
X72047Y91043
X73268Y94232
X75689Y96555
X72146Y98327
X73724Y101481
X67716Y100984
X66276Y104000
X59496Y103437
X60928Y100694
X56299Y100787
X60827Y106988
X65650Y110728
X66539Y113687
X70673Y114080
X79724Y113583
X85044Y113883
X86126Y107190
X83173Y106107
X84308Y101378
X86815Y99710
X85733Y95575
X82977Y93607
X80020Y102264
X97441Y110236
X90661Y133082
X85339Y136129
X85138Y139173
X82087Y138878
X84350Y142028
X86024Y143898
X82284Y148425
X77756Y149606
X72539Y149803
X70079Y146949
X72244Y144390
X77461Y144291
X71752Y155610
X78347Y181496
X78642Y185236
X78347Y188976
X78642Y193110
X166929Y194291
X172343Y192126
X173327Y188878
X173425Y184252
X174311Y177953
X177264Y174606
X181299Y173425
X185728Y173327
X189665Y173228
X194193Y173622
X181595Y167520
X61319Y91535
X61417Y88976
X58858Y86910
X58268Y91437
X63976Y86811
X68898Y77362
X56890Y78839
X56476Y64376
X79630Y65456
X50984Y73228
X44882Y75394
Y78642
X41339Y83169
X36714Y84847
X51676Y82977
X55118Y91437
X53841Y100399
X50197Y98524
X47640Y104041
X44998Y101673
X52756Y106201
X56102
X55709Y111909
X55315Y114961
X55512Y118110
X53940Y127762
X54432Y131207
X54924Y135046
Y139180
X54629Y142133
X45571Y141043
X46754Y135735
X42620Y136424
X41339Y132283
X39272Y129724
X47250
X39665Y116929
X35041Y107584
X32087Y106791
X30413Y111713
X26083Y120669
X28248Y123917
X23917Y124803
X18602Y126319
Y122933
Y129705
Y133090
Y136476
Y139862
X21457Y141535
X30315Y144980
X34055Y149606
X42126Y150000
X45276
X41732Y153149
X45282Y158230
X50223Y158861
X54756Y160303
X54626Y164567
X51181Y164764
X36909Y162402
X36024Y158563
X29823Y158268
X30906Y162598
X10630Y164370
X13287Y169783
X7776Y169587
X3839Y169390
X16634Y172146
X19882Y175492
X22047Y179921
X37795Y179134
X7480Y153150
X6988Y141043
X10630Y128937
X49510Y110734
T02
X22736Y33858
X29528Y32283
X32677Y42126
X22343Y46654
X51378Y41339
X54232Y37697
X56102Y44783
X79232Y47343
X86221Y45177
X89961Y40354
X98130Y41240
X107874Y42913
X110433Y37303
X111319Y48425
X118996Y43012
X122539Y39272
X115256Y17126
X75886Y22539
X72047Y27362
X79626Y27657
X64567Y19783
X160138Y30413
X163583Y39469
X157579Y46260
X152559Y46358
X154823Y53642
X149902Y53543
X185630Y52559
X191831Y45768
X177756Y40945
X192421Y23819
X189173Y66634
X184252Y69980
X177756Y69784
X177264Y79921
X172736Y82087
X170453Y86988
X177559Y92224
X183071Y91929
X188386Y92028
X184843Y79921
X164567Y79724
Y75197
X156791Y89764
X146063Y88484
X138384Y85136
X127854Y82087
X119882Y82185
X111516Y82284
X115655Y86914
X123721Y87008
X123425Y68110
X118996Y62598
X117224Y58366
X112303Y61713
X111221Y66535
X140847Y68012
X144882Y64173
X146752Y57677
X75299Y57877
Y62405
X74118Y66637
X78150Y73228
X78130Y78169
X81988Y70571
X63779Y65748
X60433Y63090
X54429Y67618
X35925Y69095
X30118Y63189
X24902Y58268
X19094Y57087
X18799Y65158
X23524Y69587
X24705Y81299
X16535Y84153
X32972Y93799
X44291Y89961
X47539Y86614
X2953Y101181
X3839Y111024
X4331Y121555
X4528Y131595
X3937Y144488
X3543Y155709
X24902Y155217
X24016Y147933
T03
X62697Y179055
X67697Y189055
X57697
X94941
X104941
X99941Y179055
X89941
X52697
X42697
X32697
X37697Y189055
X47697
T04
X185630Y120472
Y130315
Y140157
Y150000
Y159843
T05
X155512Y11811
Y21811
X167323
Y11811
Y31811
X161417Y176221
Y186221
T06
X43307Y26575
Y56102
X98425
Y26575
X131890
Y56102
T07
X84429Y186142
X27185
T08
X9843Y9843
X187008
Y187008
X9843
M30
