G04*
G04 #@! TF.GenerationSoftware,Altium Limited,Altium Designer,18.0.9 (584)*
G04*
G04 Layer_Color=32768*
%FSLAX25Y25*%
%MOIN*%
G70*
G01*
G75*
%ADD11C,0.00394*%
%ADD153C,0.00197*%
D11*
X90158Y84646D02*
X94095D01*
X92126Y82677D02*
Y86614D01*
X69291Y61024D02*
X73228D01*
X71260Y59055D02*
Y62992D01*
X116831Y131595D02*
X120768D01*
X118799Y129626D02*
Y133563D01*
X10630Y161417D02*
X14567D01*
X12598Y159449D02*
Y163386D01*
X10630Y149606D02*
X14567D01*
X12598Y147638D02*
Y151575D01*
X10630Y137795D02*
X14567D01*
X12598Y135827D02*
Y139764D01*
X10630Y125984D02*
X14567D01*
X12598Y124016D02*
Y127953D01*
X149705Y64665D02*
X151870D01*
X150787Y63583D02*
Y65748D01*
X146457Y68405D02*
X148622D01*
X147539Y67323D02*
Y69488D01*
X115354Y156299D02*
X119291D01*
X117323Y154331D02*
Y158268D01*
X44882Y76378D02*
Y80315D01*
X42913Y78347D02*
X46850D01*
X164173Y60236D02*
X168110D01*
X166142Y58268D02*
Y62205D01*
X70866Y19685D02*
Y23622D01*
X68898Y21654D02*
X72835D01*
X84055Y119390D02*
X87992D01*
X86024Y117421D02*
Y121358D01*
X164567Y77953D02*
Y81890D01*
X162598Y79921D02*
X166535D01*
X161417Y125197D02*
Y129134D01*
X159449Y127165D02*
X163386D01*
X24803Y82284D02*
X28740D01*
X26772Y80315D02*
Y84252D01*
X101575Y98524D02*
Y102264D01*
X99705Y100394D02*
X103445D01*
X144882Y80709D02*
Y84646D01*
X142913Y82677D02*
X146850D01*
X171653Y137008D02*
X174016D01*
X172835Y135827D02*
Y138189D01*
X40157Y89370D02*
X44094D01*
X42126Y87402D02*
Y91339D01*
X66142Y82284D02*
X70079D01*
X68110Y80315D02*
Y84252D01*
X33071Y145079D02*
Y147047D01*
X32087Y146063D02*
X34055D01*
X27953Y139961D02*
X38189D01*
Y152165D01*
X27953D02*
X38189D01*
X27953Y139961D02*
Y152165D01*
X72835Y138583D02*
Y142520D01*
X70866Y140551D02*
X74803D01*
X125984Y107087D02*
X129921D01*
X127953Y105118D02*
Y109055D01*
X32382Y108366D02*
X43209D01*
Y127067D01*
X32382D02*
X43209D01*
X32382Y108366D02*
Y127067D01*
X116339Y163681D02*
Y167618D01*
X114370Y165650D02*
X118307D01*
X159449Y101575D02*
Y105512D01*
X157480Y103543D02*
X161417D01*
X138583Y77165D02*
Y81102D01*
X136614Y79134D02*
X140551D01*
X181496Y53347D02*
Y56890D01*
X179724Y55118D02*
X183268D01*
X64173Y52756D02*
Y56693D01*
X62205Y54724D02*
X66142D01*
X156299Y68110D02*
X160236D01*
X158268Y66142D02*
Y70079D01*
X185827Y30315D02*
Y34252D01*
X183858Y32283D02*
X187795D01*
X62598Y27953D02*
X66535D01*
X64567Y25984D02*
Y29921D01*
X77953Y82677D02*
Y86614D01*
X75984Y84646D02*
X79921D01*
X183071Y79921D02*
X187008D01*
X185039Y77953D02*
Y81890D01*
X96161Y115335D02*
Y119114D01*
X94272Y117224D02*
X98051D01*
X109153Y116142D02*
X111319D01*
X110236Y115059D02*
Y117224D01*
X42520Y142618D02*
Y144783D01*
X41437Y143701D02*
X43602D01*
X55512Y131496D02*
Y133661D01*
X54429Y132579D02*
X56595D01*
X62205Y165453D02*
Y167618D01*
X61122Y166535D02*
X63287D01*
X57973Y162992D02*
X60138D01*
X59055Y161909D02*
Y164075D01*
X102461Y119685D02*
Y121850D01*
X101378Y120768D02*
X103543D01*
X92028Y116142D02*
Y118307D01*
X90945Y117224D02*
X93110D01*
X117323Y104429D02*
Y106595D01*
X116240Y105512D02*
X118405D01*
X128740Y98819D02*
Y102756D01*
X126772Y100787D02*
X130709D01*
X183858Y37402D02*
X187795D01*
X185827Y35433D02*
Y39370D01*
X120866Y121063D02*
X124803D01*
X122835Y119095D02*
Y123031D01*
X137697Y117028D02*
X139862D01*
X138779Y115945D02*
Y118110D01*
X161417Y115256D02*
Y119193D01*
X159449Y117224D02*
X163386D01*
X146850Y150000D02*
Y153937D01*
X144882Y151969D02*
X148819D01*
X147736Y169685D02*
X149902D01*
X148819Y168602D02*
Y170768D01*
X146850Y157579D02*
Y159744D01*
X145768Y158661D02*
X147933D01*
X165354Y135925D02*
Y138091D01*
X164272Y137008D02*
X166437D01*
X11024Y143701D02*
X14961D01*
X12992Y141732D02*
Y145669D01*
X79528Y99213D02*
Y103150D01*
X77559Y101181D02*
X81496D01*
X43799Y81496D02*
X45965D01*
X44882Y80413D02*
Y82579D01*
X50787Y75689D02*
Y77854D01*
X49705Y76772D02*
X51870D01*
X50787Y79232D02*
Y81398D01*
X49705Y80315D02*
X51870D01*
X53937Y74488D02*
Y78268D01*
X52047Y76378D02*
X55827D01*
X37402Y76476D02*
Y78642D01*
X36319Y77559D02*
X38484D01*
X89370Y100787D02*
X93307D01*
X91339Y98819D02*
Y102756D01*
X64567Y144488D02*
Y148425D01*
X62598Y146457D02*
X66535D01*
X171653Y161811D02*
X174016D01*
X172835Y160630D02*
Y162992D01*
X171653Y155610D02*
X174016D01*
X172835Y154429D02*
Y156791D01*
X171653Y149409D02*
X174016D01*
X172835Y148228D02*
Y150591D01*
X171653Y143209D02*
X174016D01*
X172835Y142027D02*
Y144390D01*
X125197Y121260D02*
X127362D01*
X126279Y120177D02*
Y122343D01*
X145276Y109646D02*
X147441D01*
X146358Y108563D02*
Y110728D01*
X145276Y112992D02*
X147441D01*
X146358Y111909D02*
Y114075D01*
X101181Y115335D02*
Y119114D01*
X99291Y117224D02*
X103071D01*
X144587Y101575D02*
X146752D01*
X145669Y100492D02*
Y102657D01*
X144587Y98032D02*
X146752D01*
X145669Y96949D02*
Y99114D01*
X109153Y101575D02*
X111319D01*
X110236Y100492D02*
Y102657D01*
X109153Y98032D02*
X111319D01*
X110236Y96949D02*
Y99114D01*
X109153Y112598D02*
X111319D01*
X110236Y111516D02*
Y113681D01*
X147736Y134252D02*
X149902D01*
X148819Y133169D02*
Y135335D01*
X165354Y139469D02*
Y141634D01*
X164272Y140551D02*
X166437D01*
X121634Y154724D02*
X125413D01*
X123524Y152835D02*
Y156614D01*
X151673Y134252D02*
X153839D01*
X152756Y133169D02*
Y135335D01*
X143799Y134252D02*
X145965D01*
X144882Y133169D02*
Y135335D01*
X165354Y146555D02*
Y148721D01*
X164272Y147638D02*
X166437D01*
X139862Y134252D02*
X142027D01*
X140945Y133169D02*
Y135335D01*
X165354Y143012D02*
Y145177D01*
X164272Y144095D02*
X166437D01*
X143799Y169685D02*
X145965D01*
X144882Y168602D02*
Y170768D01*
X165354Y153642D02*
Y155807D01*
X164272Y154724D02*
X166437D01*
X139862Y169685D02*
X142028D01*
X140945Y168602D02*
Y170768D01*
X165354Y150098D02*
Y152264D01*
X164272Y151181D02*
X166437D01*
X165354Y160728D02*
Y162894D01*
X164272Y161811D02*
X166437D01*
X151673Y169685D02*
X153839D01*
X152756Y168602D02*
Y170768D01*
X165354Y157185D02*
Y159350D01*
X164272Y158268D02*
X166437D01*
X155118Y38976D02*
Y42913D01*
X153150Y40945D02*
X157087D01*
X57067Y109055D02*
X60847D01*
X58957Y107165D02*
Y110945D01*
X85532Y113386D02*
X87697D01*
X86614Y112303D02*
Y114469D01*
X59055Y113091D02*
X61221D01*
X60138Y112008D02*
Y114173D01*
X31988Y137795D02*
X34154D01*
X33071Y136713D02*
Y138878D01*
X31988Y154331D02*
X34154D01*
X33071Y153248D02*
Y155413D01*
X102067Y134646D02*
X106004D01*
X104035Y132677D02*
Y136614D01*
X61516Y96457D02*
X63681D01*
X62598Y95374D02*
Y97539D01*
X58661Y95374D02*
Y97539D01*
X57579Y96457D02*
X59744D01*
X165551Y54331D02*
Y56496D01*
X164469Y55413D02*
X166634D01*
X65059Y91339D02*
X67224D01*
X66142Y90256D02*
Y92421D01*
X68110Y72146D02*
Y74311D01*
X67028Y73228D02*
X69193D01*
X181102Y59547D02*
Y61713D01*
X180020Y60630D02*
X182185D01*
X179724Y66339D02*
X181890D01*
X180807Y65256D02*
Y67421D01*
X175295Y58661D02*
X177461D01*
X176378Y57579D02*
Y59744D01*
X176870Y47638D02*
X179035D01*
X177953Y46555D02*
Y48720D01*
X186221Y58661D02*
Y62598D01*
X184252Y60630D02*
X188189D01*
X153937Y59941D02*
Y62106D01*
X152854Y61024D02*
X155020D01*
X153937Y56398D02*
Y58563D01*
X152854Y57480D02*
X155020D01*
X180413Y47638D02*
X182579D01*
X181496Y46555D02*
Y48720D01*
X178445Y53150D02*
X180610D01*
X179528Y52067D02*
Y54232D01*
X158465Y57185D02*
X160630D01*
X159547Y56102D02*
Y58268D01*
X169783Y57185D02*
Y59350D01*
X168701Y58268D02*
X170866D01*
X165059Y69685D02*
X167224D01*
X166142Y68602D02*
Y70768D01*
X174803Y79921D02*
X178740D01*
X176772Y77953D02*
Y81890D01*
X166535Y79921D02*
X170473D01*
X168504Y77953D02*
Y81890D01*
X168189Y62992D02*
X171968D01*
X170079Y61102D02*
Y64882D01*
X158346Y62992D02*
X162126D01*
X160236Y61102D02*
Y64882D01*
X125984Y81496D02*
X129921D01*
X127953Y79527D02*
Y83464D01*
X117717Y81496D02*
X121654D01*
X119685Y79527D02*
Y83464D01*
X109449Y81496D02*
X113386D01*
X111417Y79527D02*
Y83464D01*
X153937Y41732D02*
X157874D01*
X155905Y39764D02*
Y43701D01*
X114567Y148504D02*
Y152284D01*
X112677Y150394D02*
X116457D01*
X109449Y148504D02*
Y152284D01*
X107559Y150394D02*
X111339D01*
X117402Y142520D02*
X121181D01*
X119291Y140630D02*
Y144410D01*
X164567Y87894D02*
Y90059D01*
X163484Y88976D02*
X165650D01*
X139272Y148031D02*
Y150197D01*
X138189Y149114D02*
X140354D01*
X140256Y157087D02*
X142421D01*
X141339Y156004D02*
Y158169D01*
X63091Y40551D02*
X65256D01*
X64173Y39469D02*
Y41634D01*
X95276Y170866D02*
X99213D01*
X97244Y168898D02*
Y172835D01*
X94488Y94291D02*
Y96457D01*
X93405Y95374D02*
X95571D01*
X96653Y95472D02*
X98819D01*
X97736Y94390D02*
Y96555D01*
X20866Y95374D02*
Y97539D01*
X19783Y96457D02*
X21949D01*
X23720D02*
X25886D01*
X24803Y95374D02*
Y97539D01*
X57087Y95374D02*
Y97539D01*
X56005Y96456D02*
X58170D01*
X52067Y96457D02*
X54232D01*
X53150Y95374D02*
Y97539D01*
X45276Y116634D02*
Y118799D01*
X44193Y117717D02*
X46358D01*
X45669Y96457D02*
X49606D01*
X47638Y94488D02*
Y98425D01*
X96063Y153248D02*
Y155413D01*
X94980Y154331D02*
X97146D01*
X159055Y121653D02*
X161221D01*
X160138Y120571D02*
Y122736D01*
X162500Y121653D02*
X164665D01*
X163583Y120571D02*
Y122736D01*
X69291Y118307D02*
Y120472D01*
X68209Y119390D02*
X70374D01*
X132973Y130905D02*
X135138D01*
X134055Y129823D02*
Y131988D01*
X133071Y124902D02*
X135236D01*
X134153Y123819D02*
Y125984D01*
X165354Y100689D02*
Y104626D01*
X163386Y102657D02*
X167323D01*
X141535Y120571D02*
X143701D01*
X142618Y119488D02*
Y121653D01*
D153*
X151772Y145472D02*
Y155709D01*
X141142D02*
X151772D01*
X141142Y145472D02*
Y155709D01*
Y145472D02*
X151772D01*
X146653Y148622D02*
Y152559D01*
X144685Y150591D02*
X148622D01*
X78347Y74016D02*
Y95276D01*
X105905D01*
Y74016D02*
Y95276D01*
X78347Y74016D02*
X105905D01*
X85039Y50394D02*
Y71653D01*
X57480Y50394D02*
X85039D01*
X57480D02*
Y71653D01*
X85039D01*
X122343Y126870D02*
Y136319D01*
X115256Y126870D02*
X122343D01*
X115256D02*
Y136319D01*
X122343D01*
X9055Y156693D02*
Y166142D01*
X16142D01*
Y156693D02*
Y166142D01*
X9055Y156693D02*
X16142D01*
X9055Y144882D02*
Y154331D01*
X16142D01*
Y144882D02*
Y154331D01*
X9055Y144882D02*
X16142D01*
X9055Y133071D02*
Y142520D01*
X16142D01*
Y133071D02*
Y142520D01*
X9055Y133071D02*
X16142D01*
X9055Y121260D02*
Y130709D01*
X16142D01*
Y121260D02*
Y130709D01*
X9055Y121260D02*
X16142D01*
X153937Y63090D02*
Y66240D01*
X147638Y63090D02*
Y66240D01*
X153937D01*
X147638Y63090D02*
X153937D01*
X144390Y66831D02*
Y69980D01*
X150689Y66831D02*
Y69980D01*
X144390Y66831D02*
X150689D01*
X144390Y69980D02*
X150689D01*
X106004Y144980D02*
Y167618D01*
X128642Y144980D02*
Y167618D01*
X106004Y144980D02*
X128642D01*
X106004Y167618D02*
X128642D01*
X39567Y71063D02*
X50197D01*
X39567Y85630D02*
X50197D01*
X39567Y71063D02*
Y85630D01*
X50197Y71063D02*
Y85630D01*
X174508Y51870D02*
Y68602D01*
X157776Y51870D02*
Y68602D01*
X174508D01*
X157776Y51870D02*
X174508D01*
X56496Y36831D02*
X85236D01*
X56496Y6476D02*
X85236D01*
X56496D02*
Y36831D01*
X85236Y6476D02*
Y36831D01*
X100000Y108957D02*
Y129823D01*
X72047Y108957D02*
Y129823D01*
X100000D01*
X72047Y108957D02*
X100000D01*
X156673Y72835D02*
X172461D01*
X156673Y87008D02*
X172461D01*
X156673Y72835D02*
Y87008D01*
X172461Y72835D02*
Y87008D01*
X156083Y122638D02*
X166752D01*
X156083Y131693D02*
X166752D01*
X156083Y122638D02*
Y131693D01*
X166752Y122638D02*
Y131693D01*
X17913Y72441D02*
X35630D01*
X17913D02*
Y92126D01*
X35630Y72441D02*
Y92126D01*
X17913D02*
X35630D01*
X96260Y103347D02*
X106890D01*
X96260Y97441D02*
X106890D01*
Y103347D01*
X96260Y97441D02*
Y103347D01*
X133465Y94488D02*
X156299D01*
X133465Y70866D02*
Y94488D01*
Y70866D02*
X156299D01*
Y94488D01*
X169882Y135433D02*
Y138583D01*
X175787Y135433D02*
Y138583D01*
X169882Y135433D02*
X175787D01*
X169882Y138583D02*
X175787D01*
X36811Y86024D02*
Y92716D01*
X47441Y86024D02*
Y92716D01*
X36811Y86024D02*
X47441D01*
X36811Y92716D02*
X47441D01*
X74410Y75492D02*
Y89075D01*
X61811Y75492D02*
Y89075D01*
Y75492D02*
X74410D01*
X61811Y89075D02*
X74410D01*
X47146Y114862D02*
X98524D01*
X47146Y166240D02*
X98524D01*
Y114862D02*
Y166240D01*
X47146Y114862D02*
Y166240D01*
X114075Y96653D02*
Y117520D01*
X141831Y96653D02*
Y117520D01*
X114075D02*
X141831D01*
X114075Y96653D02*
X141831D01*
X35827Y117717D02*
X39764D01*
X37795Y115748D02*
Y119685D01*
X111811Y161634D02*
X120866D01*
X111811Y169665D02*
X120866D01*
X111811Y161634D02*
Y169665D01*
X120866Y161634D02*
Y169665D01*
X150886Y111181D02*
X168012D01*
X150886Y95906D02*
X168012D01*
Y111181D01*
X150886Y95906D02*
Y111181D01*
X135433Y84252D02*
X141732D01*
X135433Y74016D02*
X141732D01*
Y84252D01*
X135433Y74016D02*
Y84252D01*
X179331Y50984D02*
X183661D01*
X179331Y59252D02*
X183661D01*
X179331Y50984D02*
Y59252D01*
X183661Y50984D02*
Y59252D01*
X60236Y62402D02*
X68110D01*
X60236Y47047D02*
X68110D01*
Y62402D01*
X60236Y47047D02*
Y62402D01*
X162402Y65945D02*
Y70276D01*
X154134Y65945D02*
Y70276D01*
Y65945D02*
X162402D01*
X154134Y70276D02*
X162402D01*
X181102Y37992D02*
X190551D01*
X181102Y26575D02*
X190551D01*
Y37992D01*
X181102Y26575D02*
Y37992D01*
X60433Y19882D02*
Y36024D01*
X68701Y19882D02*
Y36024D01*
X60433Y19882D02*
X68701D01*
X60433Y36024D02*
X68701D01*
X66142Y69685D02*
X89764D01*
X66142Y99606D02*
X89764D01*
X66142Y69685D02*
Y99606D01*
X89764Y69685D02*
Y99606D01*
X188976Y72244D02*
Y87598D01*
X181102Y72244D02*
Y87598D01*
X188976D01*
X181102Y72244D02*
X188976D01*
X93799Y112894D02*
X98524D01*
X93799Y121555D02*
X98524D01*
X93799Y112894D02*
Y121555D01*
X98524Y112894D02*
Y121555D01*
X107087Y114567D02*
Y117717D01*
X113386Y114567D02*
Y117717D01*
X107087D02*
X113386D01*
X107087Y114567D02*
X113386D01*
X40945Y140748D02*
X44094D01*
X40945Y146653D02*
X44094D01*
X40945Y140748D02*
Y146653D01*
X44094Y140748D02*
Y146653D01*
X53937Y129429D02*
X57087D01*
X53937Y135728D02*
X57087D01*
Y129429D02*
Y135728D01*
X53937Y129429D02*
Y135728D01*
X59252Y164961D02*
X65158D01*
X59252Y168110D02*
X65158D01*
X59252Y164961D02*
Y168110D01*
X65158Y164961D02*
Y168110D01*
X55905Y161417D02*
Y164567D01*
X62205Y161417D02*
Y164567D01*
X55905Y161417D02*
X62205D01*
X55905Y164567D02*
X62205D01*
X100886Y117618D02*
X104035D01*
X100886Y123917D02*
X104035D01*
Y117618D02*
Y123917D01*
X100886Y117618D02*
Y123917D01*
X90453Y114075D02*
X93602D01*
X90453Y120374D02*
X93602D01*
X90453Y114075D02*
Y120374D01*
X93602Y114075D02*
Y120374D01*
X115748Y108661D02*
X118898D01*
X115748Y102362D02*
X118898D01*
X115748D02*
Y108661D01*
X118898Y102362D02*
Y108661D01*
X120177Y108425D02*
X137303D01*
X120177Y93150D02*
X137303D01*
X120177D02*
Y108425D01*
X137303Y93150D02*
Y108425D01*
X181299Y32067D02*
Y42736D01*
X190354Y32067D02*
Y42736D01*
X181299D02*
X190354D01*
X181299Y32067D02*
X190354D01*
X136713Y110630D02*
Y131496D01*
X108957Y110630D02*
Y131496D01*
X136713D01*
X108957Y110630D02*
X136713D01*
X140354Y114075D02*
Y119980D01*
X137205Y114075D02*
Y119980D01*
Y114075D02*
X140354D01*
X137205Y119980D02*
X140354D01*
X156083Y112697D02*
X166752D01*
X156083Y121752D02*
X166752D01*
X156083Y112697D02*
Y121752D01*
X166752Y112697D02*
Y121752D01*
X136417Y165847D02*
X157283D01*
X136417Y138091D02*
X157283D01*
Y165847D01*
X136417Y138091D02*
Y165847D01*
X147244Y166732D02*
Y172638D01*
X150394Y166732D02*
Y172638D01*
X147244Y166732D02*
X150394D01*
X147244Y172638D02*
X150394D01*
X145276Y161811D02*
X148425D01*
X145276Y155512D02*
X148425D01*
X145276D02*
Y161811D01*
X148425Y155512D02*
Y161811D01*
X162402Y135433D02*
X168307D01*
X162402Y138583D02*
X168307D01*
Y135433D02*
Y138583D01*
X162402Y135433D02*
Y138583D01*
X8976Y139173D02*
Y148228D01*
X17008Y139173D02*
Y148228D01*
X8976Y139173D02*
X17008D01*
X8976Y148228D02*
X17008D01*
X74193Y105709D02*
X84862D01*
X74193Y96653D02*
X84862D01*
Y105709D01*
X74193Y96653D02*
Y105709D01*
X43307Y78543D02*
Y84449D01*
X46457Y78543D02*
Y84449D01*
X43307Y78543D02*
X46457D01*
X43307Y84449D02*
X46457D01*
X47835Y78347D02*
X53740D01*
X47835Y75197D02*
X53740D01*
X47835D02*
Y78347D01*
X53740Y75197D02*
Y78347D01*
X47835Y78740D02*
X53740D01*
X47835Y81890D02*
X53740D01*
Y78740D02*
Y81890D01*
X47835Y78740D02*
Y81890D01*
X51575Y72047D02*
X56299D01*
X51575Y80709D02*
X56299D01*
Y72047D02*
Y80709D01*
X51575Y72047D02*
Y80709D01*
X35827Y74410D02*
X38976D01*
X35827Y80709D02*
X38976D01*
Y74410D02*
Y80709D01*
X35827Y74410D02*
Y80709D01*
X95354Y96260D02*
Y105315D01*
X87323Y96260D02*
Y105315D01*
X95354D01*
X87323Y96260D02*
X95354D01*
X60551Y150984D02*
X68583D01*
X60551Y141929D02*
X68583D01*
Y150984D01*
X60551Y141929D02*
Y150984D01*
X169882Y160236D02*
Y163386D01*
X175787Y160236D02*
Y163386D01*
X169882Y160236D02*
X175787D01*
X169882Y163386D02*
X175787D01*
X169882Y154035D02*
Y157185D01*
X175787Y154035D02*
Y157185D01*
X169882Y154035D02*
X175787D01*
X169882Y157185D02*
X175787D01*
X169882Y147835D02*
Y150984D01*
X175787Y147835D02*
Y150984D01*
X169882Y147835D02*
X175787D01*
X169882Y150984D02*
X175787D01*
X169882Y141634D02*
Y144783D01*
X175787Y141634D02*
Y144783D01*
X169882Y141634D02*
X175787D01*
X169882Y144783D02*
X175787D01*
X129429Y119685D02*
Y122835D01*
X123130Y119685D02*
Y122835D01*
Y119685D02*
X129429D01*
X123130Y122835D02*
X129429D01*
X149508Y108071D02*
Y111221D01*
X143209Y108071D02*
Y111221D01*
Y108071D02*
X149508D01*
X143209Y111221D02*
X149508D01*
Y111417D02*
Y114567D01*
X143209Y111417D02*
Y114567D01*
Y111417D02*
X149508D01*
X143209Y114567D02*
X149508D01*
X98819Y112894D02*
X103543D01*
X98819Y121555D02*
X103543D01*
X98819Y112894D02*
Y121555D01*
X103543Y112894D02*
Y121555D01*
X148819Y100000D02*
Y103150D01*
X142520Y100000D02*
Y103150D01*
Y100000D02*
X148819D01*
X142520Y103150D02*
X148819D01*
Y96457D02*
Y99606D01*
X142520Y96457D02*
Y99606D01*
Y96457D02*
X148819D01*
X142520Y99606D02*
X148819D01*
X107087Y100000D02*
Y103150D01*
X113386Y100000D02*
Y103150D01*
X107087D02*
X113386D01*
X107087Y100000D02*
X113386D01*
X107087Y96457D02*
Y99606D01*
X113386Y96457D02*
Y99606D01*
X107087D02*
X113386D01*
X107087Y96457D02*
X113386D01*
X107087Y111024D02*
Y114173D01*
X113386Y111024D02*
Y114173D01*
X107087D02*
X113386D01*
X107087Y111024D02*
X113386D01*
X150394Y131299D02*
Y137205D01*
X147244Y131299D02*
Y137205D01*
X150394D01*
X147244Y131299D02*
X150394D01*
X162402Y138976D02*
X168307D01*
X162402Y142126D02*
X168307D01*
Y138976D02*
Y142126D01*
X162402Y138976D02*
Y142126D01*
X119193Y152362D02*
Y157087D01*
X127854Y152362D02*
Y157087D01*
X119193D02*
X127854D01*
X119193Y152362D02*
X127854D01*
X154331Y131299D02*
Y137205D01*
X151181Y131299D02*
Y137205D01*
X154331D01*
X151181Y131299D02*
X154331D01*
X146457D02*
Y137205D01*
X143307Y131299D02*
Y137205D01*
X146457D01*
X143307Y131299D02*
X146457D01*
X162402Y146063D02*
X168307D01*
X162402Y149213D02*
X168307D01*
Y146063D02*
Y149213D01*
X162402Y146063D02*
Y149213D01*
X142520Y131299D02*
Y137205D01*
X139370Y131299D02*
Y137205D01*
X142520D01*
X139370Y131299D02*
X142520D01*
X162402Y142520D02*
X168307D01*
X162402Y145669D02*
X168307D01*
Y142520D02*
Y145669D01*
X162402Y142520D02*
Y145669D01*
X143307Y166732D02*
Y172638D01*
X146457Y166732D02*
Y172638D01*
X143307Y166732D02*
X146457D01*
X143307Y172638D02*
X146457D01*
X162402Y153150D02*
X168307D01*
X162402Y156299D02*
X168307D01*
Y153150D02*
Y156299D01*
X162402Y153150D02*
Y156299D01*
X139370Y166732D02*
Y172638D01*
X142520Y166732D02*
Y172638D01*
X139370Y166732D02*
X142520D01*
X139370Y172638D02*
X142520D01*
X162402Y149606D02*
X168307D01*
X162402Y152756D02*
X168307D01*
Y149606D02*
Y152756D01*
X162402Y149606D02*
Y152756D01*
Y160236D02*
X168307D01*
X162402Y163386D02*
X168307D01*
Y160236D02*
Y163386D01*
X162402Y160236D02*
Y163386D01*
X151181Y166732D02*
Y172638D01*
X154331Y166732D02*
Y172638D01*
X151181Y166732D02*
X154331D01*
X151181Y172638D02*
X154331D01*
X162402Y156693D02*
X168307D01*
X162402Y159843D02*
X168307D01*
Y156693D02*
Y159843D01*
X162402Y156693D02*
Y159843D01*
X151181Y48622D02*
X159055D01*
X151181Y33268D02*
X159055D01*
Y48622D01*
X151181Y33268D02*
Y48622D01*
X54626Y106693D02*
Y111417D01*
X63287Y106693D02*
Y111417D01*
X54626D02*
X63287D01*
X54626Y106693D02*
X63287D01*
X89764Y111811D02*
Y114961D01*
X83465Y111811D02*
Y114961D01*
Y111811D02*
X89764D01*
X83465Y114961D02*
X89764D01*
X63287Y111516D02*
Y114665D01*
X56988Y111516D02*
Y114665D01*
Y111516D02*
X63287D01*
X56988Y114665D02*
X63287D01*
X29921Y136221D02*
Y139370D01*
X36220Y136221D02*
Y139370D01*
X29921D02*
X36220D01*
X29921Y136221D02*
X36220D01*
X36220Y152756D02*
Y155905D01*
X29921Y152756D02*
Y155905D01*
Y152756D02*
X36220D01*
X29921Y155905D02*
X36220D01*
X108051Y130118D02*
Y139173D01*
X100020Y130118D02*
Y139173D01*
Y130118D02*
X108051D01*
X100020Y139173D02*
X108051D01*
X61024Y93504D02*
Y99410D01*
X64173Y93504D02*
Y99410D01*
X61024Y93504D02*
X64173D01*
X61024Y99410D02*
X64173D01*
X57087Y93307D02*
X60236D01*
X57087Y99606D02*
X60236D01*
X57087Y93307D02*
Y99606D01*
X60236Y93307D02*
Y99606D01*
X163976Y58563D02*
X167126D01*
X163976Y52264D02*
X167126D01*
Y58563D01*
X163976Y52264D02*
Y58563D01*
X69291Y89764D02*
Y92913D01*
X62992Y89764D02*
Y92913D01*
X69291D01*
X62992Y89764D02*
X69291D01*
X65158Y74803D02*
X71063D01*
X65158Y71653D02*
X71063D01*
Y74803D01*
X65158Y71653D02*
Y74803D01*
X179527Y57480D02*
X182677D01*
X179527Y63779D02*
X182677D01*
Y57480D02*
Y63779D01*
X179527Y57480D02*
Y63779D01*
X183957Y64764D02*
Y67913D01*
X177657Y64764D02*
Y67913D01*
X183957D01*
X177657Y64764D02*
X183957D01*
X177953Y55709D02*
Y61614D01*
X174803Y55709D02*
Y61614D01*
Y55709D02*
X177953D01*
X174803Y61614D02*
X177953D01*
X179527Y44685D02*
Y50590D01*
X176378Y44685D02*
Y50590D01*
Y44685D02*
X179527D01*
X176378Y50590D02*
X179527D01*
X183071Y55512D02*
X189370D01*
X183071Y65748D02*
X189370D01*
Y55512D02*
Y65748D01*
X183071Y55512D02*
Y65748D01*
X150984Y59449D02*
X156890D01*
X150984Y62598D02*
X156890D01*
X150984Y59449D02*
Y62598D01*
X156890Y59449D02*
Y62598D01*
X150984Y55905D02*
X156890D01*
X150984Y59055D02*
X156890D01*
X150984Y55905D02*
Y59055D01*
X156890Y55905D02*
Y59055D01*
X179921Y44685D02*
Y50590D01*
X183071Y44685D02*
Y50590D01*
X179921D02*
X183071D01*
X179921Y44685D02*
X183071D01*
X176378Y51575D02*
Y54724D01*
X182677Y51575D02*
Y54724D01*
X176378Y51575D02*
X182677D01*
X176378Y54724D02*
X182677D01*
X161122Y54232D02*
Y60138D01*
X157972Y54232D02*
Y60138D01*
X161122D01*
X157972Y54232D02*
X161122D01*
X166831Y56693D02*
X172736D01*
X166831Y59842D02*
X172736D01*
Y56693D02*
Y59842D01*
X166831Y56693D02*
Y59842D01*
X162992Y68110D02*
Y71260D01*
X169291Y68110D02*
Y71260D01*
X162992D02*
X169291D01*
X162992Y68110D02*
X169291D01*
X180709Y72244D02*
Y87598D01*
X172835Y72244D02*
Y87598D01*
X180709D01*
X172835Y72244D02*
X180709D01*
X172441D02*
Y87598D01*
X164567Y72244D02*
Y87598D01*
X172441D01*
X164567Y72244D02*
X172441D01*
X174409Y60630D02*
Y65354D01*
X165748Y60630D02*
Y65354D01*
Y60630D02*
X174409D01*
X165748Y65354D02*
X174409D01*
X155905Y60630D02*
Y65354D01*
X164567Y60630D02*
Y65354D01*
X155905D02*
X164567D01*
X155905Y60630D02*
X164567D01*
X124016Y73819D02*
Y89173D01*
X131890Y73819D02*
Y89173D01*
X124016Y73819D02*
X131890D01*
X124016Y89173D02*
X131890D01*
X115748Y73819D02*
Y89173D01*
X123622Y73819D02*
Y89173D01*
X115748Y73819D02*
X123622D01*
X115748Y89173D02*
X123622D01*
X107480Y73819D02*
Y89173D01*
X115354Y73819D02*
Y89173D01*
X107480Y73819D02*
X115354D01*
X107480Y89173D02*
X115354D01*
X160039Y33661D02*
Y49803D01*
X151772Y33661D02*
Y49803D01*
Y33661D02*
X160039D01*
X151772Y49803D02*
X160039D01*
X112205Y154724D02*
X116929D01*
X112205Y146063D02*
X116929D01*
Y154724D01*
X112205Y146063D02*
Y154724D01*
X107087D02*
X111811D01*
X107087Y146063D02*
X111811D01*
Y154724D01*
X107087Y146063D02*
Y154724D01*
X123622Y140157D02*
Y144882D01*
X114961Y140157D02*
Y144882D01*
Y140157D02*
X123622D01*
X114961Y144882D02*
X123622D01*
X161614Y90551D02*
X167520D01*
X161614Y87402D02*
X167520D01*
Y90551D01*
X161614Y87402D02*
Y90551D01*
X137697Y152264D02*
X140847D01*
X137697Y145965D02*
X140847D01*
X137697D02*
Y152264D01*
X140847Y145965D02*
Y152264D01*
X138189Y155512D02*
Y158661D01*
X144488Y155512D02*
Y158661D01*
X138189Y155512D02*
X144488D01*
X138189Y158661D02*
X144488D01*
X61024Y38976D02*
Y42126D01*
X67323Y38976D02*
Y42126D01*
X61024Y38976D02*
X67323D01*
X61024Y42126D02*
X67323D01*
X93110Y168701D02*
Y173031D01*
X101378Y168701D02*
Y173031D01*
X93110Y168701D02*
X101378D01*
X93110Y173031D02*
X101378D01*
X92913Y92224D02*
X96063D01*
X92913Y98524D02*
X96063D01*
X92913Y92224D02*
Y98524D01*
X96063Y92224D02*
Y98524D01*
X99311Y92520D02*
Y98425D01*
X96161Y92520D02*
Y98425D01*
X99311D01*
X96161Y92520D02*
X99311D01*
X19291Y93307D02*
X22441D01*
X19291Y99606D02*
X22441D01*
X19291Y93307D02*
Y99606D01*
X22441Y93307D02*
Y99606D01*
X26378Y93504D02*
Y99409D01*
X23228Y93504D02*
Y99409D01*
X26378D01*
X23228Y93504D02*
X26378D01*
X55512Y93307D02*
X58662D01*
X55512Y99606D02*
X58662D01*
Y93307D02*
Y99606D01*
X55512Y93307D02*
Y99606D01*
X51575Y93504D02*
Y99409D01*
X54724Y93504D02*
Y99409D01*
X51575D02*
X54724D01*
X51575Y93504D02*
X54724D01*
X43701Y114567D02*
X46850D01*
X43701Y120866D02*
X46850D01*
X43701Y114567D02*
Y120866D01*
X46850Y114567D02*
Y120866D01*
X43622Y91929D02*
Y100984D01*
X51653Y91929D02*
Y100984D01*
X43622D02*
X51653D01*
X43622Y91929D02*
X51653D01*
X94488Y157480D02*
X97638D01*
X94488Y151181D02*
X97638D01*
X94488D02*
Y157480D01*
X97638Y151181D02*
Y157480D01*
X161713Y118701D02*
Y124606D01*
X158563Y118701D02*
Y124606D01*
X161713D01*
X158563Y118701D02*
X161713D01*
X162008Y118701D02*
Y124606D01*
X165157Y118701D02*
Y124606D01*
X162008Y118701D02*
X165157D01*
X162008Y124606D02*
X165157D01*
X67716Y122539D02*
X70866D01*
X67716Y116240D02*
X70866D01*
X67716D02*
Y122539D01*
X70866Y116240D02*
Y122539D01*
X132480Y127953D02*
Y133858D01*
X135630Y127953D02*
Y133858D01*
X132480Y127953D02*
X135630D01*
X132480Y133858D02*
X135630D01*
X135728Y121949D02*
Y127854D01*
X132579Y121949D02*
Y127854D01*
X135728D01*
X132579Y121949D02*
X135728D01*
X160827Y98642D02*
X169882D01*
X160827Y106673D02*
X169882D01*
Y98642D02*
Y106673D01*
X160827Y98642D02*
Y106673D01*
X141043Y117618D02*
Y123524D01*
X144193Y117618D02*
Y123524D01*
X141043Y117618D02*
X144193D01*
X141043Y123524D02*
X144193D01*
M02*
