G04*
G04 #@! TF.GenerationSoftware,Altium Limited,Altium Designer,18.0.9 (584)*
G04*
G04 Layer_Color=255*
%FSLAX25Y25*%
%MOIN*%
G70*
G01*
G75*
%ADD16R,0.04626X0.07480*%
%ADD17R,0.09350X0.07480*%
%ADD18R,0.05807X0.10236*%
%ADD19R,0.01772X0.07402*%
%ADD20R,0.01968X0.02953*%
%ADD21R,0.03543X0.03937*%
%ADD22O,0.01181X0.05118*%
%ADD23O,0.05118X0.01181*%
%ADD24O,0.04724X0.01575*%
%ADD25R,0.06693X0.03150*%
%ADD26O,0.00984X0.02559*%
%ADD27R,0.03347X0.04134*%
%ADD28R,0.02362X0.04134*%
%ADD29R,0.04921X0.03347*%
%ADD30R,0.03150X0.02362*%
%ADD31R,0.06496X0.03543*%
%ADD32R,0.02756X0.01181*%
%ADD33R,0.01968X0.02756*%
%ADD34R,0.03937X0.03543*%
%ADD35R,0.05512X0.10236*%
%ADD36R,0.06693X0.04331*%
%ADD37R,0.03543X0.03150*%
%ADD38R,0.02205X0.02047*%
%ADD39R,0.01772X0.01968*%
%ADD40R,0.02047X0.02205*%
%ADD41O,0.01575X0.04724*%
%ADD42R,0.01968X0.01772*%
%ADD43R,0.03150X0.03543*%
%ADD44O,0.02559X0.00984*%
%ADD87C,0.07087*%
G04:AMPARAMS|DCode=88|XSize=70.87mil|YSize=70.87mil|CornerRadius=8.86mil|HoleSize=0mil|Usage=FLASHONLY|Rotation=270.000|XOffset=0mil|YOffset=0mil|HoleType=Round|Shape=RoundedRectangle|*
%AMROUNDEDRECTD88*
21,1,0.07087,0.05315,0,0,270.0*
21,1,0.05315,0.07087,0,0,270.0*
1,1,0.01772,-0.02657,-0.02657*
1,1,0.01772,-0.02657,0.02657*
1,1,0.01772,0.02657,0.02657*
1,1,0.01772,0.02657,-0.02657*
%
%ADD88ROUNDEDRECTD88*%
%ADD89C,0.23622*%
G04:AMPARAMS|DCode=90|XSize=59.06mil|YSize=59.06mil|CornerRadius=7.38mil|HoleSize=0mil|Usage=FLASHONLY|Rotation=90.000|XOffset=0mil|YOffset=0mil|HoleType=Round|Shape=RoundedRectangle|*
%AMROUNDEDRECTD90*
21,1,0.05906,0.04429,0,0,90.0*
21,1,0.04429,0.05906,0,0,90.0*
1,1,0.01476,0.02215,0.02215*
1,1,0.01476,0.02215,-0.02215*
1,1,0.01476,-0.02215,-0.02215*
1,1,0.01476,-0.02215,0.02215*
%
%ADD90ROUNDEDRECTD90*%
%ADD91C,0.05906*%
%ADD92C,0.05118*%
%ADD93C,0.11811*%
D16*
X132529Y190945D02*
D03*
X139124D02*
D03*
D17*
X124360D02*
D03*
X147293D02*
D03*
D18*
X145522Y180905D02*
D03*
X126132D02*
D03*
D19*
X130709Y179488D02*
D03*
X133268D02*
D03*
X135827D02*
D03*
X138386D02*
D03*
X140945D02*
D03*
D20*
X120768Y128642D02*
D03*
X116831D02*
D03*
Y134547D02*
D03*
X120768D02*
D03*
X10630Y164370D02*
D03*
X14567D02*
D03*
Y158465D02*
D03*
X10630D02*
D03*
Y152559D02*
D03*
X14567D02*
D03*
Y146653D02*
D03*
X10630D02*
D03*
Y140748D02*
D03*
X14567D02*
D03*
Y134843D02*
D03*
X10630D02*
D03*
Y128937D02*
D03*
X14567D02*
D03*
Y123031D02*
D03*
X10630D02*
D03*
D21*
X35728Y149508D02*
D03*
Y142618D02*
D03*
X30413D02*
D03*
Y149508D02*
D03*
D22*
X58071Y162795D02*
D03*
X60039D02*
D03*
X62008D02*
D03*
X63976D02*
D03*
X65945D02*
D03*
X67913D02*
D03*
X69882D02*
D03*
X71850D02*
D03*
X73819D02*
D03*
X75787D02*
D03*
X77756D02*
D03*
X79724D02*
D03*
X81693D02*
D03*
X83661D02*
D03*
X85630D02*
D03*
X87598D02*
D03*
Y118307D02*
D03*
X85630D02*
D03*
X83661D02*
D03*
X81693D02*
D03*
X79724D02*
D03*
X77756D02*
D03*
X75787D02*
D03*
X73819D02*
D03*
X71850D02*
D03*
X69882D02*
D03*
X67913D02*
D03*
X65945D02*
D03*
X63976D02*
D03*
X62008D02*
D03*
X60039D02*
D03*
X58071D02*
D03*
D23*
X95079Y155315D02*
D03*
Y153347D02*
D03*
Y151378D02*
D03*
Y149409D02*
D03*
Y147441D02*
D03*
Y145472D02*
D03*
Y143504D02*
D03*
Y141535D02*
D03*
Y139567D02*
D03*
Y137598D02*
D03*
Y135630D02*
D03*
Y133661D02*
D03*
Y131693D02*
D03*
Y129724D02*
D03*
Y127756D02*
D03*
Y125787D02*
D03*
X50591D02*
D03*
Y127756D02*
D03*
Y129724D02*
D03*
Y131693D02*
D03*
Y133661D02*
D03*
Y135630D02*
D03*
Y137598D02*
D03*
Y139567D02*
D03*
Y141535D02*
D03*
Y143504D02*
D03*
Y145472D02*
D03*
Y147441D02*
D03*
Y149409D02*
D03*
Y151378D02*
D03*
Y153347D02*
D03*
Y155315D02*
D03*
D24*
X116732Y114764D02*
D03*
Y112205D02*
D03*
Y109646D02*
D03*
Y107087D02*
D03*
Y104528D02*
D03*
Y101969D02*
D03*
Y99410D02*
D03*
X139173Y114764D02*
D03*
Y112205D02*
D03*
Y109646D02*
D03*
Y107087D02*
D03*
Y104528D02*
D03*
Y101969D02*
D03*
Y99410D02*
D03*
D25*
X37795Y111024D02*
D03*
Y124409D02*
D03*
D26*
X113386Y163287D02*
D03*
X115354D02*
D03*
X117323D02*
D03*
X119291D02*
D03*
X113386Y168012D02*
D03*
X115354D02*
D03*
X117323D02*
D03*
X119291D02*
D03*
D27*
X164665Y107087D02*
D03*
X154232D02*
D03*
X164665Y100000D02*
D03*
X154232D02*
D03*
D28*
X161024Y107087D02*
D03*
X157874D02*
D03*
X161024Y100000D02*
D03*
X157874D02*
D03*
D29*
X138583Y82185D02*
D03*
Y76083D02*
D03*
D30*
X181496Y52559D02*
D03*
Y57677D02*
D03*
D31*
X64173Y60138D02*
D03*
Y49311D02*
D03*
X155118Y46358D02*
D03*
Y35531D02*
D03*
D32*
X160630Y68110D02*
D03*
X155905D02*
D03*
D33*
X188386Y36319D02*
D03*
X183268D02*
D03*
X185827Y28248D02*
D03*
D34*
X64567Y22047D02*
D03*
Y33858D02*
D03*
D35*
X77953Y75689D02*
D03*
Y93602D02*
D03*
D36*
X185039Y85039D02*
D03*
Y74803D02*
D03*
X176772Y85039D02*
D03*
Y74803D02*
D03*
X168504Y85039D02*
D03*
Y74803D02*
D03*
X127953Y76378D02*
D03*
Y86614D02*
D03*
X119685Y76378D02*
D03*
Y86614D02*
D03*
X111417Y76378D02*
D03*
Y86614D02*
D03*
D37*
X96161Y114764D02*
D03*
Y119685D02*
D03*
X101181Y114764D02*
D03*
Y119685D02*
D03*
X114567Y152854D02*
D03*
Y147933D02*
D03*
X109449Y152854D02*
D03*
Y147933D02*
D03*
D38*
X108701Y116142D02*
D03*
X111772D02*
D03*
X127815Y121260D02*
D03*
X124744D02*
D03*
X147894Y109646D02*
D03*
X144823D02*
D03*
X147894Y112992D02*
D03*
X144823D02*
D03*
X147205Y101575D02*
D03*
X144134D02*
D03*
X147205Y98032D02*
D03*
X144134D02*
D03*
X108701Y101575D02*
D03*
X111772D02*
D03*
X108701Y98032D02*
D03*
X111772D02*
D03*
X108701Y112598D02*
D03*
X111772D02*
D03*
X88150Y113386D02*
D03*
X85079D02*
D03*
X61673Y113091D02*
D03*
X58602D02*
D03*
X31535Y137795D02*
D03*
X34606D02*
D03*
X34606Y154331D02*
D03*
X31535D02*
D03*
X164606Y69685D02*
D03*
X167677D02*
D03*
D39*
X42520Y142224D02*
D03*
Y145177D02*
D03*
X148819Y168209D02*
D03*
Y171161D02*
D03*
X44882Y80020D02*
D03*
Y82972D02*
D03*
X148819Y135728D02*
D03*
Y132776D02*
D03*
X152756Y135728D02*
D03*
Y132776D02*
D03*
X144882Y135728D02*
D03*
Y132776D02*
D03*
X140945Y135728D02*
D03*
Y132776D02*
D03*
X144882Y168209D02*
D03*
Y171161D02*
D03*
X140945Y168209D02*
D03*
Y171161D02*
D03*
X152756Y168209D02*
D03*
Y171161D02*
D03*
X62598Y94980D02*
D03*
Y97933D02*
D03*
X159547Y58661D02*
D03*
Y55709D02*
D03*
X97736Y96949D02*
D03*
Y93996D02*
D03*
X24803Y97933D02*
D03*
Y94980D02*
D03*
X160138Y123130D02*
D03*
Y120177D02*
D03*
X163583D02*
D03*
Y123130D02*
D03*
X134055Y129429D02*
D03*
Y132382D02*
D03*
X134153Y126378D02*
D03*
Y123425D02*
D03*
X142618Y119095D02*
D03*
Y122047D02*
D03*
D40*
X92028Y115689D02*
D03*
Y118760D02*
D03*
X58661Y94921D02*
D03*
Y97992D02*
D03*
X165551Y56949D02*
D03*
Y53878D02*
D03*
X94488Y93839D02*
D03*
Y96909D02*
D03*
X20866Y94921D02*
D03*
Y97992D02*
D03*
X45276Y116181D02*
D03*
Y119252D02*
D03*
D41*
X154528Y163189D02*
D03*
X151969D02*
D03*
X149409D02*
D03*
X146850D02*
D03*
X144291D02*
D03*
X141732D02*
D03*
X139173D02*
D03*
X154528Y140748D02*
D03*
X151969D02*
D03*
X149409D02*
D03*
X146850D02*
D03*
X144291D02*
D03*
X141732D02*
D03*
X139173D02*
D03*
D42*
X166831Y137008D02*
D03*
X163878D02*
D03*
X49311Y76772D02*
D03*
X52264D02*
D03*
Y80315D02*
D03*
X49311D02*
D03*
X166831Y140551D02*
D03*
X163878D02*
D03*
X166831Y147638D02*
D03*
X163878D02*
D03*
X166831Y144095D02*
D03*
X163878D02*
D03*
X166831Y154724D02*
D03*
X163878D02*
D03*
X166831Y151181D02*
D03*
X163878D02*
D03*
X166831Y161811D02*
D03*
X163878D02*
D03*
X166831Y158268D02*
D03*
X163878D02*
D03*
X171260Y58268D02*
D03*
X168307D02*
D03*
D43*
X121063Y154724D02*
D03*
X125984D02*
D03*
X56496Y109055D02*
D03*
X61417D02*
D03*
X172539Y62992D02*
D03*
X167618D02*
D03*
X157776D02*
D03*
X162697D02*
D03*
X121752Y142520D02*
D03*
X116831D02*
D03*
D44*
X106398Y131693D02*
D03*
Y133661D02*
D03*
Y135630D02*
D03*
Y137598D02*
D03*
X101673Y131693D02*
D03*
Y133661D02*
D03*
Y135630D02*
D03*
Y137598D02*
D03*
X45276Y99410D02*
D03*
Y97441D02*
D03*
Y95472D02*
D03*
Y93504D02*
D03*
X50000Y99410D02*
D03*
Y97441D02*
D03*
Y95472D02*
D03*
Y93504D02*
D03*
D87*
X161417Y176221D02*
D03*
X155512Y21811D02*
D03*
X167323D02*
D03*
Y31811D02*
D03*
D88*
X161417Y186221D02*
D03*
X155512Y11811D02*
D03*
X167323D02*
D03*
D89*
X43307Y56102D02*
D03*
Y26575D02*
D03*
X98425Y56102D02*
D03*
Y26575D02*
D03*
X131890Y56102D02*
D03*
Y26575D02*
D03*
D90*
X185630Y120472D02*
D03*
D91*
Y130315D02*
D03*
Y140157D02*
D03*
Y150000D02*
D03*
Y159843D02*
D03*
D92*
X89941Y179055D02*
D03*
X94941Y189055D02*
D03*
X99941Y179055D02*
D03*
X104941Y189055D02*
D03*
X32697Y179055D02*
D03*
X37697Y189055D02*
D03*
X42697Y179055D02*
D03*
X47697Y189055D02*
D03*
X52697Y179055D02*
D03*
X57697Y189055D02*
D03*
X62697Y179055D02*
D03*
X67697Y189055D02*
D03*
D93*
X9843Y187008D02*
D03*
X187008D02*
D03*
Y9843D02*
D03*
X9843D02*
D03*
M02*
