G04*
G04 #@! TF.GenerationSoftware,Altium Limited,Altium Designer,18.0.9 (584)*
G04*
G04 Layer_Color=16711935*
%FSLAX25Y25*%
%MOIN*%
G70*
G01*
G75*
%ADD34R,0.03937X0.03543*%
%ADD53O,0.05118X0.01968*%
%ADD55O,0.01378X0.02953*%
%ADD56R,0.03740X0.04528*%
%ADD57R,0.02756X0.04528*%
%ADD58R,0.05315X0.03740*%
%ADD61R,0.03150X0.01575*%
%ADD63R,0.04331X0.03937*%
%ADD66R,0.02598X0.02441*%
%ADD67R,0.02165X0.02362*%
%ADD68R,0.02441X0.02598*%
%ADD70R,0.02362X0.02165*%
%ADD71O,0.02953X0.01378*%
%ADD72C,0.07480*%
G04:AMPARAMS|DCode=73|XSize=74.8mil|YSize=74.8mil|CornerRadius=10.83mil|HoleSize=0mil|Usage=FLASHONLY|Rotation=270.000|XOffset=0mil|YOffset=0mil|HoleType=Round|Shape=RoundedRectangle|*
%AMROUNDEDRECTD73*
21,1,0.07480,0.05315,0,0,270.0*
21,1,0.05315,0.07480,0,0,270.0*
1,1,0.02165,-0.02657,-0.02657*
1,1,0.02165,-0.02657,0.02657*
1,1,0.02165,0.02657,0.02657*
1,1,0.02165,0.02657,-0.02657*
%
%ADD73ROUNDEDRECTD73*%
%ADD74C,0.24016*%
G04:AMPARAMS|DCode=75|XSize=62.99mil|YSize=62.99mil|CornerRadius=9.35mil|HoleSize=0mil|Usage=FLASHONLY|Rotation=90.000|XOffset=0mil|YOffset=0mil|HoleType=Round|Shape=RoundedRectangle|*
%AMROUNDEDRECTD75*
21,1,0.06299,0.04429,0,0,90.0*
21,1,0.04429,0.06299,0,0,90.0*
1,1,0.01870,0.02215,0.02215*
1,1,0.01870,0.02215,-0.02215*
1,1,0.01870,-0.02215,-0.02215*
1,1,0.01870,-0.02215,0.02215*
%
%ADD75ROUNDEDRECTD75*%
%ADD76C,0.06299*%
%ADD77C,0.05512*%
%ADD78C,0.00394*%
%ADD79C,0.12205*%
%ADD80C,0.01181*%
%ADD81C,0.02362*%
%ADD112R,0.03150X0.01378*%
G04:AMPARAMS|DCode=126|XSize=13.78mil|YSize=31.5mil|CornerRadius=4.43mil|HoleSize=0mil|Usage=FLASHONLY|Rotation=90.000|XOffset=0mil|YOffset=0mil|HoleType=Round|Shape=RoundedRectangle|*
%AMROUNDEDRECTD126*
21,1,0.01378,0.02264,0,0,90.0*
21,1,0.00492,0.03150,0,0,90.0*
1,1,0.00886,0.01132,0.00246*
1,1,0.00886,0.01132,-0.00246*
1,1,0.00886,-0.01132,-0.00246*
1,1,0.00886,-0.01132,0.00246*
%
%ADD126ROUNDEDRECTD126*%
G04:AMPARAMS|DCode=127|XSize=57.09mil|YSize=43.31mil|CornerRadius=5.91mil|HoleSize=0mil|Usage=FLASHONLY|Rotation=90.000|XOffset=0mil|YOffset=0mil|HoleType=Round|Shape=RoundedRectangle|*
%AMROUNDEDRECTD127*
21,1,0.05709,0.03150,0,0,90.0*
21,1,0.04528,0.04331,0,0,90.0*
1,1,0.01181,0.01575,0.02264*
1,1,0.01181,0.01575,-0.02264*
1,1,0.01181,-0.01575,-0.02264*
1,1,0.01181,-0.01575,0.02264*
%
%ADD127ROUNDEDRECTD127*%
%ADD128R,0.15394X0.06890*%
%ADD129R,0.04409X0.02795*%
%ADD130R,0.05394X0.02795*%
%ADD131O,0.03543X0.01378*%
%ADD132O,0.01378X0.03543*%
%ADD133R,0.12795X0.12795*%
%ADD134R,0.02913X0.09803*%
%ADD135R,0.08465X0.08465*%
%ADD136R,0.06299X0.06693*%
%ADD137R,0.02362X0.06693*%
%ADD138R,0.09843X0.14094*%
%ADD139R,0.03543X0.04685*%
%ADD140R,0.07441X0.11417*%
%ADD141R,0.03543X0.01772*%
%ADD142R,0.01575X0.01968*%
%ADD143R,0.03937X0.02854*%
%ADD144R,0.02756X0.01575*%
%ADD145R,0.08268X0.02756*%
%ADD146R,0.03425X0.04252*%
%ADD147R,0.05039X0.17717*%
%ADD148R,0.02165X0.02362*%
%ADD149R,0.04724X0.05709*%
%ADD150R,0.02559X0.03347*%
%ADD151R,0.02854X0.03937*%
%ADD152R,0.01575X0.02756*%
G36*
X34468Y79525D02*
X34505Y79513D01*
X34539Y79495D01*
X34569Y79471D01*
X34594Y79441D01*
X34612Y79406D01*
X34623Y79369D01*
X34627Y79331D01*
Y75827D01*
X34625Y75808D01*
X34624Y75790D01*
X34623Y75789D01*
X34623Y75788D01*
X34618Y75770D01*
X34613Y75753D01*
X34612Y75752D01*
X34612Y75751D01*
X34603Y75735D01*
X34595Y75718D01*
X34594Y75718D01*
X34594Y75717D01*
X34582Y75703D01*
X34570Y75688D01*
X32405Y73483D01*
X32404Y73483D01*
X32404Y73482D01*
X32389Y73470D01*
X32375Y73459D01*
X32374Y73458D01*
X32374Y73458D01*
X32358Y73449D01*
X32341Y73440D01*
X32340Y73440D01*
X32340Y73439D01*
X32322Y73434D01*
X32304Y73428D01*
X32303Y73428D01*
X32302Y73428D01*
X32284Y73426D01*
X32266Y73424D01*
X32265Y73424D01*
X32264Y73424D01*
X21280D01*
X21279Y73424D01*
X21278Y73424D01*
X21259Y73426D01*
X21241Y73428D01*
X21240Y73428D01*
X21239Y73428D01*
X21222Y73434D01*
X21204Y73439D01*
X21203Y73440D01*
X21202Y73440D01*
X21185Y73449D01*
X21170Y73458D01*
X21169Y73458D01*
X21168Y73459D01*
X21154Y73470D01*
X21140Y73482D01*
X21139Y73483D01*
X21138Y73483D01*
X18973Y75688D01*
X18961Y75702D01*
X18950Y75717D01*
X18949Y75718D01*
X18949Y75718D01*
X18940Y75735D01*
X18931Y75751D01*
X18931Y75752D01*
X18931Y75753D01*
X18926Y75770D01*
X18920Y75788D01*
X18920Y75789D01*
X18920Y75790D01*
X18918Y75809D01*
X18916Y75827D01*
Y79331D01*
X18920Y79369D01*
X18931Y79406D01*
X18950Y79441D01*
X18974Y79471D01*
X19004Y79495D01*
X19038Y79513D01*
X19076Y79525D01*
X19114Y79528D01*
X22165D01*
X22184Y79527D01*
X22201Y79525D01*
X22203Y79525D01*
X22204Y79525D01*
X22221Y79519D01*
X22239Y79514D01*
X22240Y79514D01*
X22241Y79513D01*
X22257Y79505D01*
X22273Y79497D01*
X22274Y79496D01*
X22275Y79495D01*
X22289Y79484D01*
X22303Y79472D01*
X24588Y77245D01*
X28955D01*
X31240Y79472D01*
X31254Y79484D01*
X31268Y79495D01*
X31269Y79496D01*
X31270Y79497D01*
X31287Y79505D01*
X31302Y79513D01*
X31304Y79514D01*
X31305Y79514D01*
X31322Y79519D01*
X31339Y79525D01*
X31341Y79525D01*
X31342Y79525D01*
X31360Y79527D01*
X31378Y79528D01*
X34429D01*
X34468Y79525D01*
D02*
G37*
G36*
X32284Y91141D02*
X32302Y91139D01*
X32303Y91139D01*
X32304Y91138D01*
X32322Y91133D01*
X32340Y91128D01*
X32340Y91127D01*
X32341Y91127D01*
X32358Y91118D01*
X32374Y91109D01*
X32374Y91109D01*
X32375Y91108D01*
X32389Y91097D01*
X32404Y91085D01*
X32404Y91084D01*
X32405Y91084D01*
X34570Y88879D01*
X34582Y88864D01*
X34594Y88850D01*
X34594Y88849D01*
X34595Y88849D01*
X34603Y88832D01*
X34612Y88816D01*
X34612Y88815D01*
X34613Y88814D01*
X34618Y88797D01*
X34623Y88779D01*
X34623Y88778D01*
X34624Y88777D01*
X34625Y88758D01*
X34627Y88740D01*
Y85236D01*
X34623Y85198D01*
X34612Y85160D01*
X34594Y85126D01*
X34569Y85096D01*
X34539Y85072D01*
X34505Y85053D01*
X34468Y85042D01*
X34429Y85038D01*
X31378D01*
X31360Y85040D01*
X31342Y85042D01*
X31341Y85042D01*
X31339Y85042D01*
X31322Y85048D01*
X31305Y85053D01*
X31304Y85053D01*
X31302Y85053D01*
X31287Y85062D01*
X31270Y85070D01*
X31269Y85071D01*
X31268Y85072D01*
X31254Y85083D01*
X31240Y85095D01*
X28955Y87322D01*
X24588D01*
X22303Y85095D01*
X22289Y85083D01*
X22275Y85072D01*
X22274Y85071D01*
X22273Y85070D01*
X22257Y85062D01*
X22241Y85053D01*
X22240Y85053D01*
X22239Y85053D01*
X22221Y85048D01*
X22204Y85042D01*
X22203Y85042D01*
X22201Y85042D01*
X22184Y85040D01*
X22165Y85038D01*
X19114D01*
X19076Y85042D01*
X19038Y85053D01*
X19004Y85072D01*
X18974Y85096D01*
X18950Y85126D01*
X18931Y85160D01*
X18920Y85198D01*
X18916Y85236D01*
Y88740D01*
X18918Y88759D01*
X18920Y88777D01*
X18920Y88778D01*
X18920Y88779D01*
X18926Y88797D01*
X18931Y88814D01*
X18931Y88815D01*
X18931Y88816D01*
X18940Y88832D01*
X18949Y88849D01*
X18949Y88849D01*
X18950Y88850D01*
X18961Y88864D01*
X18973Y88879D01*
X21138Y91084D01*
X21139Y91084D01*
X21140Y91085D01*
X21154Y91097D01*
X21168Y91108D01*
X21169Y91109D01*
X21170Y91109D01*
X21185Y91118D01*
X21202Y91127D01*
X21203Y91127D01*
X21204Y91128D01*
X21222Y91133D01*
X21239Y91138D01*
X21240Y91139D01*
X21241Y91139D01*
X21259Y91141D01*
X21278Y91143D01*
X21279Y91143D01*
X21280Y91143D01*
X32264D01*
X32265Y91143D01*
X32266Y91143D01*
X32284Y91141D01*
D02*
G37*
D34*
X53937Y73917D02*
D03*
Y78839D02*
D03*
D53*
X97244Y128347D02*
D03*
Y125787D02*
D03*
Y123228D02*
D03*
Y120669D02*
D03*
Y118110D02*
D03*
Y115551D02*
D03*
Y112992D02*
D03*
Y110433D02*
D03*
X74803Y128347D02*
D03*
Y125787D02*
D03*
Y123228D02*
D03*
Y120669D02*
D03*
Y118110D02*
D03*
Y115551D02*
D03*
Y112992D02*
D03*
Y110433D02*
D03*
X134055Y128740D02*
D03*
Y126181D02*
D03*
Y123622D02*
D03*
Y121063D02*
D03*
Y118504D02*
D03*
Y115945D02*
D03*
Y113386D02*
D03*
X111614Y128740D02*
D03*
Y126181D02*
D03*
Y123622D02*
D03*
Y121063D02*
D03*
Y118504D02*
D03*
Y115945D02*
D03*
Y113386D02*
D03*
D55*
X168307Y100295D02*
D03*
X166339D02*
D03*
X164370D02*
D03*
X162402D02*
D03*
X168307Y105020D02*
D03*
X166339D02*
D03*
X164370D02*
D03*
X162402D02*
D03*
D56*
X123524Y104331D02*
D03*
X133957D02*
D03*
X123524Y97244D02*
D03*
X133957D02*
D03*
D57*
X127165Y104331D02*
D03*
X130315D02*
D03*
X127165Y97244D02*
D03*
X130315D02*
D03*
D58*
X186221Y57579D02*
D03*
Y63681D02*
D03*
D61*
X94882Y170866D02*
D03*
X99606D02*
D03*
D63*
X155905Y35827D02*
D03*
Y47638D02*
D03*
D66*
X152323Y64665D02*
D03*
X149252D02*
D03*
X146004Y68405D02*
D03*
X149075D02*
D03*
X57520Y162992D02*
D03*
X60591D02*
D03*
X67677Y91339D02*
D03*
X64606D02*
D03*
X182343Y66339D02*
D03*
X179272D02*
D03*
X177992Y53150D02*
D03*
X181063D02*
D03*
X139803Y157087D02*
D03*
X142874D02*
D03*
X62638Y40551D02*
D03*
X65709D02*
D03*
D67*
X138779Y115551D02*
D03*
Y118504D02*
D03*
X176378Y57185D02*
D03*
Y60138D02*
D03*
X177953Y46161D02*
D03*
Y49114D02*
D03*
X181496D02*
D03*
Y46161D02*
D03*
X53150Y97933D02*
D03*
Y94980D02*
D03*
D68*
X55512Y131043D02*
D03*
Y134114D02*
D03*
X102461Y119232D02*
D03*
Y122303D02*
D03*
X117323Y107047D02*
D03*
Y103976D02*
D03*
X146850Y160197D02*
D03*
Y157126D02*
D03*
X37402Y76024D02*
D03*
Y79094D02*
D03*
X181102Y59095D02*
D03*
Y62165D02*
D03*
X139272Y150650D02*
D03*
Y147579D02*
D03*
X57087Y94921D02*
D03*
Y97992D02*
D03*
X96063Y155866D02*
D03*
Y152795D02*
D03*
X69291Y120925D02*
D03*
Y117854D02*
D03*
D70*
X60728Y166535D02*
D03*
X63681D02*
D03*
X69587Y73228D02*
D03*
X66634D02*
D03*
X152461Y61024D02*
D03*
X155413D02*
D03*
X152461Y57480D02*
D03*
X155413D02*
D03*
X166043Y88976D02*
D03*
X163091D02*
D03*
D71*
X10630Y140748D02*
D03*
Y142717D02*
D03*
Y144685D02*
D03*
Y146653D02*
D03*
X15354Y140748D02*
D03*
Y142717D02*
D03*
Y144685D02*
D03*
Y146653D02*
D03*
X93701Y103740D02*
D03*
Y101772D02*
D03*
Y99803D02*
D03*
Y97835D02*
D03*
X88976Y103740D02*
D03*
Y101772D02*
D03*
Y99803D02*
D03*
Y97835D02*
D03*
X66929Y149409D02*
D03*
Y147441D02*
D03*
Y145472D02*
D03*
Y143504D02*
D03*
X62205Y149409D02*
D03*
Y147441D02*
D03*
Y145472D02*
D03*
Y143504D02*
D03*
D72*
X161417Y176221D02*
D03*
X155512Y21811D02*
D03*
X167323D02*
D03*
Y31811D02*
D03*
D73*
X161417Y186221D02*
D03*
X155512Y11811D02*
D03*
X167323D02*
D03*
D74*
X43307Y56102D02*
D03*
Y26575D02*
D03*
X98425Y56102D02*
D03*
Y26575D02*
D03*
X131890Y56102D02*
D03*
Y26575D02*
D03*
D75*
X185630Y120472D02*
D03*
D76*
Y130315D02*
D03*
Y140157D02*
D03*
Y150000D02*
D03*
Y159843D02*
D03*
D77*
X89941Y179055D02*
D03*
X94941Y189055D02*
D03*
X99941Y179055D02*
D03*
X104941Y189055D02*
D03*
X32697Y179055D02*
D03*
X37697Y189055D02*
D03*
X42697Y179055D02*
D03*
X47697Y189055D02*
D03*
X52697Y179055D02*
D03*
X57697Y189055D02*
D03*
X62697Y179055D02*
D03*
X67697Y189055D02*
D03*
D78*
X84429Y186142D02*
D03*
X27185D02*
D03*
D79*
X9843Y187008D02*
D03*
X187008D02*
D03*
Y9843D02*
D03*
X9843D02*
D03*
D80*
X175008Y66145D02*
D03*
X146850Y131201D02*
D03*
X82977Y93607D02*
D03*
X86815Y99710D02*
D03*
X85733Y95575D02*
D03*
X84308Y101378D02*
D03*
X83173Y106107D02*
D03*
X86126Y107190D02*
D03*
X91732Y111811D02*
D03*
X85044Y113883D02*
D03*
X93405Y115551D02*
D03*
X60827Y106988D02*
D03*
X113490Y91737D02*
D03*
X108180Y92038D02*
D03*
X106344Y89646D02*
D03*
X104528Y96653D02*
D03*
X92819Y106895D02*
D03*
X79724Y113583D02*
D03*
X70673Y114080D02*
D03*
X66539Y113687D02*
D03*
X65650Y110728D02*
D03*
X83425Y82146D02*
D03*
X156496Y71653D02*
D03*
X153937Y70571D02*
D03*
X142913Y82874D02*
D03*
X142815Y76083D02*
D03*
X79630Y65456D02*
D03*
X68898Y77362D02*
D03*
X173327Y188878D02*
D03*
X173425Y184252D02*
D03*
X174311Y177953D02*
D03*
X166929Y194291D02*
D03*
X172343Y192126D02*
D03*
X177264Y174606D02*
D03*
X181299Y173425D02*
D03*
X185728Y173327D02*
D03*
X189665Y173228D02*
D03*
X194193Y173622D02*
D03*
X160138Y166043D02*
D03*
X181595Y167520D02*
D03*
X167618Y167126D02*
D03*
X174311D02*
D03*
X179331Y158563D02*
D03*
X189469Y154724D02*
D03*
X178740Y151673D02*
D03*
X189469Y134744D02*
D03*
X189272Y145276D02*
D03*
X179134Y142618D02*
D03*
X189075Y125591D02*
D03*
X179724Y121653D02*
D03*
X181496Y112500D02*
D03*
X181398Y108268D02*
D03*
X190157Y103642D02*
D03*
X187205Y98622D02*
D03*
X179232Y97835D02*
D03*
X171457Y97539D02*
D03*
X168307Y94587D02*
D03*
X101772Y116043D02*
D03*
X106595Y121949D02*
D03*
X129337Y155519D02*
D03*
X92815Y123130D02*
D03*
X147940Y116344D02*
D03*
X139075Y118602D02*
D03*
X150499Y128746D02*
D03*
X145472Y123130D02*
D03*
X78347Y181496D02*
D03*
X78642Y185236D02*
D03*
X78347Y188976D02*
D03*
X78642Y193110D02*
D03*
X22047Y179921D02*
D03*
X19882Y175492D02*
D03*
X16634Y172146D02*
D03*
X13287Y169783D02*
D03*
X7776Y169587D02*
D03*
X3839Y169390D02*
D03*
X139082Y153157D02*
D03*
X129769Y152567D02*
D03*
X137507Y159555D02*
D03*
X129626Y145571D02*
D03*
X139764Y150591D02*
D03*
X139272Y147579D02*
D03*
X42620Y136424D02*
D03*
X46754Y135735D02*
D03*
X65945Y159176D02*
D03*
X92126Y161417D02*
D03*
X91738Y153347D02*
D03*
X84645Y153149D02*
D03*
X131496Y166142D02*
D03*
X146949Y171063D02*
D03*
X104528Y156299D02*
D03*
X103150Y151083D02*
D03*
X102165Y145571D02*
D03*
X104926Y141936D02*
D03*
X112598Y159842D02*
D03*
X118504Y157480D02*
D03*
X113779Y152756D02*
D03*
X120866D02*
D03*
Y159843D02*
D03*
X117224Y96850D02*
D03*
X144882Y105610D02*
D03*
X131890Y103248D02*
D03*
X123819Y102756D02*
D03*
X84350Y142028D02*
D03*
X86024Y143898D02*
D03*
X82284Y148425D02*
D03*
X148524Y123327D02*
D03*
X163976Y62402D02*
D03*
X168307Y58071D02*
D03*
X163976D02*
D03*
X168307Y62402D02*
D03*
X157382Y160925D02*
D03*
X160039Y161122D02*
D03*
X159941Y148721D02*
D03*
X159055Y151673D02*
D03*
X152362Y149114D02*
D03*
X148917Y149508D02*
D03*
X149902Y157480D02*
D03*
X108366Y142520D02*
D03*
X125886Y129724D02*
D03*
X56476Y64376D02*
D03*
X58858Y86910D02*
D03*
X63976Y86811D02*
D03*
X61319Y91535D02*
D03*
X61417Y88976D02*
D03*
X72047Y91043D02*
D03*
X76181Y90748D02*
D03*
X72146Y98327D02*
D03*
X55118Y91437D02*
D03*
X56102Y106201D02*
D03*
X52756D02*
D03*
X47640Y104041D02*
D03*
X53841Y100399D02*
D03*
X49510Y110734D02*
D03*
X39665Y116929D02*
D03*
X50197Y98524D02*
D03*
X35041Y107584D02*
D03*
X32087Y106791D02*
D03*
X44998Y101673D02*
D03*
X68310Y42620D02*
D03*
X69784Y39862D02*
D03*
X58268Y91437D02*
D03*
X77264Y87795D02*
D03*
X75689Y96555D02*
D03*
X73268Y94232D02*
D03*
X73724Y101481D02*
D03*
X194291Y28839D02*
D03*
X189469Y39173D02*
D03*
X182087Y35583D02*
D03*
X145480Y30415D02*
D03*
X144390Y33465D02*
D03*
X147047Y50394D02*
D03*
X148728Y46951D02*
D03*
X135925Y12205D02*
D03*
X118411Y7973D02*
D03*
X123530Y6890D02*
D03*
X121555Y10827D02*
D03*
X115360Y8170D02*
D03*
X164075Y69048D02*
D03*
X168209D02*
D03*
X161327Y70476D02*
D03*
X186122Y31398D02*
D03*
X185934Y42030D02*
D03*
X72342Y137795D02*
D03*
X75787Y137894D02*
D03*
X68996Y133858D02*
D03*
X70079Y146949D02*
D03*
X72244Y144390D02*
D03*
X72539Y149803D02*
D03*
X82087Y138878D02*
D03*
X85339Y136129D02*
D03*
X84748Y129239D02*
D03*
X75394Y154528D02*
D03*
X79335Y155126D02*
D03*
X77756Y149606D02*
D03*
X75984Y158268D02*
D03*
X82189Y127172D02*
D03*
X75394Y130905D02*
D03*
X78252Y130420D02*
D03*
X88390Y123825D02*
D03*
X88193Y126778D02*
D03*
X68898Y129921D02*
D03*
X90661Y133082D02*
D03*
X59747Y132290D02*
D03*
X54924Y135046D02*
D03*
Y139180D02*
D03*
X58661Y145669D02*
D03*
X54629Y142133D02*
D03*
X59646Y149704D02*
D03*
X60039Y159176D02*
D03*
X57480Y161811D02*
D03*
X62458Y151673D02*
D03*
X65354Y153150D02*
D03*
X54432Y131207D02*
D03*
X53940Y127762D02*
D03*
X59255Y128451D02*
D03*
X60731Y139082D02*
D03*
X66276Y104000D02*
D03*
X67716Y100984D02*
D03*
X59496Y103437D02*
D03*
X56299Y100787D02*
D03*
X60928Y100694D02*
D03*
X55709Y111909D02*
D03*
X16535Y50689D02*
D03*
X2953Y22736D02*
D03*
X7087Y29528D02*
D03*
X8709Y32728D02*
D03*
X5020Y25984D02*
D03*
X14764Y47047D02*
D03*
X12894Y43602D02*
D03*
X9837Y36018D02*
D03*
X11516Y39370D02*
D03*
X55315Y114961D02*
D03*
X30413Y111713D02*
D03*
X80020Y102264D02*
D03*
X36714Y84847D02*
D03*
X51676Y82977D02*
D03*
X56890Y78839D02*
D03*
X50984Y73228D02*
D03*
X44882Y75394D02*
D03*
Y78642D02*
D03*
X123524Y124606D02*
D03*
X128248Y138779D02*
D03*
X125394Y136221D02*
D03*
X129626Y142421D02*
D03*
X109055Y185138D02*
D03*
X107579Y180413D02*
D03*
X99410Y187205D02*
D03*
X112598Y182382D02*
D03*
Y190847D02*
D03*
X117323Y183268D02*
D03*
X117224Y190945D02*
D03*
X97047Y173327D02*
D03*
X71752Y155610D02*
D03*
X72638Y158465D02*
D03*
X26083Y120669D02*
D03*
X28248Y123917D02*
D03*
X23917Y124803D02*
D03*
X39272Y129724D02*
D03*
X41339Y132283D02*
D03*
X82874Y155610D02*
D03*
X86024Y157283D02*
D03*
X77461Y144291D02*
D03*
X68701Y126279D02*
D03*
X55512Y118110D02*
D03*
X68015Y136719D02*
D03*
X21457Y141535D02*
D03*
X107879Y104729D02*
D03*
X103346Y107185D02*
D03*
X102854Y110236D02*
D03*
X110531Y107972D02*
D03*
X114080Y107092D02*
D03*
X107289Y110635D02*
D03*
X99016Y106890D02*
D03*
X107480Y116147D02*
D03*
X106304Y126384D02*
D03*
X97441Y110236D02*
D03*
X95915Y106890D02*
D03*
X116443Y122841D02*
D03*
X120768Y126083D02*
D03*
X112407Y144594D02*
D03*
X109553Y147054D02*
D03*
X100792Y142920D02*
D03*
X85138Y139173D02*
D03*
X54756Y160303D02*
D03*
X54626Y164567D02*
D03*
X50223Y158861D02*
D03*
X51181Y164764D02*
D03*
X45571Y141043D02*
D03*
X93405Y120079D02*
D03*
X103647Y127959D02*
D03*
X102170Y125203D02*
D03*
X128839Y132283D02*
D03*
X130814Y126286D02*
D03*
X130912Y123333D02*
D03*
X128642Y121260D02*
D03*
X122545Y121167D02*
D03*
X124022Y118313D02*
D03*
Y115360D02*
D03*
X123234Y111226D02*
D03*
X107773Y169786D02*
D03*
X107776Y166142D02*
D03*
X89961Y164215D02*
D03*
X155519Y57778D02*
D03*
X172449Y50199D02*
D03*
X175894Y57188D02*
D03*
X177953Y50394D02*
D03*
X173630Y53152D02*
D03*
X176879Y60141D02*
D03*
X172639Y70771D02*
D03*
X168118Y51479D02*
D03*
X79528Y40846D02*
D03*
X75689Y43406D02*
D03*
X117815Y112205D02*
D03*
X129337Y114474D02*
D03*
X120774Y142822D02*
D03*
X104528Y160531D02*
D03*
X173721Y124705D02*
D03*
X169783Y120571D02*
D03*
X135925Y166535D02*
D03*
X136516Y169488D02*
D03*
X144291Y140748D02*
D03*
X145877Y146063D02*
D03*
X146850Y138287D02*
D03*
X146661Y160244D02*
D03*
X170776Y137015D02*
D03*
X134153Y97441D02*
D03*
X171465Y143216D02*
D03*
X171063Y149409D02*
D03*
X171161Y155610D02*
D03*
X171063Y161811D02*
D03*
X133169Y184153D02*
D03*
X18602Y122933D02*
D03*
Y126319D02*
D03*
Y129705D02*
D03*
Y133090D02*
D03*
Y136476D02*
D03*
Y139862D02*
D03*
X47250Y129724D02*
D03*
X41339Y83169D02*
D03*
X6988Y141043D02*
D03*
X10630Y128937D02*
D03*
X7480Y153150D02*
D03*
X10630Y164370D02*
D03*
X29823Y158268D02*
D03*
X36024Y158563D02*
D03*
X36909Y162402D02*
D03*
X30906Y162598D02*
D03*
X30315Y144980D02*
D03*
X34055Y149606D02*
D03*
X45282Y158230D02*
D03*
X45276Y150000D02*
D03*
X41732Y153149D02*
D03*
X42126Y150000D02*
D03*
X96063Y156299D02*
D03*
X37795Y179134D02*
D03*
X161268Y115453D02*
D03*
X157685Y100989D02*
D03*
Y114277D02*
D03*
X167922Y130026D02*
D03*
X169095Y107973D02*
D03*
X173130Y105905D02*
D03*
X155217Y151673D02*
D03*
X168709Y117230D02*
D03*
X170776Y114966D02*
D03*
X171465Y112013D02*
D03*
X166437Y127165D02*
D03*
X160734Y125993D02*
D03*
X155217Y140748D02*
D03*
X162114Y129731D02*
D03*
X160138Y133760D02*
D03*
X151877Y137310D02*
D03*
X156602Y137015D02*
D03*
X160736Y137113D02*
D03*
X113490Y171071D02*
D03*
X120177Y171260D02*
D03*
X116831Y170784D02*
D03*
X152756Y171161D02*
D03*
X153846Y107092D02*
D03*
X153452Y128746D02*
D03*
X153017Y123432D02*
D03*
X156110Y122152D02*
D03*
X157980Y107486D02*
D03*
X150795Y110931D02*
D03*
X152468Y97643D02*
D03*
X149902Y99311D02*
D03*
X123524Y95276D02*
D03*
X127270Y97446D02*
D03*
X143996Y111319D02*
D03*
X119691Y101678D02*
D03*
X136129Y110045D02*
D03*
X136417Y107087D02*
D03*
X132880Y108175D02*
D03*
X120866Y109320D02*
D03*
X118313Y144594D02*
D03*
D81*
X30118Y63189D02*
D03*
X35925Y69095D02*
D03*
X184843Y79921D02*
D03*
X177264D02*
D03*
X188386Y92028D02*
D03*
X183071Y91929D02*
D03*
X177559Y92224D02*
D03*
X146063Y88484D02*
D03*
X156791Y89764D02*
D03*
X115655Y86914D02*
D03*
X74118Y66637D02*
D03*
X115256Y17126D02*
D03*
X54232Y37697D02*
D03*
X56102Y44783D02*
D03*
X29528Y32283D02*
D03*
X19094Y57087D02*
D03*
X23524Y69587D02*
D03*
X16535Y84153D02*
D03*
X24705Y81299D02*
D03*
X32972Y93799D02*
D03*
X44291Y89961D02*
D03*
X47539Y86614D02*
D03*
X123721Y87008D02*
D03*
X79232Y47343D02*
D03*
X111319Y48425D02*
D03*
X123425Y68110D02*
D03*
X146752Y57677D02*
D03*
X140847Y68012D02*
D03*
X144882Y64173D02*
D03*
X149902Y53543D02*
D03*
X154823Y53642D02*
D03*
X75299Y57877D02*
D03*
X117224Y58366D02*
D03*
X118996Y62598D02*
D03*
X81988Y70571D02*
D03*
X63779Y65748D02*
D03*
X78150Y73228D02*
D03*
X24016Y147933D02*
D03*
X24902Y155217D02*
D03*
X3543Y155709D02*
D03*
X3937Y144488D02*
D03*
X4528Y131595D02*
D03*
X4331Y121555D02*
D03*
X3839Y111024D02*
D03*
X2953Y101181D02*
D03*
X172736Y82087D02*
D03*
X60433Y63090D02*
D03*
X64567Y19783D02*
D03*
X127854Y82087D02*
D03*
X119882Y82185D02*
D03*
X111516Y82284D02*
D03*
X54429Y67618D02*
D03*
X51378Y41339D02*
D03*
X22736Y33858D02*
D03*
X32677Y42126D02*
D03*
X22343Y46654D02*
D03*
X24902Y58268D02*
D03*
X18799Y65158D02*
D03*
X75886Y22539D02*
D03*
X79626Y27657D02*
D03*
X72047Y27362D02*
D03*
X98130Y41240D02*
D03*
X89961Y40354D02*
D03*
X86221Y45177D02*
D03*
X112303Y61713D02*
D03*
X111221Y66535D02*
D03*
X122539Y39272D02*
D03*
X110433Y37303D02*
D03*
X118996Y43012D02*
D03*
X107874Y42913D02*
D03*
X160138Y30413D02*
D03*
X163583Y39469D02*
D03*
X192421Y23819D02*
D03*
X191831Y45768D02*
D03*
X177756Y40945D02*
D03*
X75299Y62405D02*
D03*
X78130Y78169D02*
D03*
X177756Y69784D02*
D03*
X184252Y69980D02*
D03*
X157579Y46260D02*
D03*
X152559Y46358D02*
D03*
X164567Y75197D02*
D03*
Y79724D02*
D03*
X138384Y85136D02*
D03*
X170453Y86988D02*
D03*
X189173Y66634D02*
D03*
X185630Y52559D02*
D03*
D112*
X41240Y82284D02*
D03*
Y80315D02*
D03*
Y78347D02*
D03*
Y76378D02*
D03*
Y74409D02*
D03*
X48524D02*
D03*
Y76378D02*
D03*
Y78347D02*
D03*
Y80315D02*
D03*
Y82284D02*
D03*
D126*
X142913Y150591D02*
D03*
Y148622D02*
D03*
Y152559D02*
D03*
D127*
X147441Y150591D02*
D03*
D128*
X94842Y89095D02*
D03*
Y80197D02*
D03*
X68543Y56575D02*
D03*
Y65472D02*
D03*
D129*
X103130Y92146D02*
D03*
Y87146D02*
D03*
Y82146D02*
D03*
Y77146D02*
D03*
X60256Y53524D02*
D03*
Y58524D02*
D03*
Y63524D02*
D03*
Y68524D02*
D03*
D130*
X81614Y82146D02*
D03*
Y77146D02*
D03*
Y87146D02*
D03*
Y92146D02*
D03*
X81772Y63524D02*
D03*
Y68524D02*
D03*
Y58524D02*
D03*
Y53524D02*
D03*
D131*
X107972Y149409D02*
D03*
Y151378D02*
D03*
Y153347D02*
D03*
Y155315D02*
D03*
Y157283D02*
D03*
Y159252D02*
D03*
Y161221D02*
D03*
Y163189D02*
D03*
X126673D02*
D03*
Y161221D02*
D03*
Y159252D02*
D03*
Y157283D02*
D03*
Y155315D02*
D03*
Y153347D02*
D03*
Y151378D02*
D03*
Y149409D02*
D03*
X172539Y64173D02*
D03*
Y62205D02*
D03*
Y60236D02*
D03*
Y58268D02*
D03*
Y56299D02*
D03*
X159744D02*
D03*
Y58268D02*
D03*
Y60236D02*
D03*
Y62205D02*
D03*
Y64173D02*
D03*
D132*
X110433Y165650D02*
D03*
X112402D02*
D03*
X114370D02*
D03*
X116339D02*
D03*
X118307D02*
D03*
X120276D02*
D03*
X122244D02*
D03*
X124213D02*
D03*
Y146949D02*
D03*
X122244D02*
D03*
X120276D02*
D03*
X118307D02*
D03*
X116339D02*
D03*
X114370D02*
D03*
X112402D02*
D03*
X110433D02*
D03*
X170079Y53839D02*
D03*
X168110D02*
D03*
X166142D02*
D03*
X164173D02*
D03*
X162205D02*
D03*
Y66634D02*
D03*
X164173D02*
D03*
X166142D02*
D03*
X168110D02*
D03*
X170079D02*
D03*
D133*
X117323Y156299D02*
D03*
D134*
X44882Y78347D02*
D03*
D135*
X166142Y60236D02*
D03*
D136*
X61024Y34843D02*
D03*
X80709D02*
D03*
D137*
X66142D02*
D03*
X69291D02*
D03*
X72441D02*
D03*
X75590D02*
D03*
D138*
X63858Y12520D02*
D03*
X77874D02*
D03*
D139*
X170453Y82638D02*
D03*
D140*
X164567Y79921D02*
D03*
D141*
X158681Y76083D02*
D03*
Y78642D02*
D03*
Y81201D02*
D03*
Y83760D02*
D03*
X170453Y76083D02*
D03*
Y78642D02*
D03*
D142*
X166890Y86122D02*
D03*
X162244D02*
D03*
Y73721D02*
D03*
X166890D02*
D03*
D143*
X161417Y129087D02*
D03*
Y125244D02*
D03*
Y119146D02*
D03*
Y115303D02*
D03*
X79528Y99260D02*
D03*
Y103102D02*
D03*
D144*
X157697Y124606D02*
D03*
Y127165D02*
D03*
Y129724D02*
D03*
X165138Y124606D02*
D03*
Y127165D02*
D03*
Y129724D02*
D03*
X157697Y114665D02*
D03*
Y117224D02*
D03*
Y119783D02*
D03*
X165138Y114665D02*
D03*
Y117224D02*
D03*
Y119783D02*
D03*
X83248Y103740D02*
D03*
Y101181D02*
D03*
Y98622D02*
D03*
X75807Y103740D02*
D03*
Y101181D02*
D03*
Y98622D02*
D03*
D145*
X26772Y89173D02*
D03*
Y75394D02*
D03*
D146*
X104390Y100394D02*
D03*
X98760D02*
D03*
D147*
X138384Y82677D02*
D03*
X151380D02*
D03*
D148*
X171161Y137008D02*
D03*
X174508D02*
D03*
X171161Y161811D02*
D03*
X174508D02*
D03*
X171161Y155610D02*
D03*
X174508D02*
D03*
X171161Y149409D02*
D03*
X174508D02*
D03*
X171161Y143209D02*
D03*
X174508D02*
D03*
D149*
X39370Y89370D02*
D03*
X44882D02*
D03*
D150*
X64370Y77362D02*
D03*
X68110D02*
D03*
X71850D02*
D03*
Y87205D02*
D03*
X68110D02*
D03*
X64370D02*
D03*
D151*
X187748Y37402D02*
D03*
X183905D02*
D03*
D152*
X183268Y41122D02*
D03*
X185827D02*
D03*
X188386D02*
D03*
X183268Y33681D02*
D03*
X185827D02*
D03*
X188386D02*
D03*
M02*
