G04*
G04 #@! TF.GenerationSoftware,Altium Limited,Altium Designer,18.0.9 (584)*
G04*
G04 Layer_Color=16711935*
%FSLAX25Y25*%
%MOIN*%
G70*
G01*
G75*
%ADD11C,0.00394*%
%ADD15C,0.00787*%
D11*
X112697Y149705D02*
G03*
X112697Y149705I-1969J0D01*
G01*
X47441Y81299D02*
G03*
X47441Y81299I-1575J0D01*
G01*
X171752Y63878D02*
G03*
X171752Y63878I-1969J0D01*
G01*
X62402Y32087D02*
G03*
X62402Y32087I-1969J0D01*
G01*
X93307Y125886D02*
G03*
X93307Y125886I-1969J0D01*
G01*
X169685Y83071D02*
G03*
X169685Y83071I-1969J0D01*
G01*
X163976Y128150D02*
G03*
X163976Y128150I-1575J0D01*
G01*
X58661Y156693D02*
G03*
X58661Y156693I-1969J0D01*
G01*
X124606Y113583D02*
G03*
X124606Y113583I-1969J0D01*
G01*
X188386Y36417D02*
G03*
X188386Y36417I-1575J0D01*
G01*
X130118Y127559D02*
G03*
X130118Y127559I-1969J0D01*
G01*
X163976Y118209D02*
G03*
X163976Y118209I-1575J0D01*
G01*
X155315Y157283D02*
G03*
X155315Y157283I-1969J0D01*
G01*
X80118Y100197D02*
G03*
X80118Y100197I-1575J0D01*
G01*
X142717Y146653D02*
X150591D01*
X142717D02*
Y154528D01*
X150591D01*
Y146653D02*
Y154528D01*
X143504Y147441D02*
Y149016D01*
X80020Y74508D02*
X104232D01*
Y94784D01*
X80020D02*
X104232D01*
X80020Y74508D02*
Y94784D01*
X59153Y71161D02*
X83366D01*
X59153Y50886D02*
Y71161D01*
Y50886D02*
X83366D01*
Y71161D01*
X115847Y134744D02*
X121752D01*
X115847Y128444D02*
X121752D01*
X115847D02*
Y134744D01*
X121752Y128444D02*
Y134744D01*
X9646Y158268D02*
X15551D01*
X9646Y164567D02*
X15551D01*
Y158268D02*
Y164567D01*
X9646Y158268D02*
Y164567D01*
Y146457D02*
X15551D01*
X9646Y152756D02*
X15551D01*
Y146457D02*
Y152756D01*
X9646Y146457D02*
Y152756D01*
Y134646D02*
X15551D01*
X9646Y140945D02*
X15551D01*
Y134646D02*
Y140945D01*
X9646Y134646D02*
Y140945D01*
Y122835D02*
X15551D01*
X9646Y129134D02*
X15551D01*
Y122835D02*
Y129134D01*
X9646Y122835D02*
Y129134D01*
X152854Y63583D02*
Y65748D01*
X148721Y63583D02*
Y65748D01*
X152854D01*
X148721Y63583D02*
X152854D01*
X145472Y67323D02*
Y69488D01*
X149606Y67323D02*
Y69488D01*
X145472Y67323D02*
X149606D01*
X145472Y69488D02*
X149606D01*
X107185Y146161D02*
Y166437D01*
X127461Y146161D02*
Y166437D01*
X107185Y146161D02*
X127461D01*
X107185Y166437D02*
X127461D01*
X40748Y72244D02*
X49016D01*
X40748Y84449D02*
X49016D01*
X40748Y72244D02*
Y84449D01*
X49016Y72244D02*
Y84449D01*
X173327Y53051D02*
Y67421D01*
X158957Y53051D02*
Y67421D01*
X173327D01*
X158957Y53051D02*
X173327D01*
X56890Y35630D02*
X84842D01*
X56890Y7677D02*
X84842D01*
X56890D02*
Y35630D01*
X84842Y7677D02*
Y35630D01*
X94882Y109350D02*
Y129429D01*
X77165Y109350D02*
Y129429D01*
X94882D01*
X77165Y109350D02*
X94882D01*
X157874Y73228D02*
X171260D01*
X157874Y86614D02*
X171260D01*
X157874Y73228D02*
Y86614D01*
X171260Y73228D02*
Y86614D01*
X157283Y123031D02*
X165551D01*
X157283Y131299D02*
X165551D01*
X157283Y123031D02*
Y131299D01*
X165551Y123031D02*
Y131299D01*
X34855Y74202D02*
Y90367D01*
X18690D02*
X34855D01*
X18690Y74202D02*
Y90367D01*
Y74202D02*
X34855D01*
X98130Y102264D02*
X105020D01*
X98130Y98524D02*
X105020D01*
Y102264D01*
X98130Y98524D02*
Y102264D01*
X155275Y71890D02*
Y93465D01*
X134488Y71890D02*
X155275D01*
X134488D02*
Y93465D01*
X155275D01*
X170669Y135827D02*
Y138189D01*
X175000Y135827D02*
Y138189D01*
X170669Y135827D02*
X175000D01*
X170669Y138189D02*
X175000D01*
X37795Y86516D02*
Y92224D01*
X46457Y86516D02*
Y92224D01*
X37795Y86516D02*
X46457D01*
X37795Y92224D02*
X46457D01*
X74016Y78839D02*
Y85728D01*
X62205Y78839D02*
Y85728D01*
Y78839D02*
X74016D01*
X62205Y85728D02*
X74016D01*
X29134Y150984D02*
X37008D01*
X29134Y141142D02*
Y150984D01*
Y141142D02*
X37008D01*
Y150984D01*
X53150Y120866D02*
X92520D01*
X53150Y160236D02*
X92520D01*
Y120866D02*
Y160236D01*
X53150Y120866D02*
Y160236D01*
X119095Y97047D02*
Y117126D01*
X136811Y97047D02*
Y117126D01*
X119095D02*
X136811D01*
X119095Y97047D02*
X136811D01*
X32874Y109843D02*
X42421D01*
X42716D01*
Y125591D01*
X32874D02*
X42716D01*
X32874Y109843D02*
Y125591D01*
X112205Y164744D02*
Y166555D01*
Y164744D02*
X112598D01*
Y163287D02*
Y164744D01*
Y163287D02*
X114173D01*
Y164744D01*
X114567D01*
Y163287D02*
Y164744D01*
Y163287D02*
X116142D01*
Y164744D01*
X116535D01*
Y163287D02*
Y164744D01*
Y163287D02*
X118110D01*
Y164744D01*
X118504D01*
Y163287D02*
Y164744D01*
Y163287D02*
X120079D01*
Y164744D01*
X120472D01*
Y166555D01*
X112205D02*
X112598D01*
Y168012D01*
X114173D01*
Y166555D02*
Y168012D01*
Y166555D02*
X114567D01*
Y168012D01*
X116142D01*
Y166555D02*
Y168012D01*
Y166555D02*
X116535D01*
Y168012D01*
X118110D01*
Y166555D02*
Y168012D01*
Y166555D02*
X118504D01*
Y168012D01*
X120079D01*
Y166555D02*
Y168012D01*
Y166555D02*
X120472D01*
X166043Y100000D02*
Y107087D01*
X163287D02*
X166043D01*
X163287Y105315D02*
Y107087D01*
X162303Y105315D02*
X163287D01*
X162303D02*
Y107087D01*
X159744D02*
X162303D01*
X159744Y105315D02*
Y107087D01*
X159153Y105315D02*
X159744D01*
X159153D02*
Y107087D01*
X156595D02*
X159153D01*
X156595Y105315D02*
Y107087D01*
X155610Y105315D02*
X156595D01*
X155610D02*
Y107087D01*
X152854D02*
X155610D01*
X152854Y100000D02*
Y107087D01*
X163287Y100000D02*
X166043D01*
X163287D02*
Y101772D01*
X162303D02*
X163287D01*
X162303Y100000D02*
Y101772D01*
X159744Y100000D02*
X162303D01*
X159744D02*
Y101772D01*
X159153D02*
X159744D01*
X159153Y100000D02*
Y101772D01*
X156595Y100000D02*
X159153D01*
X156595D02*
Y101772D01*
X155610D02*
X156595D01*
X155610Y100000D02*
Y101772D01*
X152854Y100000D02*
X155610D01*
X135925Y83268D02*
X141240D01*
X135925Y75000D02*
X141240D01*
Y83268D01*
X135925Y75000D02*
Y83268D01*
X179724Y51772D02*
X183268D01*
X179724Y58465D02*
X183268D01*
X179724Y51772D02*
Y58465D01*
X183268Y51772D02*
Y58465D01*
X60728Y61319D02*
X67618D01*
X60728Y48130D02*
X67618D01*
Y61319D01*
X60728Y48130D02*
Y61319D01*
X160728Y66437D02*
Y69784D01*
X155807Y66437D02*
Y69784D01*
Y66437D02*
X160728D01*
X155807Y69784D02*
X160728D01*
X181496Y34941D02*
X190157D01*
X181496Y29626D02*
X190157D01*
Y34941D01*
X181496Y29626D02*
Y34941D01*
X60827Y22441D02*
Y33465D01*
X68307Y22441D02*
Y33465D01*
X60827Y22441D02*
X68307D01*
X60827Y33465D02*
X68307D01*
X67126Y77854D02*
X71161Y73819D01*
X67126Y77854D02*
Y95472D01*
X88779D01*
Y77854D02*
Y95472D01*
X84744Y73819D02*
X88779Y77854D01*
X71161Y73819D02*
X84744D01*
X188583Y73228D02*
Y86614D01*
X181496Y73228D02*
Y86614D01*
X188583D01*
X181496Y73228D02*
X188583D01*
X94272Y113779D02*
X98051D01*
X94272Y120669D02*
X98051D01*
X94272Y113779D02*
Y120669D01*
X98051Y113779D02*
Y120669D01*
X108169Y115059D02*
Y117224D01*
X112303Y115059D02*
Y117224D01*
X108169D02*
X112303D01*
X108169Y115059D02*
X112303D01*
X41437Y141634D02*
X43602D01*
X41437Y145768D02*
X43602D01*
X41437Y141634D02*
Y145768D01*
X43602Y141634D02*
Y145768D01*
X54429Y130512D02*
X56595D01*
X54429Y134646D02*
X56595D01*
Y130512D02*
Y134646D01*
X54429Y130512D02*
Y134646D01*
X60138Y165453D02*
X64272D01*
X60138Y167618D02*
X64272D01*
X60138Y165453D02*
Y167618D01*
X64272Y165453D02*
Y167618D01*
X56988Y161909D02*
Y164075D01*
X61122Y161909D02*
Y164075D01*
X56988Y161909D02*
X61122D01*
X56988Y164075D02*
X61122D01*
X101378Y118701D02*
X103543D01*
X101378Y122835D02*
X103543D01*
Y118701D02*
Y122835D01*
X101378Y118701D02*
Y122835D01*
X90945Y115157D02*
X93110D01*
X90945Y119291D02*
X93110D01*
X90945Y115157D02*
Y119291D01*
X93110Y115157D02*
Y119291D01*
X116240Y107579D02*
X118405D01*
X116240Y103445D02*
X118405D01*
X116240D02*
Y107579D01*
X118405Y103445D02*
Y107579D01*
X122146Y97244D02*
Y104331D01*
X124902D01*
Y102559D02*
Y104331D01*
Y102559D02*
X125886D01*
Y104331D01*
X128445D01*
Y102559D02*
Y104331D01*
Y102559D02*
X129035D01*
Y104331D01*
X131595D01*
Y102559D02*
Y104331D01*
Y102559D02*
X132579D01*
Y104331D01*
X135335D01*
Y97244D02*
Y104331D01*
X122146Y97244D02*
X124902D01*
Y99016D01*
X125886D01*
Y97244D02*
Y99016D01*
Y97244D02*
X128445D01*
Y99016D01*
X129035D01*
Y97244D02*
Y99016D01*
Y97244D02*
X131595D01*
Y99016D01*
X132579D01*
Y97244D02*
Y99016D01*
Y97244D02*
X135335D01*
X181693Y33268D02*
Y41535D01*
X189961Y33268D02*
Y41535D01*
X181693D02*
X189961D01*
X181693Y33268D02*
X189961D01*
X131693Y111024D02*
Y131102D01*
X113976Y111024D02*
Y131102D01*
X131693D01*
X113976Y111024D02*
X131693D01*
X139862Y114961D02*
Y119095D01*
X137697Y114961D02*
Y119095D01*
Y114961D02*
X139862D01*
X137697Y119095D02*
X139862D01*
X157283Y113091D02*
X165551D01*
X157283Y121358D02*
X165551D01*
X157283Y113091D02*
Y121358D01*
X165551Y113091D02*
Y121358D01*
X136811Y160827D02*
X156890D01*
X136811Y143110D02*
X156890D01*
Y160827D01*
X136811Y143110D02*
Y160827D01*
X147736Y167618D02*
Y171752D01*
X149902Y167618D02*
Y171752D01*
X147736Y167618D02*
X149902D01*
X147736Y171752D02*
X149902D01*
X145768Y160728D02*
X147933D01*
X145768Y156595D02*
X147933D01*
X145768D02*
Y160728D01*
X147933Y156595D02*
Y160728D01*
X163287Y135925D02*
X167421D01*
X163287Y138091D02*
X167421D01*
Y135925D02*
Y138091D01*
X163287Y135925D02*
Y138091D01*
X12087Y139567D02*
X13898D01*
X12087D02*
Y139961D01*
X10630D02*
X12087D01*
X10630D02*
Y141535D01*
X12087D01*
Y141929D01*
X10630D02*
X12087D01*
X10630D02*
Y143504D01*
X12087D01*
Y143898D01*
X10630D02*
X12087D01*
X10630D02*
Y145472D01*
X12087D01*
Y145866D01*
X10630D02*
X12087D01*
X10630D02*
Y147441D01*
X12087D01*
Y147835D01*
X13898D01*
Y139567D02*
Y139961D01*
X15354D01*
Y141535D01*
X13898D02*
X15354D01*
X13898D02*
Y141929D01*
X15354D01*
Y143504D01*
X13898D02*
X15354D01*
X13898D02*
Y143898D01*
X15354D01*
Y145472D01*
X13898D02*
X15354D01*
X13898D02*
Y145866D01*
X15354D01*
Y147441D01*
X13898D02*
X15354D01*
X13898D02*
Y147835D01*
X75394Y105315D02*
X83661D01*
X75394Y97047D02*
X83661D01*
Y105315D01*
X75394Y97047D02*
Y105315D01*
X0Y96457D02*
X196850D01*
X43799Y79429D02*
Y83563D01*
X45965Y79429D02*
Y83563D01*
X43799Y79429D02*
X45965D01*
X43799Y83563D02*
X45965D01*
X48720Y77854D02*
X52854D01*
X48720Y75689D02*
X52854D01*
X48720D02*
Y77854D01*
X52854Y75689D02*
Y77854D01*
X48720Y79232D02*
X52854D01*
X48720Y81398D02*
X52854D01*
Y79232D02*
Y81398D01*
X48720Y79232D02*
Y81398D01*
X52047Y72933D02*
X55827D01*
X52047Y79823D02*
X55827D01*
Y72933D02*
Y79823D01*
X52047Y72933D02*
Y79823D01*
X36319Y75492D02*
X38484D01*
X36319Y79626D02*
X38484D01*
Y75492D02*
Y79626D01*
X36319Y75492D02*
Y79626D01*
X90433Y104921D02*
X92244D01*
Y104528D02*
Y104921D01*
Y104528D02*
X93701D01*
Y102953D02*
Y104528D01*
X92244Y102953D02*
X93701D01*
X92244Y102559D02*
Y102953D01*
Y102559D02*
X93701D01*
Y100984D02*
Y102559D01*
X92244Y100984D02*
X93701D01*
X92244Y100591D02*
Y100984D01*
Y100591D02*
X93701D01*
Y99016D02*
Y100591D01*
X92244Y99016D02*
X93701D01*
X92244Y98622D02*
Y99016D01*
Y98622D02*
X93701D01*
Y97047D02*
Y98622D01*
X92244Y97047D02*
X93701D01*
X92244Y96653D02*
Y97047D01*
X90433Y96653D02*
X92244D01*
X90433Y104528D02*
Y104921D01*
X88976Y104528D02*
X90433D01*
X88976Y102953D02*
Y104528D01*
Y102953D02*
X90433D01*
Y102559D02*
Y102953D01*
X88976Y102559D02*
X90433D01*
X88976Y100984D02*
Y102559D01*
Y100984D02*
X90433D01*
Y100591D02*
Y100984D01*
X88976Y100591D02*
X90433D01*
X88976Y99016D02*
Y100591D01*
Y99016D02*
X90433D01*
Y98622D02*
Y99016D01*
X88976Y98622D02*
X90433D01*
X88976Y97047D02*
Y98622D01*
Y97047D02*
X90433D01*
Y96653D02*
Y97047D01*
X65473Y150197D02*
Y150591D01*
Y150197D02*
X66929D01*
Y148622D02*
Y150197D01*
X65473Y148622D02*
X66929D01*
X65473Y148228D02*
Y148622D01*
Y148228D02*
X66929D01*
Y146653D02*
Y148228D01*
X65473Y146653D02*
X66929D01*
X65473Y146260D02*
Y146653D01*
Y146260D02*
X66929D01*
Y144685D02*
Y146260D01*
X65473Y144685D02*
X66929D01*
X65473Y144291D02*
Y144685D01*
Y144291D02*
X66929D01*
Y142717D02*
Y144291D01*
X65473Y142717D02*
X66929D01*
X65473Y142323D02*
Y142717D01*
X63661Y150591D02*
X65473D01*
X63661Y150197D02*
Y150591D01*
X62205Y150197D02*
X63661D01*
X62205Y148622D02*
Y150197D01*
Y148622D02*
X63661D01*
Y148228D02*
Y148622D01*
X62205Y148228D02*
X63661D01*
X62205Y146653D02*
Y148228D01*
Y146653D02*
X63661D01*
Y146260D02*
Y146653D01*
X62205Y146260D02*
X63661D01*
X62205Y144685D02*
Y146260D01*
Y144685D02*
X63661D01*
Y144291D02*
Y144685D01*
X62205Y144291D02*
X63661D01*
X62205Y142717D02*
Y144291D01*
Y142717D02*
X63661D01*
Y142323D02*
Y142717D01*
Y142323D02*
X65473D01*
X170669Y160630D02*
Y162992D01*
X175000Y160630D02*
Y162992D01*
X170669Y160630D02*
X175000D01*
X170669Y162992D02*
X175000D01*
X170669Y154429D02*
Y156791D01*
X175000Y154429D02*
Y156791D01*
X170669Y154429D02*
X175000D01*
X170669Y156791D02*
X175000D01*
X170669Y148228D02*
Y150591D01*
X175000Y148228D02*
Y150591D01*
X170669Y148228D02*
X175000D01*
X170669Y150591D02*
X175000D01*
X170669Y142027D02*
Y144390D01*
X175000Y142027D02*
Y144390D01*
X170669Y142027D02*
X175000D01*
X170669Y144390D02*
X175000D01*
X128347Y120177D02*
Y122343D01*
X124213Y120177D02*
Y122343D01*
Y120177D02*
X128347D01*
X124213Y122343D02*
X128347D01*
X148425Y108563D02*
Y110728D01*
X144291Y108563D02*
Y110728D01*
Y108563D02*
X148425D01*
X144291Y110728D02*
X148425D01*
Y111909D02*
Y114075D01*
X144291Y111909D02*
Y114075D01*
Y111909D02*
X148425D01*
X144291Y114075D02*
X148425D01*
X99291Y113779D02*
X103071D01*
X99291Y120669D02*
X103071D01*
X99291Y113779D02*
Y120669D01*
X103071Y113779D02*
Y120669D01*
X147736Y100492D02*
Y102657D01*
X143602Y100492D02*
Y102657D01*
Y100492D02*
X147736D01*
X143602Y102657D02*
X147736D01*
Y96949D02*
Y99114D01*
X143602Y96949D02*
Y99114D01*
Y96949D02*
X147736D01*
X143602Y99114D02*
X147736D01*
X108169Y100492D02*
Y102657D01*
X112303Y100492D02*
Y102657D01*
X108169D02*
X112303D01*
X108169Y100492D02*
X112303D01*
X108169Y96949D02*
Y99114D01*
X112303Y96949D02*
Y99114D01*
X108169D02*
X112303D01*
X108169Y96949D02*
X112303D01*
X108169Y111516D02*
Y113681D01*
X112303Y111516D02*
Y113681D01*
X108169D02*
X112303D01*
X108169Y111516D02*
X112303D01*
X149902Y132185D02*
Y136319D01*
X147736Y132185D02*
Y136319D01*
X149902D01*
X147736Y132185D02*
X149902D01*
X163287Y139469D02*
X167421D01*
X163287Y141634D02*
X167421D01*
Y139469D02*
Y141634D01*
X163287Y139469D02*
Y141634D01*
X120079Y152835D02*
Y156614D01*
X126969Y152835D02*
Y156614D01*
X120079D02*
X126969D01*
X120079Y152835D02*
X126969D01*
X153839Y132185D02*
Y136319D01*
X151673Y132185D02*
Y136319D01*
X153839D01*
X151673Y132185D02*
X153839D01*
X145965D02*
Y136319D01*
X143799Y132185D02*
Y136319D01*
X145965D01*
X143799Y132185D02*
X145965D01*
X163287Y146555D02*
X167421D01*
X163287Y148721D02*
X167421D01*
Y146555D02*
Y148721D01*
X163287Y146555D02*
Y148721D01*
X142027Y132185D02*
Y136319D01*
X139862Y132185D02*
Y136319D01*
X142027D01*
X139862Y132185D02*
X142027D01*
X163287Y143012D02*
X167421D01*
X163287Y145177D02*
X167421D01*
Y143012D02*
Y145177D01*
X163287Y143012D02*
Y145177D01*
X143799Y167618D02*
Y171752D01*
X145965Y167618D02*
Y171752D01*
X143799Y167618D02*
X145965D01*
X143799Y171752D02*
X145965D01*
X163287Y153642D02*
X167421D01*
X163287Y155807D02*
X167421D01*
Y153642D02*
Y155807D01*
X163287Y153642D02*
Y155807D01*
X139862Y167618D02*
Y171752D01*
X142028Y167618D02*
Y171752D01*
X139862Y167618D02*
X142028D01*
X139862Y171752D02*
X142028D01*
X163287Y150098D02*
X167421D01*
X163287Y152264D02*
X167421D01*
Y150098D02*
Y152264D01*
X163287Y150098D02*
Y152264D01*
Y160728D02*
X167421D01*
X163287Y162894D02*
X167421D01*
Y160728D02*
Y162894D01*
X163287Y160728D02*
Y162894D01*
X151673Y167618D02*
Y171752D01*
X153839Y167618D02*
Y171752D01*
X151673Y167618D02*
X153839D01*
X151673Y171752D02*
X153839D01*
X163287Y157185D02*
X167421D01*
X163287Y159350D02*
X167421D01*
Y157185D02*
Y159350D01*
X163287Y157185D02*
Y159350D01*
X151673Y47539D02*
X158563D01*
X151673Y34350D02*
X158563D01*
Y47539D01*
X151673Y34350D02*
Y47539D01*
X55512Y107165D02*
Y110945D01*
X62402Y107165D02*
Y110945D01*
X55512D02*
X62402D01*
X55512Y107165D02*
X62402D01*
X88681Y112303D02*
Y114469D01*
X84547Y112303D02*
Y114469D01*
Y112303D02*
X88681D01*
X84547Y114469D02*
X88681D01*
X62205Y112008D02*
Y114173D01*
X58071Y112008D02*
Y114173D01*
Y112008D02*
X62205D01*
X58071Y114173D02*
X62205D01*
X31004Y136713D02*
Y138878D01*
X35138Y136713D02*
Y138878D01*
X31004D02*
X35138D01*
X31004Y136713D02*
X35138D01*
Y153248D02*
Y155413D01*
X31004Y153248D02*
Y155413D01*
Y153248D02*
X35138D01*
X31004Y155413D02*
X35138D01*
X103130Y130512D02*
X104941D01*
Y130905D01*
X106398D01*
Y132480D01*
X104941D02*
X106398D01*
X104941D02*
Y132874D01*
X106398D01*
Y134449D01*
X104941D02*
X106398D01*
X104941D02*
Y134843D01*
X106398D01*
Y136417D01*
X104941D02*
X106398D01*
X104941D02*
Y136811D01*
X106398D01*
Y138386D01*
X104941D02*
X106398D01*
X104941D02*
Y138779D01*
X103130D02*
X104941D01*
X103130Y130512D02*
Y130905D01*
X101673D02*
X103130D01*
X101673D02*
Y132480D01*
X103130D01*
Y132874D01*
X101673D02*
X103130D01*
X101673D02*
Y134449D01*
X103130D01*
Y134843D01*
X101673D02*
X103130D01*
X101673D02*
Y136417D01*
X103130D01*
Y136811D01*
X101673D02*
X103130D01*
X101673D02*
Y138386D01*
X103130D01*
Y138779D01*
X61516Y94390D02*
Y98524D01*
X63681Y94390D02*
Y98524D01*
X61516Y94390D02*
X63681D01*
X61516Y98524D02*
X63681D01*
X57579Y94390D02*
X59744D01*
X57579Y98524D02*
X59744D01*
X57579Y94390D02*
Y98524D01*
X59744Y94390D02*
Y98524D01*
X164469Y57480D02*
X166634D01*
X164469Y53347D02*
X166634D01*
Y57480D01*
X164469Y53347D02*
Y57480D01*
X68209Y90256D02*
Y92421D01*
X64075Y90256D02*
Y92421D01*
X68209D01*
X64075Y90256D02*
X68209D01*
X66043Y74311D02*
X70177D01*
X66043Y72146D02*
X70177D01*
Y74311D01*
X66043Y72146D02*
Y74311D01*
X180020Y58563D02*
X182185D01*
X180020Y62697D02*
X182185D01*
Y58563D02*
Y62697D01*
X180020Y58563D02*
Y62697D01*
X182874Y65256D02*
Y67421D01*
X178740Y65256D02*
Y67421D01*
X182874D01*
X178740Y65256D02*
X182874D01*
X177461Y56595D02*
Y60728D01*
X175295Y56595D02*
Y60728D01*
Y56595D02*
X177461D01*
X175295Y60728D02*
X177461D01*
X179035Y45571D02*
Y49705D01*
X176870Y45571D02*
Y49705D01*
Y45571D02*
X179035D01*
X176870Y49705D02*
X179035D01*
X183563Y56496D02*
X188878D01*
X183563Y64764D02*
X188878D01*
Y56496D02*
Y64764D01*
X183563Y56496D02*
Y64764D01*
X151870Y59941D02*
X156004D01*
X151870Y62106D02*
X156004D01*
X151870Y59941D02*
Y62106D01*
X156004Y59941D02*
Y62106D01*
X151870Y56398D02*
X156004D01*
X151870Y58563D02*
X156004D01*
X151870Y56398D02*
Y58563D01*
X156004Y56398D02*
Y58563D01*
X180413Y45571D02*
Y49705D01*
X182579Y45571D02*
Y49705D01*
X180413D02*
X182579D01*
X180413Y45571D02*
X182579D01*
X177461Y52067D02*
Y54232D01*
X181595Y52067D02*
Y54232D01*
X177461Y52067D02*
X181595D01*
X177461Y54232D02*
X181595D01*
X160630Y55118D02*
Y59252D01*
X158465Y55118D02*
Y59252D01*
X160630D01*
X158465Y55118D02*
X160630D01*
X167717Y57185D02*
X171850D01*
X167717Y59350D02*
X171850D01*
Y57185D02*
Y59350D01*
X167717Y57185D02*
Y59350D01*
X164075Y68602D02*
Y70768D01*
X168209Y68602D02*
Y70768D01*
X164075D02*
X168209D01*
X164075Y68602D02*
X168209D01*
X180315Y73228D02*
Y86614D01*
X173228Y73228D02*
Y86614D01*
X180315D01*
X173228Y73228D02*
X180315D01*
X172047D02*
Y86614D01*
X164961Y73228D02*
Y86614D01*
X172047D01*
X164961Y73228D02*
X172047D01*
X173524Y61102D02*
Y64882D01*
X166634Y61102D02*
Y64882D01*
Y61102D02*
X173524D01*
X166634Y64882D02*
X173524D01*
X156791Y61102D02*
Y64882D01*
X163681Y61102D02*
Y64882D01*
X156791D02*
X163681D01*
X156791Y61102D02*
X163681D01*
X124409Y74803D02*
Y88189D01*
X131496Y74803D02*
Y88189D01*
X124409Y74803D02*
X131496D01*
X124409Y88189D02*
X131496D01*
X116142Y74803D02*
Y88189D01*
X123228Y74803D02*
Y88189D01*
X116142Y74803D02*
X123228D01*
X116142Y88189D02*
X123228D01*
X107874Y74803D02*
Y88189D01*
X114961Y74803D02*
Y88189D01*
X107874Y74803D02*
X114961D01*
X107874Y88189D02*
X114961D01*
X159646Y36220D02*
Y47244D01*
X152165Y36220D02*
Y47244D01*
Y36220D02*
X159646D01*
X152165Y47244D02*
X159646D01*
X112677Y153839D02*
X116457D01*
X112677Y146949D02*
X116457D01*
Y153839D01*
X112677Y146949D02*
Y153839D01*
X107559D02*
X111339D01*
X107559Y146949D02*
X111339D01*
Y153839D01*
X107559Y146949D02*
Y153839D01*
X122736Y140630D02*
Y144410D01*
X115847Y140630D02*
Y144410D01*
Y140630D02*
X122736D01*
X115847Y144410D02*
X122736D01*
X162500Y90059D02*
X166634D01*
X162500Y87894D02*
X166634D01*
Y90059D01*
X162500Y87894D02*
Y90059D01*
X138189Y151181D02*
X140354D01*
X138189Y147047D02*
X140354D01*
X138189D02*
Y151181D01*
X140354Y147047D02*
Y151181D01*
X139272Y156004D02*
Y158169D01*
X143405Y156004D02*
Y158169D01*
X139272Y156004D02*
X143405D01*
X139272Y158169D02*
X143405D01*
X62106Y39469D02*
Y41634D01*
X66240Y39469D02*
Y41634D01*
X62106Y39469D02*
X66240D01*
X62106Y41634D02*
X66240D01*
X94784Y169193D02*
Y172539D01*
X99705Y169193D02*
Y172539D01*
X94784Y169193D02*
X99705D01*
X94784Y172539D02*
X99705D01*
X93405Y93307D02*
X95571D01*
X93405Y97441D02*
X95571D01*
X93405Y93307D02*
Y97441D01*
X95571Y93307D02*
Y97441D01*
X98819Y93405D02*
Y97539D01*
X96653Y93405D02*
Y97539D01*
X98819D01*
X96653Y93405D02*
X98819D01*
X19783Y94390D02*
X21949D01*
X19783Y98524D02*
X21949D01*
X19783Y94390D02*
Y98524D01*
X21949Y94390D02*
Y98524D01*
X25886Y94390D02*
Y98524D01*
X23720Y94390D02*
Y98524D01*
X25886D01*
X23720Y94390D02*
X25886D01*
X56005Y94389D02*
X58170D01*
X56005Y98523D02*
X58170D01*
Y94389D02*
Y98523D01*
X56005Y94389D02*
Y98523D01*
X52067Y94390D02*
Y98524D01*
X54232Y94390D02*
Y98524D01*
X52067D02*
X54232D01*
X52067Y94390D02*
X54232D01*
X44193Y115650D02*
X46358D01*
X44193Y119783D02*
X46358D01*
X44193Y115650D02*
Y119783D01*
X46358Y115650D02*
Y119783D01*
X46732Y100591D02*
X48543D01*
X46732Y100197D02*
Y100591D01*
X45276Y100197D02*
X46732D01*
X45276Y98622D02*
Y100197D01*
Y98622D02*
X46732D01*
Y98228D02*
Y98622D01*
X45276Y98228D02*
X46732D01*
X45276Y96653D02*
Y98228D01*
Y96653D02*
X46732D01*
Y96260D02*
Y96653D01*
X45276Y96260D02*
X46732D01*
X45276Y94685D02*
Y96260D01*
Y94685D02*
X46732D01*
Y94291D02*
Y94685D01*
X45276Y94291D02*
X46732D01*
X45276Y92716D02*
Y94291D01*
Y92716D02*
X46732D01*
Y92323D02*
Y92716D01*
Y92323D02*
X48543D01*
Y100197D02*
Y100591D01*
Y100197D02*
X50000D01*
Y98622D02*
Y100197D01*
X48543Y98622D02*
X50000D01*
X48543Y98228D02*
Y98622D01*
Y98228D02*
X50000D01*
Y96653D02*
Y98228D01*
X48543Y96653D02*
X50000D01*
X48543Y96260D02*
Y96653D01*
Y96260D02*
X50000D01*
Y94685D02*
Y96260D01*
X48543Y94685D02*
X50000D01*
X48543Y94291D02*
Y94685D01*
Y94291D02*
X50000D01*
Y92716D02*
Y94291D01*
X48543Y92716D02*
X50000D01*
X48543Y92323D02*
Y92716D01*
X94980Y156398D02*
X97146D01*
X94980Y152264D02*
X97146D01*
X94980D02*
Y156398D01*
X97146Y152264D02*
Y156398D01*
X161221Y119587D02*
Y123721D01*
X159055Y119587D02*
Y123721D01*
X161221D01*
X159055Y119587D02*
X161221D01*
X162500D02*
Y123721D01*
X164665Y119587D02*
Y123721D01*
X162500Y119587D02*
X164665D01*
X162500Y123721D02*
X164665D01*
X68209Y121457D02*
X70374D01*
X68209Y117323D02*
X70374D01*
X68209D02*
Y121457D01*
X70374Y117323D02*
Y121457D01*
X132973Y128839D02*
Y132972D01*
X135138Y128839D02*
Y132972D01*
X132973Y128839D02*
X135138D01*
X132973Y132972D02*
X135138D01*
X135236Y122835D02*
Y126969D01*
X133071Y122835D02*
Y126969D01*
X135236D01*
X133071Y122835D02*
X135236D01*
X169488Y101752D02*
Y103563D01*
X169095Y101752D02*
X169488D01*
X169095Y100295D02*
Y101752D01*
X167520Y100295D02*
X169095D01*
X167520D02*
Y101752D01*
X167126D02*
X167520D01*
X167126Y100295D02*
Y101752D01*
X165551Y100295D02*
X167126D01*
X165551D02*
Y101752D01*
X165157D02*
X165551D01*
X165157Y100295D02*
Y101752D01*
X163583Y100295D02*
X165157D01*
X163583D02*
Y101752D01*
X163189D02*
X163583D01*
X163189Y100295D02*
Y101752D01*
X161614Y100295D02*
X163189D01*
X161614D02*
Y101752D01*
X161221D02*
X161614D01*
X161221D02*
Y103563D01*
X169095D02*
X169488D01*
X169095D02*
Y105020D01*
X167520D02*
X169095D01*
X167520Y103563D02*
Y105020D01*
X167126Y103563D02*
X167520D01*
X167126D02*
Y105020D01*
X165551D02*
X167126D01*
X165551Y103563D02*
Y105020D01*
X165157Y103563D02*
X165551D01*
X165157D02*
Y105020D01*
X163583D02*
X165157D01*
X163583Y103563D02*
Y105020D01*
X163189Y103563D02*
X163583D01*
X163189D02*
Y105020D01*
X161614D02*
X163189D01*
X161614Y103563D02*
Y105020D01*
X161221Y103563D02*
X161614D01*
X141535Y118504D02*
Y122638D01*
X143701Y118504D02*
Y122638D01*
X141535Y118504D02*
X143701D01*
X141535Y122638D02*
X143701D01*
D15*
X59055Y72048D02*
X59055Y72048D01*
X27559Y72048D02*
X59055D01*
X37795Y10630D02*
X48819D01*
X59055Y22244D01*
X27559D02*
X37795Y10630D01*
X59055Y22244D02*
Y72048D01*
X27559Y22244D02*
Y72048D01*
X172244Y110827D02*
Y169488D01*
Y110827D02*
X194882D01*
Y169488D01*
X172244D02*
X194882D01*
X83641Y193897D02*
X83642Y193898D01*
X111221D02*
X111240Y193879D01*
X111221Y174213D02*
X111240Y174232D01*
X83641Y174233D02*
X83661Y174213D01*
X111221D01*
X111240Y174232D02*
Y193879D01*
X83642Y193898D02*
X111221D01*
X83641Y174233D02*
Y193897D01*
X26397Y174212D02*
Y193897D01*
X73995D01*
Y174212D02*
Y193897D01*
X26397Y174212D02*
X73995D01*
X114173Y72048D02*
X114173Y72048D01*
X82677Y72048D02*
X114173D01*
X92913Y10630D02*
X103937D01*
X114173Y22244D01*
X82677D02*
X92913Y10630D01*
X114173Y22244D02*
Y72048D01*
X82677Y22244D02*
Y72048D01*
X147637D02*
X147638Y72048D01*
X116141Y72048D02*
X147637D01*
X126378Y10630D02*
X137402D01*
X147638Y22244D01*
X116142D02*
X126378Y10630D01*
X147638Y22244D02*
Y72048D01*
X116142Y22244D02*
Y72048D01*
M02*
