G04*
G04 #@! TF.GenerationSoftware,Altium Limited,Altium Designer,18.0.9 (584)*
G04*
G04 Layer_Color=8388736*
%FSLAX25Y25*%
%MOIN*%
G70*
G01*
G75*
%ADD21R,0.03543X0.03937*%
%ADD34R,0.03937X0.03543*%
%ADD45R,0.05020X0.07874*%
%ADD46R,0.09744X0.07874*%
%ADD47R,0.06201X0.10630*%
%ADD48R,0.02165X0.07795*%
%ADD49R,0.02362X0.03347*%
%ADD50R,0.03937X0.04331*%
%ADD51O,0.01575X0.05512*%
%ADD52O,0.05512X0.01575*%
%ADD53O,0.05118X0.01968*%
%ADD54R,0.07087X0.03543*%
%ADD55O,0.01378X0.02953*%
%ADD56R,0.03740X0.04528*%
%ADD57R,0.02756X0.04528*%
%ADD58R,0.05315X0.03740*%
%ADD59R,0.03543X0.02756*%
%ADD60R,0.06890X0.03937*%
%ADD61R,0.03150X0.01575*%
%ADD62R,0.02362X0.03150*%
%ADD63R,0.04331X0.03937*%
%ADD64R,0.05906X0.10630*%
%ADD65R,0.07087X0.04724*%
%ADD66R,0.02598X0.02441*%
%ADD67R,0.02165X0.02362*%
%ADD68R,0.02441X0.02598*%
%ADD69O,0.01968X0.05118*%
%ADD70R,0.02362X0.02165*%
%ADD71O,0.02953X0.01378*%
%ADD72C,0.07480*%
G04:AMPARAMS|DCode=73|XSize=74.8mil|YSize=74.8mil|CornerRadius=10.83mil|HoleSize=0mil|Usage=FLASHONLY|Rotation=270.000|XOffset=0mil|YOffset=0mil|HoleType=Round|Shape=RoundedRectangle|*
%AMROUNDEDRECTD73*
21,1,0.07480,0.05315,0,0,270.0*
21,1,0.05315,0.07480,0,0,270.0*
1,1,0.02165,-0.02657,-0.02657*
1,1,0.02165,-0.02657,0.02657*
1,1,0.02165,0.02657,0.02657*
1,1,0.02165,0.02657,-0.02657*
%
%ADD73ROUNDEDRECTD73*%
%ADD74C,0.24016*%
G04:AMPARAMS|DCode=75|XSize=62.99mil|YSize=62.99mil|CornerRadius=9.35mil|HoleSize=0mil|Usage=FLASHONLY|Rotation=90.000|XOffset=0mil|YOffset=0mil|HoleType=Round|Shape=RoundedRectangle|*
%AMROUNDEDRECTD75*
21,1,0.06299,0.04429,0,0,90.0*
21,1,0.04429,0.06299,0,0,90.0*
1,1,0.01870,0.02215,0.02215*
1,1,0.01870,0.02215,-0.02215*
1,1,0.01870,-0.02215,-0.02215*
1,1,0.01870,-0.02215,0.02215*
%
%ADD75ROUNDEDRECTD75*%
%ADD76C,0.06299*%
%ADD77C,0.05512*%
%ADD78C,0.00394*%
%ADD79C,0.12205*%
%ADD80C,0.01181*%
%ADD81C,0.02362*%
D21*
X121063Y154724D02*
D03*
X125984D02*
D03*
X56496Y109055D02*
D03*
X61417D02*
D03*
X172539Y62992D02*
D03*
X167618D02*
D03*
X157776D02*
D03*
X162697D02*
D03*
X121752Y142520D02*
D03*
X116831D02*
D03*
D34*
X96161Y114764D02*
D03*
Y119685D02*
D03*
X101181Y114764D02*
D03*
Y119685D02*
D03*
X114567Y152854D02*
D03*
Y147933D02*
D03*
X109449Y152854D02*
D03*
Y147933D02*
D03*
D45*
X132529Y190945D02*
D03*
X139124D02*
D03*
D46*
X124360D02*
D03*
X147293D02*
D03*
D47*
X145522Y180905D02*
D03*
X126132D02*
D03*
D48*
X130709Y179488D02*
D03*
X133268D02*
D03*
X135827D02*
D03*
X138386D02*
D03*
X140945D02*
D03*
D49*
X120768Y128642D02*
D03*
X116831D02*
D03*
Y134547D02*
D03*
X120768D02*
D03*
X10630Y164370D02*
D03*
X14567D02*
D03*
Y158465D02*
D03*
X10630D02*
D03*
Y152559D02*
D03*
X14567D02*
D03*
Y146653D02*
D03*
X10630D02*
D03*
Y140748D02*
D03*
X14567D02*
D03*
Y134843D02*
D03*
X10630D02*
D03*
Y128937D02*
D03*
X14567D02*
D03*
Y123031D02*
D03*
X10630D02*
D03*
D50*
X35728Y149508D02*
D03*
Y142618D02*
D03*
X30413D02*
D03*
Y149508D02*
D03*
D51*
X58071Y162795D02*
D03*
X60039D02*
D03*
X62008D02*
D03*
X63976D02*
D03*
X65945D02*
D03*
X67913D02*
D03*
X69882D02*
D03*
X71850D02*
D03*
X73819D02*
D03*
X75787D02*
D03*
X77756D02*
D03*
X79724D02*
D03*
X81693D02*
D03*
X83661D02*
D03*
X85630D02*
D03*
X87598D02*
D03*
Y118307D02*
D03*
X85630D02*
D03*
X83661D02*
D03*
X81693D02*
D03*
X79724D02*
D03*
X77756D02*
D03*
X75787D02*
D03*
X73819D02*
D03*
X71850D02*
D03*
X69882D02*
D03*
X67913D02*
D03*
X65945D02*
D03*
X63976D02*
D03*
X62008D02*
D03*
X60039D02*
D03*
X58071D02*
D03*
D52*
X95079Y155315D02*
D03*
Y153347D02*
D03*
Y151378D02*
D03*
Y149409D02*
D03*
Y147441D02*
D03*
Y145472D02*
D03*
Y143504D02*
D03*
Y141535D02*
D03*
Y139567D02*
D03*
Y137598D02*
D03*
Y135630D02*
D03*
Y133661D02*
D03*
Y131693D02*
D03*
Y129724D02*
D03*
Y127756D02*
D03*
Y125787D02*
D03*
X50591D02*
D03*
Y127756D02*
D03*
Y129724D02*
D03*
Y131693D02*
D03*
Y133661D02*
D03*
Y135630D02*
D03*
Y137598D02*
D03*
Y139567D02*
D03*
Y141535D02*
D03*
Y143504D02*
D03*
Y145472D02*
D03*
Y147441D02*
D03*
Y149409D02*
D03*
Y151378D02*
D03*
Y153347D02*
D03*
Y155315D02*
D03*
D53*
X116732Y114764D02*
D03*
Y112205D02*
D03*
Y109646D02*
D03*
Y107087D02*
D03*
Y104528D02*
D03*
Y101969D02*
D03*
Y99410D02*
D03*
X139173Y114764D02*
D03*
Y112205D02*
D03*
Y109646D02*
D03*
Y107087D02*
D03*
Y104528D02*
D03*
Y101969D02*
D03*
Y99410D02*
D03*
D54*
X37795Y111024D02*
D03*
Y124409D02*
D03*
D55*
X113386Y163287D02*
D03*
X115354D02*
D03*
X117323D02*
D03*
X119291D02*
D03*
X113386Y168012D02*
D03*
X115354D02*
D03*
X117323D02*
D03*
X119291D02*
D03*
D56*
X164665Y107087D02*
D03*
X154232D02*
D03*
X164665Y100000D02*
D03*
X154232D02*
D03*
D57*
X161024Y107087D02*
D03*
X157874D02*
D03*
X161024Y100000D02*
D03*
X157874D02*
D03*
D58*
X138583Y82185D02*
D03*
Y76083D02*
D03*
D59*
X181496Y52559D02*
D03*
Y57677D02*
D03*
D60*
X64173Y60138D02*
D03*
Y49311D02*
D03*
X155118Y46358D02*
D03*
Y35531D02*
D03*
D61*
X160630Y68110D02*
D03*
X155905D02*
D03*
D62*
X188386Y36319D02*
D03*
X183268D02*
D03*
X185827Y28248D02*
D03*
D63*
X64567Y22047D02*
D03*
Y33858D02*
D03*
D64*
X77953Y75689D02*
D03*
Y93602D02*
D03*
D65*
X185039Y85039D02*
D03*
Y74803D02*
D03*
X176772Y85039D02*
D03*
Y74803D02*
D03*
X168504Y85039D02*
D03*
Y74803D02*
D03*
X127953Y76378D02*
D03*
Y86614D02*
D03*
X119685Y76378D02*
D03*
Y86614D02*
D03*
X111417Y76378D02*
D03*
Y86614D02*
D03*
D66*
X108701Y116142D02*
D03*
X111772D02*
D03*
X127815Y121260D02*
D03*
X124744D02*
D03*
X147894Y109646D02*
D03*
X144823D02*
D03*
X147894Y112992D02*
D03*
X144823D02*
D03*
X147205Y101575D02*
D03*
X144134D02*
D03*
X147205Y98032D02*
D03*
X144134D02*
D03*
X108701Y101575D02*
D03*
X111772D02*
D03*
X108701Y98032D02*
D03*
X111772D02*
D03*
X108701Y112598D02*
D03*
X111772D02*
D03*
X88150Y113386D02*
D03*
X85079D02*
D03*
X61673Y113091D02*
D03*
X58602D02*
D03*
X31535Y137795D02*
D03*
X34606D02*
D03*
X34606Y154331D02*
D03*
X31535D02*
D03*
X164606Y69685D02*
D03*
X167677D02*
D03*
D67*
X42520Y142224D02*
D03*
Y145177D02*
D03*
X148819Y168209D02*
D03*
Y171161D02*
D03*
X44882Y80020D02*
D03*
Y82972D02*
D03*
X148819Y135728D02*
D03*
Y132776D02*
D03*
X152756Y135728D02*
D03*
Y132776D02*
D03*
X144882Y135728D02*
D03*
Y132776D02*
D03*
X140945Y135728D02*
D03*
Y132776D02*
D03*
X144882Y168209D02*
D03*
Y171161D02*
D03*
X140945Y168209D02*
D03*
Y171161D02*
D03*
X152756Y168209D02*
D03*
Y171161D02*
D03*
X62598Y94980D02*
D03*
Y97933D02*
D03*
X159547Y58661D02*
D03*
Y55709D02*
D03*
X97736Y96949D02*
D03*
Y93996D02*
D03*
X24803Y97933D02*
D03*
Y94980D02*
D03*
X160138Y123130D02*
D03*
Y120177D02*
D03*
X163583D02*
D03*
Y123130D02*
D03*
X134055Y129429D02*
D03*
Y132382D02*
D03*
X134153Y126378D02*
D03*
Y123425D02*
D03*
X142618Y119095D02*
D03*
Y122047D02*
D03*
D68*
X92028Y115689D02*
D03*
Y118760D02*
D03*
X58661Y94921D02*
D03*
Y97992D02*
D03*
X165551Y56949D02*
D03*
Y53878D02*
D03*
X94488Y93839D02*
D03*
Y96909D02*
D03*
X20866Y94921D02*
D03*
Y97992D02*
D03*
X45276Y116181D02*
D03*
Y119252D02*
D03*
D69*
X154528Y163189D02*
D03*
X151969D02*
D03*
X149409D02*
D03*
X146850D02*
D03*
X144291D02*
D03*
X141732D02*
D03*
X139173D02*
D03*
X154528Y140748D02*
D03*
X151969D02*
D03*
X149409D02*
D03*
X146850D02*
D03*
X144291D02*
D03*
X141732D02*
D03*
X139173D02*
D03*
D70*
X166831Y137008D02*
D03*
X163878D02*
D03*
X49311Y76772D02*
D03*
X52264D02*
D03*
Y80315D02*
D03*
X49311D02*
D03*
X166831Y140551D02*
D03*
X163878D02*
D03*
X166831Y147638D02*
D03*
X163878D02*
D03*
X166831Y144095D02*
D03*
X163878D02*
D03*
X166831Y154724D02*
D03*
X163878D02*
D03*
X166831Y151181D02*
D03*
X163878D02*
D03*
X166831Y161811D02*
D03*
X163878D02*
D03*
X166831Y158268D02*
D03*
X163878D02*
D03*
X171260Y58268D02*
D03*
X168307D02*
D03*
D71*
X106398Y131693D02*
D03*
Y133661D02*
D03*
Y135630D02*
D03*
Y137598D02*
D03*
X101673Y131693D02*
D03*
Y133661D02*
D03*
Y135630D02*
D03*
Y137598D02*
D03*
X45276Y99410D02*
D03*
Y97441D02*
D03*
Y95472D02*
D03*
Y93504D02*
D03*
X50000Y99410D02*
D03*
Y97441D02*
D03*
Y95472D02*
D03*
Y93504D02*
D03*
D72*
X161417Y176221D02*
D03*
X155512Y21811D02*
D03*
X167323D02*
D03*
Y31811D02*
D03*
D73*
X161417Y186221D02*
D03*
X155512Y11811D02*
D03*
X167323D02*
D03*
D74*
X43307Y56102D02*
D03*
Y26575D02*
D03*
X98425Y56102D02*
D03*
Y26575D02*
D03*
X131890Y56102D02*
D03*
Y26575D02*
D03*
D75*
X185630Y120472D02*
D03*
D76*
Y130315D02*
D03*
Y140157D02*
D03*
Y150000D02*
D03*
Y159843D02*
D03*
D77*
X89941Y179055D02*
D03*
X94941Y189055D02*
D03*
X99941Y179055D02*
D03*
X104941Y189055D02*
D03*
X32697Y179055D02*
D03*
X37697Y189055D02*
D03*
X42697Y179055D02*
D03*
X47697Y189055D02*
D03*
X52697Y179055D02*
D03*
X57697Y189055D02*
D03*
X62697Y179055D02*
D03*
X67697Y189055D02*
D03*
D78*
X84429Y186142D02*
D03*
X27185D02*
D03*
D79*
X9843Y187008D02*
D03*
X187008D02*
D03*
Y9843D02*
D03*
X9843D02*
D03*
D80*
X175008Y66145D02*
D03*
X146850Y131201D02*
D03*
X82977Y93607D02*
D03*
X86815Y99710D02*
D03*
X85733Y95575D02*
D03*
X84308Y101378D02*
D03*
X83173Y106107D02*
D03*
X86126Y107190D02*
D03*
X91732Y111811D02*
D03*
X85044Y113883D02*
D03*
X93405Y115551D02*
D03*
X60827Y106988D02*
D03*
X113490Y91737D02*
D03*
X108180Y92038D02*
D03*
X106344Y89646D02*
D03*
X104528Y96653D02*
D03*
X92819Y106895D02*
D03*
X79724Y113583D02*
D03*
X70673Y114080D02*
D03*
X66539Y113687D02*
D03*
X65650Y110728D02*
D03*
X83425Y82146D02*
D03*
X156496Y71653D02*
D03*
X153937Y70571D02*
D03*
X142913Y82874D02*
D03*
X142815Y76083D02*
D03*
X79630Y65456D02*
D03*
X68898Y77362D02*
D03*
X173327Y188878D02*
D03*
X173425Y184252D02*
D03*
X174311Y177953D02*
D03*
X166929Y194291D02*
D03*
X172343Y192126D02*
D03*
X177264Y174606D02*
D03*
X181299Y173425D02*
D03*
X185728Y173327D02*
D03*
X189665Y173228D02*
D03*
X194193Y173622D02*
D03*
X160138Y166043D02*
D03*
X181595Y167520D02*
D03*
X167618Y167126D02*
D03*
X174311D02*
D03*
X179331Y158563D02*
D03*
X189469Y154724D02*
D03*
X178740Y151673D02*
D03*
X189469Y134744D02*
D03*
X189272Y145276D02*
D03*
X179134Y142618D02*
D03*
X189075Y125591D02*
D03*
X179724Y121653D02*
D03*
X181496Y112500D02*
D03*
X181398Y108268D02*
D03*
X190157Y103642D02*
D03*
X187205Y98622D02*
D03*
X179232Y97835D02*
D03*
X171457Y97539D02*
D03*
X168307Y94587D02*
D03*
X101772Y116043D02*
D03*
X106595Y121949D02*
D03*
X129337Y155519D02*
D03*
X92815Y123130D02*
D03*
X147940Y116344D02*
D03*
X139075Y118602D02*
D03*
X150499Y128746D02*
D03*
X145472Y123130D02*
D03*
X78347Y181496D02*
D03*
X78642Y185236D02*
D03*
X78347Y188976D02*
D03*
X78642Y193110D02*
D03*
X22047Y179921D02*
D03*
X19882Y175492D02*
D03*
X16634Y172146D02*
D03*
X13287Y169783D02*
D03*
X7776Y169587D02*
D03*
X3839Y169390D02*
D03*
X139082Y153157D02*
D03*
X129769Y152567D02*
D03*
X137507Y159555D02*
D03*
X129626Y145571D02*
D03*
X139764Y150591D02*
D03*
X139272Y147579D02*
D03*
X42620Y136424D02*
D03*
X46754Y135735D02*
D03*
X65945Y159176D02*
D03*
X92126Y161417D02*
D03*
X91738Y153347D02*
D03*
X84645Y153149D02*
D03*
X131496Y166142D02*
D03*
X146949Y171063D02*
D03*
X104528Y156299D02*
D03*
X103150Y151083D02*
D03*
X102165Y145571D02*
D03*
X104926Y141936D02*
D03*
X112598Y159842D02*
D03*
X118504Y157480D02*
D03*
X113779Y152756D02*
D03*
X120866D02*
D03*
Y159843D02*
D03*
X117224Y96850D02*
D03*
X144882Y105610D02*
D03*
X131890Y103248D02*
D03*
X123819Y102756D02*
D03*
X84350Y142028D02*
D03*
X86024Y143898D02*
D03*
X82284Y148425D02*
D03*
X148524Y123327D02*
D03*
X163976Y62402D02*
D03*
X168307Y58071D02*
D03*
X163976D02*
D03*
X168307Y62402D02*
D03*
X157382Y160925D02*
D03*
X160039Y161122D02*
D03*
X159941Y148721D02*
D03*
X159055Y151673D02*
D03*
X152362Y149114D02*
D03*
X148917Y149508D02*
D03*
X149902Y157480D02*
D03*
X108366Y142520D02*
D03*
X125886Y129724D02*
D03*
X56476Y64376D02*
D03*
X58858Y86910D02*
D03*
X63976Y86811D02*
D03*
X61319Y91535D02*
D03*
X61417Y88976D02*
D03*
X72047Y91043D02*
D03*
X76181Y90748D02*
D03*
X72146Y98327D02*
D03*
X55118Y91437D02*
D03*
X56102Y106201D02*
D03*
X52756D02*
D03*
X47640Y104041D02*
D03*
X53841Y100399D02*
D03*
X49510Y110734D02*
D03*
X39665Y116929D02*
D03*
X50197Y98524D02*
D03*
X35041Y107584D02*
D03*
X32087Y106791D02*
D03*
X44998Y101673D02*
D03*
X68310Y42620D02*
D03*
X69784Y39862D02*
D03*
X58268Y91437D02*
D03*
X77264Y87795D02*
D03*
X75689Y96555D02*
D03*
X73268Y94232D02*
D03*
X73724Y101481D02*
D03*
X194291Y28839D02*
D03*
X189469Y39173D02*
D03*
X182087Y35583D02*
D03*
X145480Y30415D02*
D03*
X144390Y33465D02*
D03*
X147047Y50394D02*
D03*
X148728Y46951D02*
D03*
X135925Y12205D02*
D03*
X118411Y7973D02*
D03*
X123530Y6890D02*
D03*
X121555Y10827D02*
D03*
X115360Y8170D02*
D03*
X164075Y69048D02*
D03*
X168209D02*
D03*
X161327Y70476D02*
D03*
X186122Y31398D02*
D03*
X185934Y42030D02*
D03*
X72342Y137795D02*
D03*
X75787Y137894D02*
D03*
X68996Y133858D02*
D03*
X70079Y146949D02*
D03*
X72244Y144390D02*
D03*
X72539Y149803D02*
D03*
X82087Y138878D02*
D03*
X85339Y136129D02*
D03*
X84748Y129239D02*
D03*
X75394Y154528D02*
D03*
X79335Y155126D02*
D03*
X77756Y149606D02*
D03*
X75984Y158268D02*
D03*
X82189Y127172D02*
D03*
X75394Y130905D02*
D03*
X78252Y130420D02*
D03*
X88390Y123825D02*
D03*
X88193Y126778D02*
D03*
X68898Y129921D02*
D03*
X90661Y133082D02*
D03*
X59747Y132290D02*
D03*
X54924Y135046D02*
D03*
Y139180D02*
D03*
X58661Y145669D02*
D03*
X54629Y142133D02*
D03*
X59646Y149704D02*
D03*
X60039Y159176D02*
D03*
X57480Y161811D02*
D03*
X62458Y151673D02*
D03*
X65354Y153150D02*
D03*
X54432Y131207D02*
D03*
X53940Y127762D02*
D03*
X59255Y128451D02*
D03*
X60731Y139082D02*
D03*
X66276Y104000D02*
D03*
X67716Y100984D02*
D03*
X59496Y103437D02*
D03*
X56299Y100787D02*
D03*
X60928Y100694D02*
D03*
X55709Y111909D02*
D03*
X16535Y50689D02*
D03*
X2953Y22736D02*
D03*
X7087Y29528D02*
D03*
X8709Y32728D02*
D03*
X5020Y25984D02*
D03*
X14764Y47047D02*
D03*
X12894Y43602D02*
D03*
X9837Y36018D02*
D03*
X11516Y39370D02*
D03*
X55315Y114961D02*
D03*
X30413Y111713D02*
D03*
X80020Y102264D02*
D03*
X36714Y84847D02*
D03*
X51676Y82977D02*
D03*
X56890Y78839D02*
D03*
X50984Y73228D02*
D03*
X44882Y75394D02*
D03*
Y78642D02*
D03*
X123524Y124606D02*
D03*
X128248Y138779D02*
D03*
X125394Y136221D02*
D03*
X129626Y142421D02*
D03*
X109055Y185138D02*
D03*
X107579Y180413D02*
D03*
X99410Y187205D02*
D03*
X112598Y182382D02*
D03*
Y190847D02*
D03*
X117323Y183268D02*
D03*
X117224Y190945D02*
D03*
X97047Y173327D02*
D03*
X71752Y155610D02*
D03*
X72638Y158465D02*
D03*
X26083Y120669D02*
D03*
X28248Y123917D02*
D03*
X23917Y124803D02*
D03*
X39272Y129724D02*
D03*
X41339Y132283D02*
D03*
X82874Y155610D02*
D03*
X86024Y157283D02*
D03*
X77461Y144291D02*
D03*
X68701Y126279D02*
D03*
X55512Y118110D02*
D03*
X68015Y136719D02*
D03*
X21457Y141535D02*
D03*
X107879Y104729D02*
D03*
X103346Y107185D02*
D03*
X102854Y110236D02*
D03*
X110531Y107972D02*
D03*
X114080Y107092D02*
D03*
X107289Y110635D02*
D03*
X99016Y106890D02*
D03*
X107480Y116147D02*
D03*
X106304Y126384D02*
D03*
X97441Y110236D02*
D03*
X95915Y106890D02*
D03*
X116443Y122841D02*
D03*
X120768Y126083D02*
D03*
X112407Y144594D02*
D03*
X109553Y147054D02*
D03*
X100792Y142920D02*
D03*
X85138Y139173D02*
D03*
X54756Y160303D02*
D03*
X54626Y164567D02*
D03*
X50223Y158861D02*
D03*
X51181Y164764D02*
D03*
X45571Y141043D02*
D03*
X93405Y120079D02*
D03*
X103647Y127959D02*
D03*
X102170Y125203D02*
D03*
X128839Y132283D02*
D03*
X130814Y126286D02*
D03*
X130912Y123333D02*
D03*
X128642Y121260D02*
D03*
X122545Y121167D02*
D03*
X124022Y118313D02*
D03*
Y115360D02*
D03*
X123234Y111226D02*
D03*
X107773Y169786D02*
D03*
X107776Y166142D02*
D03*
X89961Y164215D02*
D03*
X155519Y57778D02*
D03*
X172449Y50199D02*
D03*
X175894Y57188D02*
D03*
X177953Y50394D02*
D03*
X173630Y53152D02*
D03*
X176879Y60141D02*
D03*
X172639Y70771D02*
D03*
X168118Y51479D02*
D03*
X79528Y40846D02*
D03*
X75689Y43406D02*
D03*
X117815Y112205D02*
D03*
X129337Y114474D02*
D03*
X120774Y142822D02*
D03*
X104528Y160531D02*
D03*
X173721Y124705D02*
D03*
X169783Y120571D02*
D03*
X135925Y166535D02*
D03*
X136516Y169488D02*
D03*
X144291Y140748D02*
D03*
X145877Y146063D02*
D03*
X146850Y138287D02*
D03*
X146661Y160244D02*
D03*
X170776Y137015D02*
D03*
X134153Y97441D02*
D03*
X171465Y143216D02*
D03*
X171063Y149409D02*
D03*
X171161Y155610D02*
D03*
X171063Y161811D02*
D03*
X133169Y184153D02*
D03*
X18602Y122933D02*
D03*
Y126319D02*
D03*
Y129705D02*
D03*
Y133090D02*
D03*
Y136476D02*
D03*
Y139862D02*
D03*
X47250Y129724D02*
D03*
X41339Y83169D02*
D03*
X6988Y141043D02*
D03*
X10630Y128937D02*
D03*
X7480Y153150D02*
D03*
X10630Y164370D02*
D03*
X29823Y158268D02*
D03*
X36024Y158563D02*
D03*
X36909Y162402D02*
D03*
X30906Y162598D02*
D03*
X30315Y144980D02*
D03*
X34055Y149606D02*
D03*
X45282Y158230D02*
D03*
X45276Y150000D02*
D03*
X41732Y153149D02*
D03*
X42126Y150000D02*
D03*
X96063Y156299D02*
D03*
X37795Y179134D02*
D03*
X161268Y115453D02*
D03*
X157685Y100989D02*
D03*
Y114277D02*
D03*
X167922Y130026D02*
D03*
X169095Y107973D02*
D03*
X173130Y105905D02*
D03*
X155217Y151673D02*
D03*
X168709Y117230D02*
D03*
X170776Y114966D02*
D03*
X171465Y112013D02*
D03*
X166437Y127165D02*
D03*
X160734Y125993D02*
D03*
X155217Y140748D02*
D03*
X162114Y129731D02*
D03*
X160138Y133760D02*
D03*
X151877Y137310D02*
D03*
X156602Y137015D02*
D03*
X160736Y137113D02*
D03*
X113490Y171071D02*
D03*
X120177Y171260D02*
D03*
X116831Y170784D02*
D03*
X152756Y171161D02*
D03*
X153846Y107092D02*
D03*
X153452Y128746D02*
D03*
X153017Y123432D02*
D03*
X156110Y122152D02*
D03*
X157980Y107486D02*
D03*
X150795Y110931D02*
D03*
X152468Y97643D02*
D03*
X149902Y99311D02*
D03*
X123524Y95276D02*
D03*
X127270Y97446D02*
D03*
X143996Y111319D02*
D03*
X119691Y101678D02*
D03*
X136129Y110045D02*
D03*
X136417Y107087D02*
D03*
X132880Y108175D02*
D03*
X120866Y109320D02*
D03*
X118313Y144594D02*
D03*
D81*
X30118Y63189D02*
D03*
X35925Y69095D02*
D03*
X184843Y79921D02*
D03*
X177264D02*
D03*
X188386Y92028D02*
D03*
X183071Y91929D02*
D03*
X177559Y92224D02*
D03*
X146063Y88484D02*
D03*
X156791Y89764D02*
D03*
X115655Y86914D02*
D03*
X74118Y66637D02*
D03*
X115256Y17126D02*
D03*
X54232Y37697D02*
D03*
X56102Y44783D02*
D03*
X29528Y32283D02*
D03*
X19094Y57087D02*
D03*
X23524Y69587D02*
D03*
X16535Y84153D02*
D03*
X24705Y81299D02*
D03*
X32972Y93799D02*
D03*
X44291Y89961D02*
D03*
X47539Y86614D02*
D03*
X123721Y87008D02*
D03*
X79232Y47343D02*
D03*
X111319Y48425D02*
D03*
X123425Y68110D02*
D03*
X146752Y57677D02*
D03*
X140847Y68012D02*
D03*
X144882Y64173D02*
D03*
X149902Y53543D02*
D03*
X154823Y53642D02*
D03*
X75299Y57877D02*
D03*
X117224Y58366D02*
D03*
X118996Y62598D02*
D03*
X81988Y70571D02*
D03*
X63779Y65748D02*
D03*
X78150Y73228D02*
D03*
X24016Y147933D02*
D03*
X24902Y155217D02*
D03*
X3543Y155709D02*
D03*
X3937Y144488D02*
D03*
X4528Y131595D02*
D03*
X4331Y121555D02*
D03*
X3839Y111024D02*
D03*
X2953Y101181D02*
D03*
X172736Y82087D02*
D03*
X60433Y63090D02*
D03*
X64567Y19783D02*
D03*
X127854Y82087D02*
D03*
X119882Y82185D02*
D03*
X111516Y82284D02*
D03*
X54429Y67618D02*
D03*
X51378Y41339D02*
D03*
X22736Y33858D02*
D03*
X32677Y42126D02*
D03*
X22343Y46654D02*
D03*
X24902Y58268D02*
D03*
X18799Y65158D02*
D03*
X75886Y22539D02*
D03*
X79626Y27657D02*
D03*
X72047Y27362D02*
D03*
X98130Y41240D02*
D03*
X89961Y40354D02*
D03*
X86221Y45177D02*
D03*
X112303Y61713D02*
D03*
X111221Y66535D02*
D03*
X122539Y39272D02*
D03*
X110433Y37303D02*
D03*
X118996Y43012D02*
D03*
X107874Y42913D02*
D03*
X160138Y30413D02*
D03*
X163583Y39469D02*
D03*
X192421Y23819D02*
D03*
X191831Y45768D02*
D03*
X177756Y40945D02*
D03*
X75299Y62405D02*
D03*
X78130Y78169D02*
D03*
X177756Y69784D02*
D03*
X184252Y69980D02*
D03*
X157579Y46260D02*
D03*
X152559Y46358D02*
D03*
X164567Y75197D02*
D03*
Y79724D02*
D03*
X138384Y85136D02*
D03*
X170453Y86988D02*
D03*
X189173Y66634D02*
D03*
X185630Y52559D02*
D03*
M02*
