G04*
G04 #@! TF.GenerationSoftware,Altium Limited,Altium Designer,18.0.9 (584)*
G04*
G04 Layer_Color=65535*
%FSLAX25Y25*%
%MOIN*%
G70*
G01*
G75*
%ADD10C,0.01968*%
%ADD11C,0.00394*%
%ADD12C,0.02362*%
%ADD13C,0.00984*%
%ADD14C,0.01000*%
%ADD15C,0.00787*%
D10*
X162008Y194685D02*
G03*
X162008Y194685I-591J0D01*
G01*
X156102Y3347D02*
G03*
X156102Y3347I-591J0D01*
G01*
X167913D02*
G03*
X167913Y3347I-591J0D01*
G01*
D11*
X122809Y129246D02*
G03*
X122736Y129232I-72J183D01*
G01*
X8589Y163766D02*
G03*
X8661Y163779I72J-183D01*
G01*
X8589Y151955D02*
G03*
X8661Y151969I72J-183D01*
G01*
X8589Y140144D02*
G03*
X8661Y140157I72J-183D01*
G01*
X8589Y128333D02*
G03*
X8661Y128347I72J-183D01*
G01*
X161811Y66339D02*
G03*
X161811Y66339I-197J0D01*
G01*
X67913Y35236D02*
G03*
X67913Y35236I-197J0D01*
G01*
D12*
X59842Y154724D02*
G03*
X59842Y154724I-1181J0D01*
G01*
X125787Y113189D02*
G03*
X125787Y113189I-1181J0D01*
G01*
X154134Y155315D02*
G03*
X154134Y155315I-1181J0D01*
G01*
D13*
X51083Y158071D02*
G03*
X51083Y158071I-492J0D01*
G01*
X117224Y117717D02*
G03*
X117224Y117717I-492J0D01*
G01*
X192028Y36319D02*
G03*
X192028Y36319I-492J0D01*
G01*
X157973Y163189D02*
G03*
X157973Y163189I-492J0D01*
G01*
D14*
X41136Y117717D02*
G03*
X41136Y117717I-3341J0D01*
G01*
X166417Y181220D02*
Y191220D01*
X156417D02*
X166417D01*
Y171221D02*
Y191220D01*
X156417Y171221D02*
Y191220D01*
Y171221D02*
X166417D01*
X150512Y6811D02*
Y16811D01*
Y6811D02*
X160512D01*
X150512D02*
Y26811D01*
X160512Y6811D02*
Y26811D01*
X150512D02*
X160512D01*
X162323Y6811D02*
Y36811D01*
X172323D01*
Y6811D02*
Y36811D01*
X162323Y6811D02*
X172323D01*
X162323D02*
Y16811D01*
X172323D01*
X14567Y112598D02*
Y118596D01*
X17566D01*
X18566Y117597D01*
Y115597D01*
X17566Y114598D01*
X14567D01*
X16566D02*
X18566Y112598D01*
X24564Y117597D02*
X23564Y118596D01*
X21565D01*
X20565Y117597D01*
Y116597D01*
X21565Y115597D01*
X23564D01*
X24564Y114598D01*
Y113598D01*
X23564Y112598D01*
X21565D01*
X20565Y113598D01*
X26563Y118596D02*
X30562D01*
X28562D01*
Y112598D01*
D15*
X64173Y54724D02*
G03*
X64173Y51968I0J-1378D01*
G01*
X64173Y54724D02*
G03*
X64173Y57480I-0J1378D01*
G01*
X155118Y40945D02*
G03*
X155118Y38189I0J-1378D01*
G01*
X155118Y40945D02*
G03*
X155118Y43701I-0J1378D01*
G01*
X31496Y34449D02*
Y38386D01*
Y65945D02*
Y69882D01*
X29528Y67913D02*
X33465D01*
X27559Y72047D02*
X59055D01*
X27559Y22244D02*
Y72047D01*
X37795Y10630D02*
X48819D01*
X59055Y22244D02*
Y72047D01*
X48819Y10630D02*
X59055Y22244D01*
X27559D02*
X37795Y10630D01*
X175787Y114567D02*
Y165748D01*
X191535D01*
Y114567D02*
Y165748D01*
X175787Y114567D02*
X191535D01*
X195473Y126378D02*
Y153937D01*
Y110236D02*
Y116535D01*
X193504Y110236D02*
X195473D01*
Y163779D02*
Y170079D01*
X193110D02*
X195473D01*
X171457D02*
X187598D01*
X171457Y110236D02*
Y170079D01*
Y110236D02*
X187598D01*
X111221Y188386D02*
Y193898D01*
X83661D02*
X111221D01*
X80807Y174213D02*
Y193898D01*
X114075Y174213D02*
Y193898D01*
X83661Y174213D02*
X111221D01*
X83661D02*
Y179724D01*
Y190354D02*
Y193898D01*
X111221Y174213D02*
Y179724D01*
X121752Y131004D02*
Y132185D01*
X115847Y131004D02*
Y132185D01*
X9646Y160827D02*
Y162008D01*
X15551Y160827D02*
Y162008D01*
X9646Y149016D02*
Y150197D01*
X15551Y149016D02*
Y150197D01*
X9646Y137205D02*
Y138386D01*
X15551Y137205D02*
Y138386D01*
X9646Y125394D02*
Y126575D01*
X15551Y125394D02*
Y126575D01*
X23563Y174213D02*
Y193898D01*
X76831Y174213D02*
Y193898D01*
X73976Y188386D02*
Y193898D01*
X26417D02*
X73976D01*
X26417Y190354D02*
Y193898D01*
Y174213D02*
Y179724D01*
Y174213D02*
X73976D01*
Y179724D01*
X86614Y34449D02*
Y38386D01*
Y65945D02*
Y69882D01*
X84646Y67913D02*
X88583D01*
X82677Y72047D02*
X114173D01*
X82677Y22244D02*
Y72047D01*
X92913Y10630D02*
X103937D01*
X114173Y22244D02*
Y72047D01*
X103937Y10630D02*
X114173Y22244D01*
X82677D02*
X92913Y10630D01*
X120079Y34449D02*
Y38386D01*
Y65945D02*
Y69882D01*
X118110Y67913D02*
X122047D01*
X116142Y72047D02*
X147638D01*
X116142Y22244D02*
Y72047D01*
X126378Y10630D02*
X137402D01*
X147638Y22244D02*
Y72047D01*
X137402Y10630D02*
X147638Y22244D01*
X116142D02*
X126378Y10630D01*
X54724Y122441D02*
X90945D01*
X54724Y158661D02*
X90945D01*
Y122441D02*
Y158661D01*
X54724Y122441D02*
Y158661D01*
X120669Y97047D02*
Y117126D01*
X135236Y97047D02*
Y117126D01*
X120669D02*
X135236D01*
X120669Y97047D02*
X135236D01*
X32874Y111811D02*
X33465D01*
X32874Y123622D02*
X33465D01*
X42126D02*
X42717D01*
X42126Y111811D02*
X42717D01*
Y123622D01*
X32874Y111811D02*
Y123622D01*
X67028Y52559D02*
Y56890D01*
X61319Y52559D02*
Y56890D01*
X190157Y29626D02*
Y33563D01*
X188386Y29626D02*
X190157D01*
X181496D02*
Y33563D01*
Y29626D02*
X183268D01*
X60827Y31102D02*
X68307D01*
X60827Y22441D02*
X61417D01*
X60827Y33465D02*
X61417D01*
X67716Y22441D02*
X68307D01*
X67716Y33465D02*
X68307D01*
X60827Y22441D02*
Y33465D01*
X68307Y22441D02*
Y33465D01*
X71161Y73819D02*
X74016D01*
X67126Y77854D02*
X71161Y73819D01*
X84744D02*
X88779Y77854D01*
X81890Y73819D02*
X84744D01*
X67126Y77854D02*
Y95472D01*
X74016D01*
X81890D02*
X88779D01*
Y77854D02*
Y95472D01*
X187992Y78543D02*
Y81299D01*
X182087Y78543D02*
Y81299D01*
X136811Y159252D02*
X156890D01*
X136811Y144685D02*
X156890D01*
Y159252D01*
X136811Y144685D02*
Y159252D01*
X157972Y38780D02*
Y43110D01*
X152264Y38780D02*
Y43110D01*
X179724Y78543D02*
Y81299D01*
X173819Y78543D02*
Y81299D01*
X171457Y78543D02*
Y81299D01*
X165551Y78543D02*
Y81299D01*
X125000Y80118D02*
Y82874D01*
X130905Y80118D02*
Y82874D01*
X116732Y80118D02*
Y82874D01*
X122638Y80118D02*
Y82874D01*
X108465Y80118D02*
Y82874D01*
X114370Y80118D02*
Y82874D01*
X81200Y171036D02*
Y167756D01*
X81856Y167100D01*
X83168D01*
X83824Y167756D01*
Y171036D01*
X85136Y167100D02*
Y169724D01*
X86448Y171036D01*
X87760Y169724D01*
Y167100D01*
Y169068D01*
X85136D01*
X89072Y167100D02*
Y171036D01*
X91039D01*
X91695Y170380D01*
Y169068D01*
X91039Y168412D01*
X89072D01*
X90383D02*
X91695Y167100D01*
X93007Y171036D02*
X95631D01*
X94319D01*
Y167100D01*
X171834Y107025D02*
Y103089D01*
X173802D01*
X174458Y103745D01*
Y104401D01*
X173802Y105057D01*
X171834D01*
X173802D01*
X174458Y105713D01*
Y106369D01*
X173802Y107025D01*
X171834D01*
X175770Y103089D02*
Y105713D01*
X177082Y107025D01*
X178393Y105713D01*
Y103089D01*
Y105057D01*
X175770D01*
X179705Y107025D02*
Y103089D01*
X182329D01*
X38100Y7436D02*
Y3500D01*
X40068D01*
X40724Y4156D01*
Y4812D01*
X40068Y5468D01*
X38100D01*
X40068D01*
X40724Y6124D01*
Y6780D01*
X40068Y7436D01*
X38100D01*
X42036Y3500D02*
Y6124D01*
X43348Y7436D01*
X44660Y6124D01*
Y3500D01*
Y5468D01*
X42036D01*
X45972Y7436D02*
X48595D01*
X47283D01*
Y3500D01*
X174804Y24671D02*
Y22047D01*
X176772D01*
Y23359D01*
Y22047D01*
X178740D01*
Y25983D02*
X176116D01*
X174804Y27295D01*
X176116Y28607D01*
X178740D01*
X176772D01*
Y25983D01*
X178740Y29919D02*
X174804D01*
X178740Y32542D01*
X174804D01*
X148425Y2362D02*
X144490D01*
Y4330D01*
X145145Y4986D01*
X146457D01*
X147113Y4330D01*
Y2362D01*
X144490Y6298D02*
X148425D01*
X147113Y7610D01*
X148425Y8922D01*
X144490D01*
X148425Y10234D02*
X144490D01*
X145801Y11546D01*
X144490Y12857D01*
X148425D01*
X124700Y3500D02*
Y6124D01*
X126012Y7436D01*
X127324Y6124D01*
Y3500D01*
Y5468D01*
X124700D01*
X128636Y7436D02*
Y3500D01*
X130604D01*
X131260Y4156D01*
Y6780D01*
X130604Y7436D01*
X128636D01*
X132571Y3500D02*
Y6124D01*
X133883Y7436D01*
X135195Y6124D01*
Y3500D01*
Y5468D01*
X132571D01*
X136507Y3500D02*
Y7436D01*
X138475D01*
X139131Y6780D01*
Y5468D01*
X138475Y4812D01*
X136507D01*
X95168Y7436D02*
X93856D01*
X93200Y6780D01*
Y4156D01*
X93856Y3500D01*
X95168D01*
X95824Y4156D01*
Y6780D01*
X95168Y7436D01*
X97136D02*
Y4156D01*
X97792Y3500D01*
X99104D01*
X99760Y4156D01*
Y7436D01*
X101072D02*
X103695D01*
X102383D01*
Y3500D01*
X168899Y175197D02*
Y177821D01*
Y176509D01*
X172835D01*
X168899Y181756D02*
Y179133D01*
X172835D01*
Y181756D01*
X170867Y179133D02*
Y180445D01*
X172835Y183068D02*
X168899D01*
X170211Y184380D01*
X168899Y185692D01*
X172835D01*
Y187004D02*
X168899D01*
Y188972D01*
X169555Y189628D01*
X170867D01*
X171523Y188972D01*
Y187004D01*
X24000Y167100D02*
Y171036D01*
X25968D01*
X26624Y170380D01*
Y169068D01*
X25968Y168412D01*
X24000D01*
X27936Y167100D02*
Y171036D01*
X29904D01*
X30560Y170380D01*
Y169068D01*
X29904Y168412D01*
X27936D01*
X29248D02*
X30560Y167100D01*
X33839Y171036D02*
X32527D01*
X31872Y170380D01*
Y167756D01*
X32527Y167100D01*
X33839D01*
X34495Y167756D01*
Y170380D01*
X33839Y171036D01*
X38431Y170380D02*
X37775Y171036D01*
X36463D01*
X35807Y170380D01*
Y167756D01*
X36463Y167100D01*
X37775D01*
X38431Y167756D01*
Y169068D01*
X37119D01*
X2953Y125753D02*
X6888D01*
X4921Y127721D01*
Y125097D01*
X6233Y138821D02*
X6888Y138165D01*
Y136853D01*
X6233Y136197D01*
X5577D01*
X4921Y136853D01*
Y137509D01*
Y136853D01*
X4265Y136197D01*
X3609D01*
X2953Y136853D01*
Y138165D01*
X3609Y138821D01*
X2953Y147997D02*
Y150621D01*
X5577Y147997D01*
X6233D01*
X6888Y148653D01*
Y149965D01*
X6233Y150621D01*
X2953Y162421D02*
Y161109D01*
Y161765D01*
X6888D01*
X6233Y162421D01*
X102230Y129559D02*
X101574Y130215D01*
X100262D01*
X99606Y129559D01*
Y128903D01*
X100262Y128247D01*
X101574D01*
X102230Y127591D01*
Y126936D01*
X101574Y126279D01*
X100262D01*
X99606Y126936D01*
X103542Y130215D02*
X106166D01*
X104854D01*
Y126279D01*
X107478D02*
Y128903D01*
X108790Y130215D01*
X110102Y128903D01*
Y126279D01*
Y128247D01*
X107478D01*
X111414Y130215D02*
X114037D01*
X112725D01*
Y126279D01*
M02*
