G04*
G04 #@! TF.GenerationSoftware,Altium Limited,Altium Designer,18.0.9 (584)*
G04*
G04 Layer_Color=32896*
%FSLAX25Y25*%
%MOIN*%
G70*
G01*
G75*
%ADD11C,0.00394*%
%ADD12C,0.02362*%
%ADD13C,0.00984*%
%ADD14C,0.01000*%
%ADD15C,0.00787*%
%ADD82C,0.00591*%
D11*
X173622Y87205D02*
G03*
X173622Y87205I-197J0D01*
G01*
X167323Y131890D02*
G03*
X167323Y131890I-197J0D01*
G01*
X190748Y31693D02*
G03*
X190748Y31693I-197J0D01*
G01*
X167323Y121949D02*
G03*
X167323Y121949I-197J0D01*
G01*
X74016Y96457D02*
G03*
X74016Y96457I-197J0D01*
G01*
X152953Y49016D02*
G03*
X152953Y49016I-197J0D01*
G01*
X94095Y169095D02*
G03*
X94095Y169095I-197J0D01*
G01*
D12*
X90551Y125492D02*
G03*
X90551Y125492I-1181J0D01*
G01*
X127362Y127165D02*
G03*
X127362Y127165I-1181J0D01*
G01*
D13*
X104528Y146161D02*
G03*
X104528Y146161I-492J0D01*
G01*
X176969Y67421D02*
G03*
X176969Y67421I-492J0D01*
G01*
X97736Y131299D02*
G03*
X97736Y131299I-492J0D01*
G01*
X61614Y87205D02*
G03*
X61614Y87205I-492J0D01*
G01*
X134547Y131693D02*
G03*
X134547Y131693I-492J0D01*
G01*
D14*
X22835Y81496D02*
G03*
X18898Y81496I-1969J-0D01*
G01*
X26772D02*
G03*
X22835Y81496I-1969J-0D01*
G01*
X30709D02*
G03*
X26772Y81496I-1969J-0D01*
G01*
X34646D02*
G03*
X30709Y81496I-1969J-0D01*
G01*
X145669Y78740D02*
G03*
X145669Y74803I0J-1969D01*
G01*
Y82677D02*
G03*
X145669Y78740I0J-1969D01*
G01*
Y86614D02*
G03*
X145669Y82677I0J-1969D01*
G01*
Y90551D02*
G03*
X145669Y86614I0J-1969D01*
G01*
D15*
X56496Y37795D02*
G03*
X56496Y37795I-197J0D01*
G01*
X150787Y146457D02*
Y154724D01*
X142520Y146457D02*
X150787D01*
X142520Y153839D02*
Y154724D01*
Y146457D02*
Y147343D01*
Y154724D02*
X150787D01*
X91142Y94488D02*
X103937D01*
X91142Y74803D02*
X103937D01*
X80315Y94488D02*
X87205D01*
X80315Y74803D02*
X87205D01*
X59449Y51181D02*
X72244D01*
X59449Y70866D02*
X72244D01*
X76181Y51181D02*
X83071D01*
X76181Y70866D02*
X83071D01*
X106595Y145571D02*
Y147343D01*
Y145571D02*
X108366D01*
X126279D02*
X128051D01*
Y147343D01*
Y165256D02*
Y167028D01*
X126279D02*
X128051D01*
X106595Y165256D02*
Y167028D01*
X108366D01*
X49606Y71653D02*
Y72342D01*
X40157Y71653D02*
X49606D01*
X40157D02*
Y72342D01*
Y84350D02*
Y85039D01*
Y85039D02*
X49606D01*
Y84350D02*
Y85039D01*
X173917Y66240D02*
Y68012D01*
X172146D02*
X173917D01*
X158366D02*
X160138D01*
X158366Y66240D02*
Y68012D01*
Y52461D02*
Y54232D01*
Y52461D02*
X160138D01*
X173917D02*
Y54232D01*
X172146Y52461D02*
X173917D01*
X69685Y7087D02*
X72047D01*
X56299Y36220D02*
X57087D01*
X84646D02*
X85433D01*
X56299Y7087D02*
X58071D01*
X83661D02*
X85433D01*
X56299D02*
Y36220D01*
X85433Y7087D02*
Y36220D01*
X93307Y109350D02*
Y129429D01*
X78740Y109350D02*
Y129429D01*
X93307D01*
X78740Y109350D02*
X93307D01*
X157283Y72638D02*
X159862D01*
X169272D02*
X171850D01*
X157283Y87205D02*
X159862D01*
X169272D02*
X171850D01*
X157283Y72638D02*
Y73819D01*
Y86024D02*
Y87205D01*
X171850Y72638D02*
Y73819D01*
Y86024D02*
Y87205D01*
X157283Y122441D02*
X158484D01*
X164350D02*
X165551D01*
X157283Y131890D02*
X158484D01*
X164350D02*
X165551D01*
X135039Y72441D02*
X154724D01*
X135039Y92913D02*
X154724D01*
Y92126D02*
Y92913D01*
X135039Y92126D02*
Y92913D01*
Y72441D02*
Y73228D01*
X154724Y72441D02*
Y73228D01*
X62205Y80315D02*
X74016D01*
X62205Y84252D02*
X74016D01*
Y80315D02*
Y84252D01*
X62205Y80315D02*
Y84252D01*
X181102Y40335D02*
Y41535D01*
Y33268D02*
Y34468D01*
X190551Y40335D02*
Y41535D01*
Y33268D02*
Y34468D01*
X130118Y111024D02*
Y131102D01*
X115551Y111024D02*
Y131102D01*
X130118D01*
X115551Y111024D02*
X130118D01*
X157283Y112500D02*
X158484D01*
X164350D02*
X165551D01*
X157283Y121949D02*
X158484D01*
X164350D02*
X165551D01*
X82461Y105905D02*
X83661D01*
X75394D02*
X76595D01*
X82461Y96457D02*
X83661D01*
X75394D02*
X76595D01*
X152165Y44882D02*
X159646D01*
X159055Y36220D02*
X159646D01*
X159055Y47244D02*
X159646D01*
X152165Y36220D02*
X152756D01*
X152165Y47244D02*
X152756D01*
X159646Y36220D02*
Y47244D01*
X152165Y36220D02*
Y47244D01*
D82*
X51279Y84744D02*
G03*
X51279Y84744I-295J0D01*
G01*
M02*
