G04*
G04 #@! TF.GenerationSoftware,Altium Limited,Altium Designer,18.0.9 (584)*
G04*
G04 Layer_Color=255*
%FSLAX25Y25*%
%MOIN*%
G70*
G01*
G75*
%ADD24O,0.04724X0.01575*%
%ADD26O,0.00984X0.02559*%
%ADD27R,0.03347X0.04134*%
%ADD28R,0.02362X0.04134*%
%ADD29R,0.04921X0.03347*%
%ADD32R,0.02756X0.01181*%
%ADD34R,0.03937X0.03543*%
%ADD37R,0.03543X0.03150*%
%ADD38R,0.02205X0.02047*%
%ADD39R,0.01772X0.01968*%
%ADD40R,0.02047X0.02205*%
%ADD42R,0.01968X0.01772*%
%ADD44O,0.02559X0.00984*%
%ADD87C,0.07087*%
G04:AMPARAMS|DCode=88|XSize=70.87mil|YSize=70.87mil|CornerRadius=8.86mil|HoleSize=0mil|Usage=FLASHONLY|Rotation=270.000|XOffset=0mil|YOffset=0mil|HoleType=Round|Shape=RoundedRectangle|*
%AMROUNDEDRECTD88*
21,1,0.07087,0.05315,0,0,270.0*
21,1,0.05315,0.07087,0,0,270.0*
1,1,0.01772,-0.02657,-0.02657*
1,1,0.01772,-0.02657,0.02657*
1,1,0.01772,0.02657,0.02657*
1,1,0.01772,0.02657,-0.02657*
%
%ADD88ROUNDEDRECTD88*%
%ADD89C,0.23622*%
G04:AMPARAMS|DCode=90|XSize=59.06mil|YSize=59.06mil|CornerRadius=7.38mil|HoleSize=0mil|Usage=FLASHONLY|Rotation=90.000|XOffset=0mil|YOffset=0mil|HoleType=Round|Shape=RoundedRectangle|*
%AMROUNDEDRECTD90*
21,1,0.05906,0.04429,0,0,90.0*
21,1,0.04429,0.05906,0,0,90.0*
1,1,0.01476,0.02215,0.02215*
1,1,0.01476,0.02215,-0.02215*
1,1,0.01476,-0.02215,-0.02215*
1,1,0.01476,-0.02215,0.02215*
%
%ADD90ROUNDEDRECTD90*%
%ADD91C,0.05906*%
%ADD92C,0.05118*%
%ADD93C,0.11811*%
G04:AMPARAMS|DCode=96|XSize=9.84mil|YSize=27.56mil|CornerRadius=2.46mil|HoleSize=0mil|Usage=FLASHONLY|Rotation=90.000|XOffset=0mil|YOffset=0mil|HoleType=Round|Shape=RoundedRectangle|*
%AMROUNDEDRECTD96*
21,1,0.00984,0.02264,0,0,90.0*
21,1,0.00492,0.02756,0,0,90.0*
1,1,0.00492,0.01132,0.00246*
1,1,0.00492,0.01132,-0.00246*
1,1,0.00492,-0.01132,-0.00246*
1,1,0.00492,-0.01132,0.00246*
%
%ADD96ROUNDEDRECTD96*%
G04:AMPARAMS|DCode=97|XSize=53.15mil|YSize=39.37mil|CornerRadius=3.94mil|HoleSize=0mil|Usage=FLASHONLY|Rotation=90.000|XOffset=0mil|YOffset=0mil|HoleType=Round|Shape=RoundedRectangle|*
%AMROUNDEDRECTD97*
21,1,0.05315,0.03150,0,0,90.0*
21,1,0.04528,0.03937,0,0,90.0*
1,1,0.00787,0.01575,0.02264*
1,1,0.00787,0.01575,-0.02264*
1,1,0.00787,-0.01575,-0.02264*
1,1,0.00787,-0.01575,0.02264*
%
%ADD97ROUNDEDRECTD97*%
%ADD98R,0.15000X0.06496*%
%ADD99R,0.04016X0.02402*%
%ADD100R,0.05000X0.02402*%
%ADD101O,0.03150X0.00984*%
%ADD102O,0.00984X0.03150*%
%ADD103R,0.12402X0.12402*%
%ADD104R,0.02520X0.09409*%
%ADD105R,0.02756X0.00984*%
%ADD106R,0.08071X0.08071*%
%ADD107R,0.05906X0.06299*%
%ADD108R,0.01968X0.06299*%
%ADD109R,0.09449X0.13701*%
%ADD110R,0.03150X0.04291*%
%ADD111R,0.07047X0.11024*%
%ADD112R,0.03150X0.01378*%
%ADD113R,0.01181X0.01575*%
%ADD114R,0.03543X0.02461*%
%ADD115R,0.02362X0.01181*%
%ADD116R,0.07874X0.02362*%
%ADD117R,0.03032X0.03858*%
%ADD118R,0.04646X0.17323*%
%ADD119R,0.01772X0.01968*%
%ADD120R,0.04331X0.05315*%
%ADD121R,0.02165X0.02953*%
%ADD122R,0.02461X0.03543*%
%ADD123R,0.01181X0.02362*%
D24*
X97244Y128347D02*
D03*
Y125787D02*
D03*
Y123228D02*
D03*
Y120669D02*
D03*
Y118110D02*
D03*
Y115551D02*
D03*
Y112992D02*
D03*
Y110433D02*
D03*
X74803Y128347D02*
D03*
Y125787D02*
D03*
Y123228D02*
D03*
Y120669D02*
D03*
Y118110D02*
D03*
Y115551D02*
D03*
Y112992D02*
D03*
Y110433D02*
D03*
X134055Y128740D02*
D03*
Y126181D02*
D03*
Y123622D02*
D03*
Y121063D02*
D03*
Y118504D02*
D03*
Y115945D02*
D03*
Y113386D02*
D03*
X111614Y128740D02*
D03*
Y126181D02*
D03*
Y123622D02*
D03*
Y121063D02*
D03*
Y118504D02*
D03*
Y115945D02*
D03*
Y113386D02*
D03*
D26*
X168307Y100295D02*
D03*
X166339D02*
D03*
X164370D02*
D03*
X162402D02*
D03*
X168307Y105020D02*
D03*
X166339D02*
D03*
X164370D02*
D03*
X162402D02*
D03*
D27*
X123524Y104331D02*
D03*
X133957D02*
D03*
X123524Y97244D02*
D03*
X133957D02*
D03*
D28*
X127165Y104331D02*
D03*
X130315D02*
D03*
X127165Y97244D02*
D03*
X130315D02*
D03*
D29*
X186221Y57579D02*
D03*
Y63681D02*
D03*
D32*
X94882Y170866D02*
D03*
X99606D02*
D03*
D34*
X155905Y35827D02*
D03*
Y47638D02*
D03*
D37*
X53937Y73917D02*
D03*
Y78839D02*
D03*
D38*
X152323Y64665D02*
D03*
X149252D02*
D03*
X146004Y68405D02*
D03*
X149075D02*
D03*
X57520Y162992D02*
D03*
X60591D02*
D03*
X67677Y91339D02*
D03*
X64606D02*
D03*
X182343Y66339D02*
D03*
X179272D02*
D03*
X177992Y53150D02*
D03*
X181063D02*
D03*
X139803Y157087D02*
D03*
X142874D02*
D03*
X62638Y40551D02*
D03*
X65709D02*
D03*
D39*
X138779Y115551D02*
D03*
Y118504D02*
D03*
X176378Y57185D02*
D03*
Y60138D02*
D03*
X177953Y46161D02*
D03*
Y49114D02*
D03*
X181496D02*
D03*
Y46161D02*
D03*
X53150Y97933D02*
D03*
Y94980D02*
D03*
D40*
X55512Y131043D02*
D03*
Y134114D02*
D03*
X102461Y119232D02*
D03*
Y122303D02*
D03*
X117323Y107047D02*
D03*
Y103976D02*
D03*
X146850Y160197D02*
D03*
Y157126D02*
D03*
X37402Y76024D02*
D03*
Y79094D02*
D03*
X181102Y59095D02*
D03*
Y62165D02*
D03*
X139272Y150650D02*
D03*
Y147579D02*
D03*
X57087Y94921D02*
D03*
Y97992D02*
D03*
X96063Y155866D02*
D03*
Y152795D02*
D03*
X69291Y120925D02*
D03*
Y117854D02*
D03*
D42*
X60728Y166535D02*
D03*
X63681D02*
D03*
X69587Y73228D02*
D03*
X66634D02*
D03*
X152461Y61024D02*
D03*
X155413D02*
D03*
X152461Y57480D02*
D03*
X155413D02*
D03*
X166043Y88976D02*
D03*
X163091D02*
D03*
D44*
X10630Y140748D02*
D03*
Y142717D02*
D03*
Y144685D02*
D03*
Y146653D02*
D03*
X15354Y140748D02*
D03*
Y142717D02*
D03*
Y144685D02*
D03*
Y146653D02*
D03*
X93701Y103740D02*
D03*
Y101772D02*
D03*
Y99803D02*
D03*
Y97835D02*
D03*
X88976Y103740D02*
D03*
Y101772D02*
D03*
Y99803D02*
D03*
Y97835D02*
D03*
X66929Y149409D02*
D03*
Y147441D02*
D03*
Y145472D02*
D03*
Y143504D02*
D03*
X62205Y149409D02*
D03*
Y147441D02*
D03*
Y145472D02*
D03*
Y143504D02*
D03*
D87*
X161417Y176221D02*
D03*
X155512Y21811D02*
D03*
X167323D02*
D03*
Y31811D02*
D03*
D88*
X161417Y186221D02*
D03*
X155512Y11811D02*
D03*
X167323D02*
D03*
D89*
X43307Y56102D02*
D03*
Y26575D02*
D03*
X98425Y56102D02*
D03*
Y26575D02*
D03*
X131890Y56102D02*
D03*
Y26575D02*
D03*
D90*
X185630Y120472D02*
D03*
D91*
Y130315D02*
D03*
Y140157D02*
D03*
Y150000D02*
D03*
Y159843D02*
D03*
D92*
X89941Y179055D02*
D03*
X94941Y189055D02*
D03*
X99941Y179055D02*
D03*
X104941Y189055D02*
D03*
X32697Y179055D02*
D03*
X37697Y189055D02*
D03*
X42697Y179055D02*
D03*
X47697Y189055D02*
D03*
X52697Y179055D02*
D03*
X57697Y189055D02*
D03*
X62697Y179055D02*
D03*
X67697Y189055D02*
D03*
D93*
X9843Y187008D02*
D03*
X187008D02*
D03*
Y9843D02*
D03*
X9843D02*
D03*
D96*
X142913Y150591D02*
D03*
Y148622D02*
D03*
Y152559D02*
D03*
D97*
X147441Y150591D02*
D03*
D98*
X94842Y89095D02*
D03*
Y80197D02*
D03*
X68543Y56575D02*
D03*
Y65472D02*
D03*
D99*
X103130Y92146D02*
D03*
Y87146D02*
D03*
Y82146D02*
D03*
Y77146D02*
D03*
X60256Y53524D02*
D03*
Y58524D02*
D03*
Y63524D02*
D03*
Y68524D02*
D03*
D100*
X81614Y82146D02*
D03*
Y77146D02*
D03*
Y87146D02*
D03*
Y92146D02*
D03*
X81772Y63524D02*
D03*
Y68524D02*
D03*
Y58524D02*
D03*
Y53524D02*
D03*
D101*
X107972Y149409D02*
D03*
Y151378D02*
D03*
Y153347D02*
D03*
Y155315D02*
D03*
Y157283D02*
D03*
Y159252D02*
D03*
Y161221D02*
D03*
Y163189D02*
D03*
X126673D02*
D03*
Y161221D02*
D03*
Y159252D02*
D03*
Y157283D02*
D03*
Y155315D02*
D03*
Y153347D02*
D03*
Y151378D02*
D03*
Y149409D02*
D03*
X172539Y64173D02*
D03*
Y62205D02*
D03*
Y60236D02*
D03*
Y58268D02*
D03*
Y56299D02*
D03*
X159744D02*
D03*
Y58268D02*
D03*
Y60236D02*
D03*
Y62205D02*
D03*
Y64173D02*
D03*
D102*
X110433Y165650D02*
D03*
X112402D02*
D03*
X114370D02*
D03*
X116339D02*
D03*
X118307D02*
D03*
X120276D02*
D03*
X122244D02*
D03*
X124213D02*
D03*
Y146949D02*
D03*
X122244D02*
D03*
X120276D02*
D03*
X118307D02*
D03*
X116339D02*
D03*
X114370D02*
D03*
X112402D02*
D03*
X110433D02*
D03*
X170079Y53839D02*
D03*
X168110D02*
D03*
X166142D02*
D03*
X164173D02*
D03*
X162205D02*
D03*
Y66634D02*
D03*
X164173D02*
D03*
X166142D02*
D03*
X168110D02*
D03*
X170079D02*
D03*
D103*
X117323Y156299D02*
D03*
D104*
X44882Y78347D02*
D03*
D105*
X41240Y82284D02*
D03*
Y80315D02*
D03*
Y78347D02*
D03*
Y76378D02*
D03*
Y74409D02*
D03*
X48524D02*
D03*
Y76378D02*
D03*
Y78347D02*
D03*
Y80315D02*
D03*
Y82284D02*
D03*
D106*
X166142Y60236D02*
D03*
D107*
X61024Y34843D02*
D03*
X80709D02*
D03*
D108*
X66142D02*
D03*
X69291D02*
D03*
X72441D02*
D03*
X75590D02*
D03*
D109*
X63858Y12520D02*
D03*
X77874D02*
D03*
D110*
X170453Y82638D02*
D03*
D111*
X164567Y79921D02*
D03*
D112*
X158681Y76083D02*
D03*
Y78642D02*
D03*
Y81201D02*
D03*
Y83760D02*
D03*
X170453Y76083D02*
D03*
Y78642D02*
D03*
D113*
X166890Y86122D02*
D03*
X162244D02*
D03*
Y73721D02*
D03*
X166890D02*
D03*
D114*
X161417Y129087D02*
D03*
Y125244D02*
D03*
Y119146D02*
D03*
Y115303D02*
D03*
X79528Y99260D02*
D03*
Y103102D02*
D03*
D115*
X157697Y124606D02*
D03*
Y127165D02*
D03*
Y129724D02*
D03*
X165138Y124606D02*
D03*
Y127165D02*
D03*
Y129724D02*
D03*
X157697Y114665D02*
D03*
Y117224D02*
D03*
Y119783D02*
D03*
X165138Y114665D02*
D03*
Y117224D02*
D03*
Y119783D02*
D03*
X83248Y103740D02*
D03*
Y101181D02*
D03*
Y98622D02*
D03*
X75807Y103740D02*
D03*
Y101181D02*
D03*
Y98622D02*
D03*
D116*
X26772Y89173D02*
D03*
Y75394D02*
D03*
D117*
X104390Y100394D02*
D03*
X98760D02*
D03*
D118*
X138384Y82677D02*
D03*
X151380D02*
D03*
D119*
X171161Y137008D02*
D03*
X174508D02*
D03*
X171161Y161811D02*
D03*
X174508D02*
D03*
X171161Y155610D02*
D03*
X174508D02*
D03*
X171161Y149409D02*
D03*
X174508D02*
D03*
X171161Y143209D02*
D03*
X174508D02*
D03*
D120*
X39370Y89370D02*
D03*
X44882D02*
D03*
D121*
X64370Y77362D02*
D03*
X68110D02*
D03*
X71850D02*
D03*
Y87205D02*
D03*
X68110D02*
D03*
X64370D02*
D03*
D122*
X187748Y37402D02*
D03*
X183905D02*
D03*
D123*
X183268Y41122D02*
D03*
X185827D02*
D03*
X188386D02*
D03*
X183268Y33681D02*
D03*
X185827D02*
D03*
X188386D02*
D03*
M02*
