G04*
G04 #@! TF.GenerationSoftware,Altium Limited,Altium Designer,18.0.9 (584)*
G04*
G04 Layer_Physical_Order=1*
G04 Layer_Color=255*
%FSLAX25Y25*%
%MOIN*%
G70*
G01*
G75*
%ADD10C,0.01968*%
%ADD12C,0.02362*%
%ADD13C,0.00984*%
%ADD14C,0.01000*%
%ADD15C,0.00787*%
%ADD16R,0.04626X0.07480*%
%ADD17R,0.09350X0.07480*%
%ADD18R,0.05807X0.10236*%
%ADD19R,0.01772X0.07402*%
%ADD20R,0.01968X0.02953*%
%ADD21R,0.03543X0.03937*%
%ADD22O,0.01181X0.05118*%
%ADD23O,0.05118X0.01181*%
%ADD24O,0.04724X0.01575*%
%ADD25R,0.06693X0.03150*%
%ADD26O,0.00984X0.02559*%
%ADD27R,0.03347X0.04134*%
%ADD28R,0.02362X0.04134*%
%ADD29R,0.04921X0.03347*%
%ADD30R,0.03150X0.02362*%
%ADD31R,0.06496X0.03543*%
%ADD32R,0.02756X0.01181*%
%ADD33R,0.01968X0.02756*%
%ADD34R,0.03937X0.03543*%
%ADD35R,0.05512X0.10236*%
%ADD36R,0.06693X0.04331*%
%ADD37R,0.03543X0.03150*%
%ADD38R,0.02205X0.02047*%
%ADD39R,0.01772X0.01968*%
%ADD40R,0.02047X0.02205*%
%ADD41O,0.01575X0.04724*%
%ADD42R,0.01968X0.01772*%
%ADD43R,0.03150X0.03543*%
%ADD44O,0.02559X0.00984*%
%ADD81C,0.02362*%
%ADD82C,0.00591*%
%ADD83C,0.01181*%
%ADD84C,0.03937*%
%ADD85C,0.01575*%
%ADD86C,0.11811*%
%ADD87C,0.07087*%
G04:AMPARAMS|DCode=88|XSize=70.87mil|YSize=70.87mil|CornerRadius=8.86mil|HoleSize=0mil|Usage=FLASHONLY|Rotation=270.000|XOffset=0mil|YOffset=0mil|HoleType=Round|Shape=RoundedRectangle|*
%AMROUNDEDRECTD88*
21,1,0.07087,0.05315,0,0,270.0*
21,1,0.05315,0.07087,0,0,270.0*
1,1,0.01772,-0.02657,-0.02657*
1,1,0.01772,-0.02657,0.02657*
1,1,0.01772,0.02657,0.02657*
1,1,0.01772,0.02657,-0.02657*
%
%ADD88ROUNDEDRECTD88*%
%ADD89C,0.23622*%
G04:AMPARAMS|DCode=90|XSize=59.06mil|YSize=59.06mil|CornerRadius=7.38mil|HoleSize=0mil|Usage=FLASHONLY|Rotation=90.000|XOffset=0mil|YOffset=0mil|HoleType=Round|Shape=RoundedRectangle|*
%AMROUNDEDRECTD90*
21,1,0.05906,0.04429,0,0,90.0*
21,1,0.04429,0.05906,0,0,90.0*
1,1,0.01476,0.02215,0.02215*
1,1,0.01476,0.02215,-0.02215*
1,1,0.01476,-0.02215,-0.02215*
1,1,0.01476,-0.02215,0.02215*
%
%ADD90ROUNDEDRECTD90*%
%ADD91C,0.05906*%
%ADD92C,0.05118*%
%ADD93C,0.11811*%
%ADD94C,0.03937*%
%ADD95C,0.02756*%
G36*
X175197Y181102D02*
X181102Y175197D01*
X196850D01*
Y96457D01*
X173228D01*
X169291Y92520D01*
X160675D01*
X160431Y93110D01*
X163729Y96409D01*
X163925Y96702D01*
X163994Y97047D01*
X164453Y97342D01*
X166929D01*
Y102657D01*
X166929D01*
X166971Y103231D01*
X171358D01*
X171704Y103299D01*
X171997Y103495D01*
X172689Y104187D01*
X173130Y104099D01*
X173821Y104237D01*
X174407Y104628D01*
X174799Y105214D01*
X174936Y105905D01*
X174799Y106597D01*
X174407Y107183D01*
X173821Y107574D01*
X173717Y107595D01*
X173606Y107815D01*
X173552Y108230D01*
X175352Y110029D01*
X175548Y110322D01*
X175616Y110668D01*
X175616Y110668D01*
Y120560D01*
X175548Y120905D01*
X175352Y121198D01*
X175352Y121198D01*
X174165Y122385D01*
X174360Y123026D01*
X174412Y123036D01*
X174998Y123427D01*
X175389Y124013D01*
X175527Y124705D01*
X175389Y125396D01*
X174998Y125982D01*
X174412Y126374D01*
X173721Y126511D01*
X173029Y126374D01*
X172443Y125982D01*
X172052Y125396D01*
X172041Y125344D01*
X171400Y125150D01*
X169407Y127143D01*
Y129060D01*
X169590Y129335D01*
X169728Y130026D01*
X169590Y130717D01*
X169199Y131303D01*
X168613Y131695D01*
X167922Y131832D01*
X167230Y131695D01*
X166644Y131303D01*
X166253Y130717D01*
X166115Y130026D01*
X166253Y129335D01*
X165861Y128857D01*
X165746Y128834D01*
X165675Y128787D01*
X165084Y129103D01*
Y132640D01*
X165016Y132985D01*
X164820Y133278D01*
X163112Y134986D01*
X163338Y135531D01*
X168405D01*
Y136111D01*
X169249D01*
X169499Y135737D01*
X170085Y135346D01*
X170776Y135208D01*
X171467Y135346D01*
X172053Y135737D01*
X172445Y136323D01*
X172582Y137015D01*
X172445Y137706D01*
X172053Y138292D01*
X171467Y138683D01*
X170776Y138821D01*
X170085Y138683D01*
X169499Y138292D01*
X169249Y137918D01*
X168405D01*
Y138484D01*
X164254D01*
X164254Y138484D01*
X164570Y139075D01*
X168405D01*
Y142027D01*
X167734D01*
Y142618D01*
X168405D01*
Y143191D01*
X169664D01*
X169796Y142524D01*
X170188Y141938D01*
X170774Y141547D01*
X171465Y141409D01*
X172156Y141547D01*
X172742Y141938D01*
X173134Y142524D01*
X173271Y143216D01*
X173134Y143907D01*
X172742Y144493D01*
X172156Y144885D01*
X171465Y145022D01*
X170774Y144885D01*
X170731Y144856D01*
X170621Y144929D01*
X170276Y144998D01*
X168405D01*
Y145571D01*
X164634D01*
X164318Y146161D01*
X164318Y146161D01*
X168405D01*
Y148506D01*
X169536D01*
X169786Y148132D01*
X170372Y147741D01*
X171063Y147603D01*
X171754Y147741D01*
X172340Y148132D01*
X172732Y148718D01*
X172869Y149409D01*
X172732Y150101D01*
X172340Y150687D01*
X171754Y151078D01*
X171063Y151216D01*
X170372Y151078D01*
X169786Y150687D01*
X169536Y150313D01*
X168405D01*
Y152657D01*
X164254D01*
X164254Y152657D01*
X164570Y153248D01*
X168405D01*
Y155593D01*
X169359D01*
X169493Y154919D01*
X169884Y154333D01*
X170470Y153941D01*
X171161Y153804D01*
X171853Y153941D01*
X172439Y154333D01*
X172830Y154919D01*
X172968Y155610D01*
X172830Y156301D01*
X172439Y156887D01*
X171853Y157279D01*
X171161Y157417D01*
X170646Y157314D01*
X170621Y157330D01*
X170276Y157399D01*
X168405D01*
Y159744D01*
X162303D01*
Y159171D01*
X155098D01*
X154639Y159631D01*
X154834Y160270D01*
X155065Y160316D01*
X155521Y160621D01*
X155826Y161076D01*
X155932Y161614D01*
Y164199D01*
X156523Y164444D01*
X158481Y162486D01*
X158774Y162291D01*
X159119Y162222D01*
X159441Y162286D01*
X160521D01*
X161635Y161172D01*
X161928Y160977D01*
X162274Y160908D01*
X162303D01*
Y160335D01*
X168405D01*
Y160908D01*
X169536D01*
X169786Y160534D01*
X170372Y160142D01*
X171063Y160005D01*
X171754Y160142D01*
X172340Y160534D01*
X172732Y161120D01*
X172869Y161811D01*
X172732Y162502D01*
X172340Y163088D01*
X171754Y163480D01*
X171063Y163617D01*
X170372Y163480D01*
X169786Y163088D01*
X169536Y162714D01*
X168405D01*
Y163287D01*
X162303D01*
X162303Y163287D01*
Y163287D01*
X161820Y163542D01*
X161534Y163828D01*
X161241Y164023D01*
X160896Y164092D01*
X159429D01*
X156612Y166910D01*
Y171332D01*
X156543Y171677D01*
X156347Y171970D01*
X154450Y173867D01*
X154157Y174063D01*
X153812Y174132D01*
X151700D01*
X151700Y174132D01*
X151354Y174063D01*
X151061Y173867D01*
X150050Y172856D01*
X149970Y172736D01*
X149213D01*
Y171161D01*
X148819D01*
Y170768D01*
X147343D01*
Y169587D01*
Y166673D01*
X147215Y166096D01*
X146850Y166169D01*
X146486Y166096D01*
X146358Y166673D01*
Y169587D01*
Y170768D01*
X143405D01*
Y167705D01*
X143388Y167618D01*
Y166400D01*
X142798Y166152D01*
X142636Y166310D01*
Y167421D01*
X142567Y167767D01*
X142421Y167984D01*
Y172736D01*
X139469D01*
Y171132D01*
X138727Y170391D01*
X138043D01*
X137793Y170765D01*
X137207Y171157D01*
X136516Y171295D01*
X135825Y171157D01*
X135238Y170765D01*
X134847Y170179D01*
X134709Y169488D01*
X134847Y168797D01*
X134937Y168662D01*
X135232Y168207D01*
X134786Y167905D01*
X134648Y167813D01*
X134256Y167227D01*
X134119Y166535D01*
X134256Y165844D01*
X134648Y165258D01*
X135022Y165008D01*
Y161271D01*
X133613Y159862D01*
X133418Y159569D01*
X133349Y159223D01*
Y156624D01*
X133418Y156279D01*
X133613Y155985D01*
X134824Y154775D01*
X135117Y154579D01*
X135463Y154510D01*
X139488D01*
X140928Y153071D01*
Y149272D01*
X140337Y148998D01*
X139963Y149248D01*
X139272Y149385D01*
X138580Y149248D01*
X138265Y149037D01*
X117960D01*
X117734Y149583D01*
X118202Y150050D01*
X118441Y150409D01*
X118525Y150831D01*
Y151926D01*
X118898Y152362D01*
X119116Y152362D01*
X120669D01*
Y154724D01*
Y157087D01*
X118898D01*
Y155680D01*
X118307Y155501D01*
X118202Y155658D01*
X117568Y156292D01*
X117559Y156298D01*
X116169Y157688D01*
Y161081D01*
X116374Y161389D01*
X116991Y161462D01*
X117323Y161396D01*
X117745Y161480D01*
X117894Y161580D01*
X118307Y161673D01*
X118720Y161580D01*
X118869Y161480D01*
X119291Y161396D01*
X119714Y161480D01*
X120072Y161719D01*
X120311Y162078D01*
X120395Y162500D01*
Y164075D01*
X120569Y164296D01*
X121159Y164331D01*
X125473Y160017D01*
Y157087D01*
X123819D01*
Y152362D01*
X128150D01*
Y153548D01*
X128740Y153832D01*
X129337Y153713D01*
X130028Y153850D01*
X130614Y154242D01*
X131006Y154828D01*
X131143Y155519D01*
X131006Y156211D01*
X130614Y156797D01*
X130028Y157188D01*
X129337Y157326D01*
X128646Y157188D01*
X128150Y157087D01*
Y157087D01*
X128150Y157087D01*
X127480D01*
Y160433D01*
X127403Y160817D01*
X127186Y161143D01*
X121969Y166359D01*
X121644Y166577D01*
X121260Y166653D01*
X120868D01*
X120395Y167224D01*
Y168799D01*
X120377Y168891D01*
X120715Y169522D01*
X120786Y169574D01*
X120868Y169591D01*
X121455Y169983D01*
X121846Y170569D01*
X121984Y171260D01*
X121980Y171278D01*
X122354Y171735D01*
X134816D01*
X135161Y171803D01*
X135454Y171999D01*
X138237Y174782D01*
X138433Y175075D01*
X138457Y175197D01*
X142028D01*
Y175197D01*
X145128D01*
Y180905D01*
X145522D01*
Y181299D01*
X149016D01*
Y186024D01*
X149016Y186614D01*
X149606Y186614D01*
X152559D01*
Y190551D01*
X147293D01*
Y190945D01*
X146900D01*
Y195276D01*
X142618D01*
X142028Y195276D01*
X141437Y195276D01*
X139518D01*
Y190945D01*
Y186614D01*
X141437D01*
X142027Y186614D01*
X142028Y186024D01*
Y183780D01*
X135283D01*
X134976Y184153D01*
X134838Y184845D01*
X134447Y185431D01*
X133861Y185822D01*
X133169Y185960D01*
X132478Y185822D01*
X131892Y185431D01*
X131500Y184845D01*
X131363Y184153D01*
X131102Y183836D01*
Y179488D01*
X130315D01*
Y183780D01*
X129626D01*
Y186024D01*
X129626Y186614D01*
X130217Y186614D01*
X132136D01*
Y190945D01*
Y195276D01*
X130217D01*
X129626Y195276D01*
X129035Y195276D01*
X124754D01*
Y190945D01*
X124360D01*
Y190551D01*
X119095D01*
Y186614D01*
X122047D01*
X122638Y186614D01*
X122638Y186024D01*
Y181299D01*
X126132D01*
Y180512D01*
X122638D01*
Y175770D01*
X122581Y175709D01*
X122047Y175474D01*
X121950Y175539D01*
X121604Y175608D01*
X112251D01*
X111906Y175539D01*
X111613Y175343D01*
X110991Y174722D01*
X106713D01*
X106713Y174722D01*
X106367Y174653D01*
X106074Y174458D01*
X106074Y174458D01*
X98082Y166465D01*
X97886Y166172D01*
X97817Y165827D01*
Y158198D01*
X97227Y157889D01*
X96831Y158153D01*
X96063Y158306D01*
X95295Y158153D01*
X94644Y157718D01*
X94209Y157067D01*
X94099Y156519D01*
X93110D01*
X92649Y156428D01*
X92320Y156208D01*
X91944Y156666D01*
X95001Y159723D01*
X95218Y160049D01*
X95295Y160433D01*
Y162947D01*
X95218Y163331D01*
X95001Y163656D01*
X91567Y167090D01*
X91242Y167307D01*
X90857Y167384D01*
X90334D01*
X72244Y185475D01*
Y190523D01*
X72167Y190907D01*
X71950Y191232D01*
X69874Y193308D01*
X69549Y193526D01*
X69165Y193602D01*
X61240D01*
X60856Y193526D01*
X60531Y193308D01*
X59104Y191881D01*
X58519Y192124D01*
X57697Y192232D01*
X56875Y192124D01*
X56108Y191806D01*
X55450Y191301D01*
X54946Y190644D01*
X54628Y189877D01*
X54520Y189055D01*
X54628Y188233D01*
X54946Y187467D01*
X55450Y186809D01*
X56108Y186304D01*
X56845Y185999D01*
X56878Y185979D01*
X57113Y185360D01*
X56966Y185155D01*
X56223D01*
X56223Y185155D01*
X55878Y185086D01*
X55585Y184891D01*
X55585Y184891D01*
X54097Y183403D01*
X41210D01*
X40865Y183334D01*
X40572Y183139D01*
X38445Y181012D01*
X37795Y181141D01*
X37027Y180988D01*
X36376Y180553D01*
X36221Y180321D01*
X35555Y180386D01*
X35448Y180643D01*
X35427Y180671D01*
X33254Y178498D01*
X32697Y179055D01*
X32140Y178498D01*
X29967Y180671D01*
X29946Y180643D01*
X29628Y179877D01*
X29520Y179055D01*
X29628Y178233D01*
X29946Y177467D01*
X30387Y176891D01*
X30307Y176573D01*
X30143Y176301D01*
X25394D01*
X24971Y176217D01*
X24613Y175977D01*
X15073Y166437D01*
X12992D01*
Y164603D01*
X12402Y164545D01*
X12299Y165061D01*
X12205Y165202D01*
Y166437D01*
X9055D01*
Y165202D01*
X8961Y165061D01*
X8824Y164370D01*
X8961Y163679D01*
X9055Y163538D01*
Y162303D01*
X12037D01*
X12223Y162010D01*
X12303Y161753D01*
X11081Y160531D01*
X9055D01*
Y156398D01*
X12205D01*
Y158245D01*
X12402Y158392D01*
X12992Y158097D01*
Y156398D01*
X15530D01*
Y155083D01*
X15073Y154626D01*
X12992D01*
Y150936D01*
X12795Y150805D01*
X12355Y150986D01*
X12205Y151122D01*
Y154626D01*
X9055D01*
X9055Y154626D01*
X8465Y154623D01*
X8172Y154818D01*
X7480Y154956D01*
X6789Y154818D01*
X6203Y154427D01*
X5811Y153841D01*
X5674Y153150D01*
X5811Y152458D01*
X6203Y151872D01*
X6789Y151481D01*
X7480Y151343D01*
X8172Y151481D01*
X8465Y151676D01*
X9055Y151361D01*
Y150492D01*
X11649D01*
X12017Y150492D01*
X12303Y149942D01*
X11081Y148721D01*
X9055D01*
Y144587D01*
X12205D01*
Y146434D01*
X12402Y146581D01*
X12992Y146286D01*
Y144587D01*
X16142D01*
Y146354D01*
X20564Y150776D01*
X20803Y151134D01*
X20887Y151557D01*
Y156229D01*
X23714Y159055D01*
X23953Y159414D01*
X24037Y159836D01*
Y161144D01*
X29112Y166219D01*
X57060D01*
X57239Y165628D01*
X57219Y165615D01*
X56958Y165225D01*
X56867Y164764D01*
Y163495D01*
X56789Y163480D01*
X56203Y163088D01*
X55811Y162502D01*
X55791Y162399D01*
X55186Y162024D01*
X54756Y162109D01*
X54065Y161972D01*
X53479Y161580D01*
X53087Y160994D01*
X52950Y160303D01*
X52455Y159764D01*
X51750D01*
X51500Y160138D01*
X50914Y160530D01*
X50223Y160667D01*
X49532Y160530D01*
X48946Y160138D01*
X48554Y159552D01*
X48417Y158861D01*
X48531Y158288D01*
X48214Y157697D01*
X47585D01*
X47089Y158230D01*
X46951Y158922D01*
X46560Y159508D01*
X45974Y159899D01*
X45282Y160037D01*
X44591Y159899D01*
X44005Y159508D01*
X43614Y158922D01*
X43476Y158230D01*
X43614Y157539D01*
X44005Y156953D01*
X44591Y156562D01*
X45282Y156424D01*
X45724Y156512D01*
X46080Y156155D01*
X46373Y155959D01*
X46719Y155891D01*
X46965Y155354D01*
X46865Y154942D01*
X43685D01*
X43263Y154858D01*
X42905Y154619D01*
X42832Y154545D01*
X42423Y154818D01*
X41732Y154956D01*
X41041Y154818D01*
X40455Y154427D01*
X40063Y153841D01*
X39926Y153149D01*
X40063Y152458D01*
X40455Y151872D01*
X40565Y151798D01*
X40849Y151277D01*
X40457Y150691D01*
X40319Y150000D01*
X40457Y149308D01*
X40582Y149122D01*
X40323Y148468D01*
X39962Y148227D01*
X39962Y148227D01*
X39295Y147561D01*
X38091D01*
Y149114D01*
X35728D01*
Y149508D01*
X35335D01*
Y152067D01*
X33366D01*
Y149526D01*
X32845Y149247D01*
X32776Y149294D01*
Y152067D01*
X32647D01*
Y152717D01*
X34213D01*
Y154331D01*
Y155945D01*
X29842D01*
Y152717D01*
X30424D01*
Y152067D01*
X28051D01*
Y146949D01*
X31400D01*
X32581Y145768D01*
X32478Y145358D01*
X32354Y145177D01*
X32254Y145177D01*
X30807D01*
Y143012D01*
X32776D01*
Y144316D01*
X33366Y144671D01*
Y140059D01*
X33494D01*
Y139409D01*
X31929D01*
Y137795D01*
Y136181D01*
X36299D01*
Y139409D01*
X35718D01*
Y140059D01*
X38091D01*
Y141112D01*
X41043D01*
Y140650D01*
X43843D01*
X43902Y140352D01*
X44276Y139792D01*
X44247Y139644D01*
X44076Y139201D01*
X43904D01*
X43482Y139117D01*
X43124Y138878D01*
X42441Y138195D01*
X41929Y138093D01*
X41343Y137701D01*
X40951Y137115D01*
X40814Y136424D01*
X40951Y135733D01*
X41343Y135147D01*
X41929Y134755D01*
X42620Y134618D01*
X43312Y134755D01*
X43898Y135147D01*
X44289Y135733D01*
X44329Y135935D01*
X44998Y136267D01*
X45049Y136242D01*
X44948Y135735D01*
X45085Y135044D01*
X45477Y134458D01*
X46063Y134066D01*
X46754Y133929D01*
X46874Y133952D01*
X47418Y133661D01*
X47510Y133201D01*
X47565Y133117D01*
X47723Y132677D01*
X47565Y132237D01*
X47510Y132154D01*
X47418Y131693D01*
X46863Y131454D01*
X46559Y131393D01*
X45973Y131002D01*
X45581Y130416D01*
X45443Y129724D01*
X45581Y129033D01*
X45973Y128447D01*
X46559Y128056D01*
X46863Y127995D01*
X47418Y127756D01*
X47510Y127295D01*
X47565Y127212D01*
X47723Y126772D01*
X47565Y126331D01*
X47510Y126248D01*
X47418Y125787D01*
X47510Y125327D01*
X47771Y124936D01*
X48161Y124675D01*
X48622Y124583D01*
X52559D01*
X53020Y124675D01*
X53195Y124792D01*
X54796D01*
X55141Y124861D01*
X55434Y125057D01*
X56577Y126199D01*
X56856Y126154D01*
X57168Y125986D01*
Y121050D01*
X56958Y120736D01*
X56867Y120276D01*
Y120046D01*
X56276Y119730D01*
X56203Y119779D01*
X55512Y119917D01*
X54821Y119779D01*
X54234Y119387D01*
X54186Y119315D01*
X51877D01*
X43076Y128115D01*
X42685Y128376D01*
X42224Y128468D01*
X42224Y128468D01*
X25794D01*
X22661Y131601D01*
Y140209D01*
X22734Y140258D01*
X23126Y140844D01*
X23263Y141535D01*
X23126Y142227D01*
X22734Y142813D01*
X22148Y143204D01*
X21457Y143342D01*
X20765Y143204D01*
X20179Y142813D01*
X19788Y142227D01*
X19732Y141948D01*
X19320Y141556D01*
X19101Y141569D01*
X18602Y141668D01*
X17911Y141531D01*
X17325Y141139D01*
X17209Y140966D01*
X16142D01*
Y142815D01*
X12992D01*
Y138906D01*
X12797Y138800D01*
X12609Y138843D01*
X12205Y139150D01*
X12205Y142815D01*
X9055D01*
Y142147D01*
X8381D01*
X8265Y142321D01*
X7679Y142712D01*
X6988Y142850D01*
X6297Y142712D01*
X5711Y142321D01*
X5319Y141735D01*
X5182Y141043D01*
X5319Y140352D01*
X5711Y139766D01*
X6297Y139374D01*
X6988Y139237D01*
X7679Y139374D01*
X8265Y139766D01*
X8381Y139939D01*
X9055D01*
Y138681D01*
X11647D01*
X11877Y138681D01*
X12053Y138656D01*
X12223Y138388D01*
X12303Y138131D01*
X11081Y136909D01*
X9055D01*
Y132776D01*
X12205D01*
Y134623D01*
X12402Y134770D01*
X12992Y134475D01*
Y132776D01*
X15471D01*
X15545Y132761D01*
X16862D01*
X16933Y132399D01*
X17325Y131813D01*
X17416Y131753D01*
Y131043D01*
X17325Y130982D01*
X17055Y130578D01*
X16916Y130485D01*
X16732Y130301D01*
X16142Y130546D01*
Y131004D01*
X12992D01*
Y129170D01*
X12402Y129112D01*
X12299Y129628D01*
X12205Y129769D01*
Y131004D01*
X9055D01*
Y129769D01*
X8961Y129628D01*
X8824Y128937D01*
X8961Y128246D01*
X9055Y128105D01*
Y126870D01*
X12037D01*
X12223Y126577D01*
X12303Y126320D01*
X11081Y125098D01*
X9055D01*
Y120965D01*
X12205D01*
Y122812D01*
X12402Y122959D01*
X12992Y122664D01*
Y120965D01*
X16142D01*
Y121829D01*
X17209D01*
X17325Y121656D01*
X17911Y121264D01*
X18602Y121127D01*
X19294Y121264D01*
X19880Y121656D01*
X20271Y122242D01*
X20409Y122933D01*
X20271Y123624D01*
X19880Y124210D01*
X19789Y124271D01*
Y124981D01*
X19880Y125042D01*
X20271Y125628D01*
X20409Y126319D01*
X20271Y127010D01*
X19880Y127596D01*
X19789Y127657D01*
Y128367D01*
X19880Y128427D01*
X20271Y129013D01*
X20393Y129628D01*
X20652Y129780D01*
X20976Y129880D01*
X24444Y126412D01*
X24444Y126412D01*
X24834Y126151D01*
X25295Y126059D01*
X33858D01*
Y124803D01*
X37795D01*
X41732D01*
Y125281D01*
X42278Y125507D01*
X46295Y121491D01*
X46069Y120945D01*
X45669D01*
Y119646D01*
X46890D01*
Y120124D01*
X47435Y120350D01*
X50526Y117259D01*
X50917Y116998D01*
X51378Y116906D01*
X54186D01*
X54234Y116833D01*
X54821Y116441D01*
X55512Y116304D01*
X56203Y116441D01*
X56276Y116490D01*
X56532Y116425D01*
X56895Y116194D01*
X56958Y115878D01*
X57219Y115487D01*
X57506Y115295D01*
X57446Y114803D01*
X57408Y114705D01*
X56910D01*
Y113484D01*
X58602D01*
Y112697D01*
X56910D01*
X56909Y111476D01*
X56343Y111417D01*
X54331D01*
Y109449D01*
X56496D01*
Y109055D01*
X56890D01*
Y106693D01*
X58477D01*
X58661Y106693D01*
X59135Y106411D01*
X59158Y106297D01*
X59489Y105801D01*
X59376Y105405D01*
X59257Y105196D01*
X58804Y105106D01*
X58221Y104716D01*
X57990Y104870D01*
X57645Y104939D01*
X52822D01*
X52476Y104870D01*
X52183Y104674D01*
X50381Y102872D01*
X49646D01*
X49332Y103462D01*
X49446Y104041D01*
X49382Y104363D01*
X50220Y105201D01*
X50437Y105527D01*
X50514Y105911D01*
Y109274D01*
X50788Y109457D01*
X51179Y110043D01*
X51317Y110734D01*
X51179Y111425D01*
X50788Y112011D01*
X50201Y112403D01*
X49510Y112540D01*
X48819Y112403D01*
X48233Y112011D01*
X47841Y111425D01*
X47704Y110734D01*
X47841Y110043D01*
X48233Y109457D01*
X48507Y109274D01*
Y106326D01*
X47963Y105783D01*
X47640Y105847D01*
X46949Y105709D01*
X46363Y105318D01*
X45971Y104732D01*
X45834Y104041D01*
X45866Y103881D01*
X45357Y103408D01*
X44998Y103480D01*
X44307Y103342D01*
X43721Y102951D01*
X43330Y102365D01*
X43192Y101673D01*
X42640Y101423D01*
X42460Y101442D01*
X36760Y107143D01*
X36847Y107584D01*
X36710Y108275D01*
X36668Y108337D01*
X36947Y108858D01*
X41732D01*
Y113189D01*
X38699D01*
Y114390D01*
X39470Y115162D01*
X39665Y115123D01*
X40357Y115260D01*
X40943Y115652D01*
X41193Y116026D01*
X43429D01*
X43661Y115794D01*
Y114488D01*
X46890D01*
Y117559D01*
Y118858D01*
X45276D01*
X43661D01*
Y117832D01*
X41193D01*
X40943Y118206D01*
X40357Y118598D01*
X39665Y118736D01*
X38974Y118598D01*
X38388Y118206D01*
X37997Y117620D01*
X37859Y116929D01*
X37996Y116242D01*
X37157Y115402D01*
X36961Y115109D01*
X36892Y114764D01*
Y113189D01*
X33858D01*
Y108924D01*
X33764Y108861D01*
X33602Y108620D01*
X32844Y108416D01*
X32778Y108460D01*
X32087Y108598D01*
X31513Y108484D01*
X30923Y108801D01*
Y110008D01*
X31105Y110044D01*
X31691Y110435D01*
X32082Y111021D01*
X32220Y111713D01*
X32082Y112404D01*
X31691Y112990D01*
X31105Y113382D01*
X30413Y113519D01*
X29722Y113382D01*
X29136Y112990D01*
X28745Y112404D01*
X28607Y111713D01*
X28745Y111021D01*
X29116Y110465D01*
Y105935D01*
X29185Y105590D01*
X29381Y105297D01*
X30980Y103697D01*
X31273Y103501D01*
X31619Y103433D01*
X34574D01*
X38664Y99343D01*
Y96457D01*
X26280D01*
Y97539D01*
X24803D01*
X23327D01*
Y96457D01*
X22480D01*
Y97598D01*
X20866D01*
X19252D01*
Y96457D01*
X0D01*
Y175197D01*
X15748D01*
X21654Y181102D01*
Y196850D01*
X175197D01*
Y181102D01*
D02*
G37*
G36*
X151431Y160316D02*
X151450Y160312D01*
X151623Y160197D01*
X151842Y160153D01*
X152572Y159423D01*
X152618Y159194D01*
X152814Y158901D01*
X154086Y157629D01*
X154379Y157433D01*
X154724Y157364D01*
X154725Y157365D01*
X162303D01*
Y156791D01*
X165928D01*
Y156201D01*
X162303D01*
Y155824D01*
X153871D01*
X153525Y155756D01*
X153334Y155628D01*
X149193D01*
X146931Y157889D01*
X147126Y158530D01*
X147352Y158575D01*
X147938Y158967D01*
X148330Y159553D01*
X148403Y159920D01*
X148539Y160035D01*
X149005Y160283D01*
X149031Y160284D01*
X149409Y160209D01*
X149947Y160316D01*
X150403Y160621D01*
X150975D01*
X151431Y160316D01*
D02*
G37*
G36*
X87054Y159770D02*
X87118Y159727D01*
X87141Y159709D01*
X87215Y159594D01*
X87348Y159070D01*
X87256Y158932D01*
X87187Y158587D01*
Y156801D01*
X86369Y155983D01*
X86173Y155690D01*
X86105Y155345D01*
Y155015D01*
X85514Y154700D01*
X85337Y154818D01*
X84645Y154956D01*
X83954Y154818D01*
X83368Y154427D01*
X82977Y153841D01*
X82839Y153149D01*
X82977Y152458D01*
X83368Y151872D01*
X83441Y151823D01*
Y149761D01*
X83441Y149761D01*
X83533Y149301D01*
X83794Y148910D01*
X87182Y145522D01*
Y140366D01*
X86591Y140187D01*
X86415Y140451D01*
X85829Y140842D01*
X85138Y140980D01*
X84447Y140842D01*
X83860Y140451D01*
X83842Y140422D01*
X83080Y140345D01*
X82778Y140547D01*
X82087Y140684D01*
X81395Y140547D01*
X80809Y140155D01*
X80418Y139569D01*
X80280Y138878D01*
X80418Y138187D01*
X80809Y137601D01*
X80777Y136912D01*
X79708Y135844D01*
X77996D01*
X77867Y135973D01*
X77574Y136169D01*
X77228Y136238D01*
X73559D01*
X73213Y136169D01*
X72921Y135973D01*
X70326Y133379D01*
X70130Y133086D01*
X70061Y132740D01*
Y125800D01*
X65690Y121429D01*
X65484Y121388D01*
X65401Y121333D01*
X64961Y121175D01*
X64520Y121333D01*
X64437Y121388D01*
X63976Y121480D01*
X63516Y121388D01*
X63432Y121333D01*
X62992Y121175D01*
X62552Y121333D01*
X62469Y121388D01*
X62008Y121480D01*
X61547Y121388D01*
X61464Y121333D01*
X61024Y121175D01*
X60583Y121333D01*
X60500Y121388D01*
X60433Y121402D01*
Y118307D01*
X59646D01*
Y121402D01*
X59579Y121388D01*
X59565Y121379D01*
X58974Y121695D01*
Y126414D01*
X59255Y126645D01*
X59946Y126782D01*
X60532Y127174D01*
X60924Y127760D01*
X61061Y128451D01*
X61025Y128634D01*
X67422Y135031D01*
X68015Y134913D01*
X68706Y135050D01*
X69292Y135442D01*
X69684Y136028D01*
X69822Y136719D01*
X69684Y137410D01*
X69292Y137997D01*
X68706Y138388D01*
X68015Y138526D01*
X67324Y138388D01*
X66738Y137997D01*
X66346Y137410D01*
X66209Y136719D01*
X66219Y136667D01*
X59718Y130165D01*
X59255Y130257D01*
X59040Y130215D01*
X58583Y130589D01*
Y132835D01*
X58867Y133118D01*
X59063Y133411D01*
X59131Y133757D01*
Y137310D01*
X59722Y137625D01*
X60040Y137413D01*
X60731Y137275D01*
X61423Y137413D01*
X62009Y137804D01*
X62400Y138390D01*
X62538Y139082D01*
X62400Y139773D01*
X62009Y140359D01*
X61423Y140751D01*
X60731Y140888D01*
X60313Y141232D01*
Y143668D01*
X60244Y144014D01*
X60048Y144307D01*
X60229Y144827D01*
X60330Y144978D01*
X60468Y145669D01*
X60330Y146360D01*
X59939Y146946D01*
X59353Y147338D01*
X59583Y147840D01*
X59623Y147903D01*
X59646Y147898D01*
X59789Y147927D01*
X59842Y147916D01*
X60188Y147985D01*
X60233Y148015D01*
X60337Y148036D01*
X60923Y148427D01*
X61314Y149013D01*
X61417Y149528D01*
X61594Y149770D01*
X62004Y149957D01*
X62458Y149867D01*
X63149Y150004D01*
X63735Y150396D01*
X64127Y150982D01*
X64153Y151112D01*
X64663Y151481D01*
X65354Y151343D01*
X66046Y151481D01*
X66632Y151872D01*
X67023Y152458D01*
X67161Y153150D01*
X67120Y153354D01*
X70662Y156897D01*
X70902Y157255D01*
X70986Y157677D01*
Y159274D01*
X71094Y159392D01*
X71576Y159677D01*
X71850Y159623D01*
X72311Y159714D01*
X72394Y159770D01*
X72835Y159928D01*
X73275Y159770D01*
X73358Y159714D01*
X73819Y159623D01*
X74166Y159089D01*
X74130Y159036D01*
X73977Y158268D01*
X74130Y157500D01*
X74565Y156849D01*
X74654Y156789D01*
X74672Y156566D01*
X74590Y156121D01*
X74116Y155805D01*
X73725Y155219D01*
X73587Y154528D01*
X73725Y153836D01*
X74116Y153250D01*
X74390Y153067D01*
Y150011D01*
X72749Y148370D01*
X72716Y148347D01*
X72321Y147952D01*
X71539D01*
X71356Y148226D01*
X70770Y148618D01*
X70079Y148755D01*
X69388Y148618D01*
X68801Y148226D01*
X68410Y147640D01*
X68272Y146949D01*
X68410Y146258D01*
X68801Y145671D01*
X69388Y145280D01*
X70079Y145142D01*
X70770Y145280D01*
X71356Y145671D01*
X71539Y145945D01*
X72736D01*
X73120Y146022D01*
X73446Y146239D01*
X74112Y146906D01*
X74146Y146928D01*
X76103Y148886D01*
X76321Y149211D01*
X76397Y149595D01*
Y153067D01*
X76671Y153250D01*
X77063Y153836D01*
X77200Y154528D01*
X77063Y155219D01*
X76671Y155805D01*
X76752Y156413D01*
X77403Y156849D01*
X77838Y157500D01*
X77991Y158268D01*
X77838Y159036D01*
X77828Y159052D01*
X78110Y159693D01*
X78217Y159714D01*
X78300Y159770D01*
X78740Y159928D01*
X79180Y159770D01*
X79264Y159714D01*
X79724Y159623D01*
X80185Y159714D01*
X80268Y159770D01*
X80709Y159928D01*
X81149Y159770D01*
X81232Y159714D01*
X81693Y159623D01*
X82154Y159714D01*
X82237Y159770D01*
X82677Y159928D01*
X83117Y159770D01*
X83201Y159714D01*
X83661Y159623D01*
X84122Y159714D01*
X84205Y159770D01*
X84646Y159928D01*
X85086Y159770D01*
X85169Y159714D01*
X85630Y159623D01*
X86091Y159714D01*
X86174Y159770D01*
X86614Y159928D01*
X87054Y159770D01*
D02*
G37*
G36*
X147839Y151035D02*
X148132Y150839D01*
X148477Y150770D01*
X153689D01*
X153939Y150396D01*
X154525Y150004D01*
X155217Y149867D01*
X155908Y150004D01*
X156494Y150396D01*
X156885Y150982D01*
X157023Y151673D01*
X156909Y152246D01*
X157226Y152837D01*
X160945D01*
X162303Y151479D01*
Y149705D01*
X165928D01*
Y149114D01*
X162303D01*
Y147340D01*
X162224Y147261D01*
X150295D01*
X149950Y147193D01*
X149657Y146997D01*
X149626Y146966D01*
X147405D01*
X147154Y147340D01*
X146569Y147732D01*
X145877Y147869D01*
X145186Y147732D01*
X144600Y147340D01*
X144208Y146754D01*
X144071Y146063D01*
X144185Y145490D01*
X143891Y144942D01*
X143446Y144899D01*
X143405D01*
X143369Y144892D01*
X143318Y144887D01*
X142796Y145228D01*
X142734Y145322D01*
Y153445D01*
X142665Y153790D01*
X142469Y154084D01*
X140501Y156052D01*
X140208Y156248D01*
X139862Y156317D01*
X135837D01*
X135155Y156998D01*
Y158373D01*
X135391Y158548D01*
X136141Y158410D01*
X136229Y158278D01*
X136816Y157886D01*
X137507Y157749D01*
X138198Y157886D01*
X138784Y158278D01*
X139034Y158652D01*
X140221D01*
X147839Y151035D01*
D02*
G37*
G36*
X111891Y164548D02*
X112282Y164075D01*
Y162500D01*
X112366Y162078D01*
X112605Y161719D01*
X112963Y161480D01*
X113386Y161396D01*
X113961Y160926D01*
Y157231D01*
X114045Y156809D01*
X114284Y156451D01*
X115170Y155565D01*
X114961Y155061D01*
Y152854D01*
X114173D01*
Y155020D01*
X112205D01*
Y155020D01*
X111811D01*
Y155020D01*
X109843D01*
Y152854D01*
X109449D01*
Y152461D01*
X107025D01*
X106541Y152260D01*
X103366Y155435D01*
Y161198D01*
X104943Y162776D01*
X109055D01*
X109439Y162852D01*
X109765Y163070D01*
X111263Y164568D01*
X111891Y164548D01*
D02*
G37*
G36*
X137994Y146301D02*
X138580Y145910D01*
X139272Y145772D01*
X139963Y145910D01*
X140337Y146160D01*
X140928Y145886D01*
Y145162D01*
X139441Y143675D01*
X139173Y143728D01*
X138636Y143621D01*
X138180Y143316D01*
X137875Y142860D01*
X137768Y142323D01*
Y139173D01*
X137875Y138636D01*
X138180Y138180D01*
X138270Y138119D01*
Y134377D01*
X138339Y134031D01*
X138535Y133739D01*
X139469Y132805D01*
Y131201D01*
X142421D01*
Y135952D01*
X142567Y136170D01*
X142636Y136516D01*
X142636Y136516D01*
Y137537D01*
X143226Y137785D01*
X143388Y137627D01*
Y136319D01*
X143405Y136232D01*
Y133169D01*
X144882D01*
X146358D01*
Y134153D01*
Y137264D01*
X146457Y137708D01*
Y140748D01*
X147244D01*
Y137708D01*
X147343Y137264D01*
Y134153D01*
Y133169D01*
X148819D01*
Y132382D01*
X147343D01*
Y131201D01*
X147982D01*
X148208Y130655D01*
X147491Y129939D01*
X138169D01*
X135531Y132577D01*
Y133957D01*
X132579D01*
Y133285D01*
X130300D01*
X130116Y133561D01*
X129530Y133952D01*
X128839Y134090D01*
X128147Y133952D01*
X127561Y133561D01*
X127170Y132975D01*
X127032Y132283D01*
X127143Y131725D01*
X126805Y131406D01*
X126665Y131335D01*
X126577Y131393D01*
X125886Y131531D01*
X125195Y131393D01*
X124609Y131002D01*
X124217Y130416D01*
X124080Y129724D01*
X124217Y129033D01*
X124609Y128447D01*
X125195Y128056D01*
X125886Y127918D01*
X126577Y128056D01*
X127163Y128447D01*
X127413Y128821D01*
X132579D01*
Y127893D01*
X132283Y127624D01*
X132091Y127563D01*
X131505Y127954D01*
X130814Y128092D01*
X130122Y127954D01*
X129536Y127563D01*
X129145Y126977D01*
X129007Y126286D01*
X129145Y125594D01*
X129536Y125008D01*
X129460Y124349D01*
X129243Y124024D01*
X129105Y123333D01*
X128806Y123033D01*
X128642Y123066D01*
X127951Y122929D01*
X127869Y122874D01*
X125138D01*
Y121260D01*
X124744D01*
Y120866D01*
X123051D01*
Y120069D01*
X122509Y119707D01*
X122212Y119855D01*
X121382Y120685D01*
Y123419D01*
X121382Y123419D01*
X121313Y123765D01*
X121302Y123781D01*
X121451Y124382D01*
X121538Y124467D01*
X122045Y124805D01*
X122437Y125391D01*
X122574Y126083D01*
X122437Y126774D01*
X122343Y126915D01*
Y130526D01*
X123418Y131601D01*
X123506Y131733D01*
X123615Y131842D01*
X123854Y132200D01*
X123939Y132622D01*
Y137830D01*
X125190Y139082D01*
X125429Y139440D01*
X125513Y139862D01*
Y144740D01*
X125429Y145162D01*
X125190Y145520D01*
X124556Y146155D01*
X124430Y146239D01*
X124609Y146829D01*
X137642D01*
X137994Y146301D01*
D02*
G37*
G36*
X114665Y143839D02*
Y140157D01*
X118996D01*
Y142334D01*
X119073Y142380D01*
X119587Y142089D01*
Y140157D01*
X121358D01*
Y142520D01*
X122146D01*
Y140157D01*
X122372D01*
X122598Y139612D01*
X122054Y139068D01*
X121815Y138710D01*
X121731Y138287D01*
Y137216D01*
X121140Y136972D01*
X119733Y138379D01*
X119375Y138618D01*
X118952Y138702D01*
X105610D01*
X105332Y138647D01*
X104889Y138894D01*
X104742Y139031D01*
Y139400D01*
X104673Y139745D01*
X104477Y140038D01*
X103763Y140753D01*
Y142418D01*
X105139Y143794D01*
X110810D01*
X111130Y143316D01*
X111716Y142925D01*
X112407Y142787D01*
X113098Y142925D01*
X113684Y143316D01*
X114076Y143902D01*
X114665Y143839D01*
D02*
G37*
G36*
X107087Y148876D02*
Y145768D01*
X106565Y145601D01*
X104765D01*
X104419Y145532D01*
X104126Y145336D01*
X102221Y143431D01*
X102025Y143138D01*
X101956Y142792D01*
Y140499D01*
X101936Y140399D01*
X102005Y140053D01*
X102201Y139760D01*
X102705Y139256D01*
X102498Y138786D01*
X102424Y138702D01*
X98600D01*
X98482Y138811D01*
X98197Y139293D01*
X98251Y139567D01*
X98160Y140028D01*
X98104Y140111D01*
X97946Y140551D01*
X98104Y140991D01*
X98160Y141075D01*
X98204Y141295D01*
X99359Y142451D01*
X99359Y142451D01*
X99555Y142744D01*
X99624Y143089D01*
X99624Y143089D01*
Y145492D01*
X101721Y147590D01*
X101917Y147883D01*
X101986Y148228D01*
Y153205D01*
X102531Y153431D01*
X107087Y148876D01*
D02*
G37*
G36*
X99586Y132414D02*
X99836Y131967D01*
X99782Y131693D01*
X99866Y131271D01*
X100105Y130912D01*
X100463Y130673D01*
X100886Y130589D01*
X102455D01*
Y129293D01*
X102369Y129236D01*
X101978Y128650D01*
X101840Y127959D01*
X101978Y127268D01*
X101844Y126944D01*
X101479Y126872D01*
X100893Y126480D01*
X100502Y125894D01*
X100364Y125203D01*
X100502Y124512D01*
X100893Y123926D01*
X101479Y123534D01*
X102170Y123397D01*
X102862Y123534D01*
X103448Y123926D01*
X103568Y124106D01*
X104225Y124154D01*
X104700Y123679D01*
X104993Y123483D01*
X105339Y123414D01*
X107160D01*
X107506Y123483D01*
X107799Y123679D01*
X108420Y124300D01*
X114577D01*
X114640Y124238D01*
X114660Y124214D01*
X114835Y123624D01*
X114774Y123532D01*
X114636Y122841D01*
X114684Y122600D01*
X112517Y120433D01*
X107467D01*
X107083Y120356D01*
X106758Y120139D01*
X104605Y117986D01*
X104506Y117976D01*
X103543Y118939D01*
Y121850D01*
X98819D01*
Y121850D01*
X98524D01*
Y121850D01*
X93799D01*
Y121850D01*
X93405Y121885D01*
X93220Y121848D01*
X92714Y121748D01*
X92128Y121356D01*
X91737Y120770D01*
X91674Y120453D01*
X90413D01*
Y117067D01*
Y116083D01*
X92028D01*
Y115689D01*
X92421D01*
Y113996D01*
X93642Y113996D01*
X93799Y113471D01*
Y112598D01*
X95768D01*
Y114764D01*
X96555D01*
Y112598D01*
X97208D01*
X97266Y112008D01*
X96750Y111905D01*
X96164Y111513D01*
X95772Y110927D01*
X95635Y110236D01*
X95772Y109545D01*
X96164Y108959D01*
X96750Y108567D01*
X97441Y108430D01*
X98132Y108567D01*
X98643Y108908D01*
X100376Y107175D01*
Y106329D01*
X100445Y105983D01*
X100641Y105690D01*
X101852Y104479D01*
X102145Y104284D01*
X102490Y104215D01*
X104774D01*
X104909Y104079D01*
Y103873D01*
X104978Y103528D01*
X105174Y103235D01*
X107008Y101401D01*
Y99961D01*
X107008D01*
Y99646D01*
X107008D01*
Y96417D01*
X108880D01*
Y96220D01*
X108949Y95875D01*
X109145Y95582D01*
X109243Y95483D01*
X109536Y95288D01*
X109882Y95219D01*
X116477D01*
X116533Y95182D01*
X117224Y95044D01*
X117916Y95182D01*
X118502Y95573D01*
X118893Y96159D01*
X119031Y96850D01*
X118893Y97542D01*
X118880Y97562D01*
X119106Y98286D01*
X119300Y98416D01*
X119605Y98872D01*
X119712Y99409D01*
X120202Y99973D01*
X120382Y100009D01*
X120968Y100401D01*
X121360Y100987D01*
X121497Y101678D01*
X121360Y102369D01*
X120968Y102955D01*
X120382Y103347D01*
X119944Y103434D01*
X119639Y103935D01*
X119630Y103966D01*
X119618Y104055D01*
X119712Y104528D01*
X119605Y105065D01*
X119407Y105362D01*
X119611Y105885D01*
X119669Y105952D01*
X122266D01*
X122688Y106036D01*
X123047Y106275D01*
X126279Y109508D01*
X126518Y109866D01*
X126602Y110288D01*
Y110474D01*
X128886Y112758D01*
X129337Y112668D01*
X130028Y112805D01*
X130614Y113197D01*
X131006Y113783D01*
X131143Y114474D01*
X131006Y115165D01*
X130614Y115751D01*
X130593Y115765D01*
X130535Y116353D01*
X133653Y119471D01*
X136868D01*
X137324Y118880D01*
X137268Y118602D01*
X137406Y117911D01*
X137797Y117325D01*
X138383Y116934D01*
X139021Y116807D01*
X139100Y116760D01*
X139100Y116759D01*
X138788Y116169D01*
X137598D01*
X137061Y116062D01*
X136605Y115757D01*
X136300Y115301D01*
X136194Y114764D01*
X136300Y114226D01*
X136605Y113770D01*
Y113673D01*
X136052Y113108D01*
X133169D01*
X133169Y113108D01*
X132824Y113039D01*
X132531Y112843D01*
X132531Y112843D01*
X126631Y106944D01*
X126436Y106651D01*
X126367Y106305D01*
Y98973D01*
X125993Y98723D01*
X125601Y98137D01*
X125464Y97446D01*
X125601Y96754D01*
X125993Y96168D01*
X126579Y95777D01*
X127270Y95639D01*
X127961Y95777D01*
X128547Y96168D01*
X128939Y96754D01*
X129076Y97446D01*
X128939Y98137D01*
X128547Y98723D01*
X128173Y98973D01*
Y105931D01*
X130501Y108259D01*
X130684Y108232D01*
X131104Y108027D01*
X131212Y107483D01*
X131603Y106897D01*
X132189Y106506D01*
X132880Y106368D01*
X133230Y106438D01*
X133450Y106218D01*
X133516Y105885D01*
X133712Y105592D01*
X135415Y103889D01*
X135415Y103889D01*
X135708Y103693D01*
X136053Y103624D01*
X136171D01*
X136341Y103376D01*
X136357Y103301D01*
X136205Y102629D01*
X136172Y102607D01*
X136172Y102607D01*
X133515Y99950D01*
X133319Y99657D01*
X133250Y99311D01*
Y98968D01*
X132876Y98718D01*
X132485Y98132D01*
X132347Y97441D01*
X132485Y96750D01*
X132876Y96164D01*
X133462Y95772D01*
X134153Y95635D01*
X134595Y95722D01*
X135266Y95051D01*
X135040Y94506D01*
X125679D01*
X125269Y94971D01*
X125330Y95276D01*
X125192Y95967D01*
X124801Y96553D01*
X124215Y96944D01*
X123524Y97082D01*
X122832Y96944D01*
X122246Y96553D01*
X121974Y96144D01*
X121800Y96110D01*
X121507Y95914D01*
X118113Y92520D01*
X115097D01*
X114767Y93014D01*
X114181Y93406D01*
X113490Y93543D01*
X112799Y93406D01*
X112213Y93014D01*
X111962Y92640D01*
X109866D01*
X109849Y92729D01*
X109457Y93315D01*
X108871Y93707D01*
X108180Y93844D01*
X107489Y93707D01*
X106903Y93315D01*
X106677Y92977D01*
X106025Y92851D01*
X105949Y92870D01*
X102362Y96457D01*
X99213D01*
Y96555D01*
X97736D01*
Y96949D01*
X97342D01*
Y98524D01*
X96260D01*
X96102Y98602D01*
Y98602D01*
X94882D01*
Y96909D01*
X94488D01*
Y96516D01*
X92874D01*
Y96457D01*
X89378D01*
X89152Y97002D01*
X90029Y97880D01*
X90290Y98270D01*
X90382Y98731D01*
Y103008D01*
X90290Y103468D01*
X90029Y103859D01*
X90029Y103859D01*
X89663Y104225D01*
X89693Y104374D01*
X89693Y104374D01*
Y111772D01*
X89842D01*
Y113949D01*
X90413Y113996D01*
Y113996D01*
X91634D01*
Y115295D01*
X90413D01*
Y115048D01*
X89842Y115000D01*
Y115000D01*
X88803D01*
Y118307D01*
Y121463D01*
X88796Y121497D01*
X89081Y122156D01*
X89667Y122548D01*
X90059Y123134D01*
X90197Y123825D01*
X90109Y124266D01*
X90727Y124884D01*
X92336D01*
X92649Y124675D01*
X93110Y124583D01*
X97047D01*
X97508Y124675D01*
X97899Y124936D01*
X98160Y125327D01*
X98251Y125787D01*
X98160Y126248D01*
X97899Y126639D01*
Y126904D01*
X98160Y127295D01*
X98251Y127756D01*
X98160Y128217D01*
X98104Y128300D01*
X97946Y128740D01*
X98104Y129180D01*
X98160Y129264D01*
X98251Y129724D01*
X98160Y130185D01*
X98104Y130268D01*
X97946Y130709D01*
X98104Y131149D01*
X98160Y131232D01*
X98251Y131693D01*
X98197Y131967D01*
X98482Y132449D01*
X98600Y132557D01*
X99451D01*
X99586Y132414D01*
D02*
G37*
G36*
X76005Y131940D02*
X76005Y131940D01*
X76298Y131744D01*
X76644Y131676D01*
X76644Y131676D01*
X77362D01*
X77377Y131678D01*
X77392Y131676D01*
X80435D01*
X80680Y131085D01*
X78975Y129380D01*
X78714Y128990D01*
X78623Y128529D01*
X78623Y128529D01*
Y125291D01*
X78623Y125291D01*
X78714Y124830D01*
X78975Y124440D01*
X79562Y123853D01*
X79562Y123853D01*
X79953Y123592D01*
X80413Y123501D01*
X83671D01*
X85119Y122053D01*
X85017Y121469D01*
X84503Y121226D01*
X84205Y121333D01*
X84122Y121388D01*
X83661Y121480D01*
X83201Y121388D01*
X83117Y121333D01*
X82677Y121175D01*
X82237Y121333D01*
X82154Y121388D01*
X81693Y121480D01*
X81232Y121388D01*
X81149Y121333D01*
X80709Y121175D01*
X80268Y121333D01*
X80185Y121388D01*
X79724Y121480D01*
X79264Y121388D01*
X79180Y121333D01*
X78740Y121175D01*
X78300Y121333D01*
X78217Y121388D01*
X77756Y121480D01*
X77295Y121388D01*
X77212Y121333D01*
X76772Y121175D01*
X76331Y121333D01*
X76248Y121388D01*
X75787Y121480D01*
X75327Y121388D01*
X75243Y121333D01*
X74803Y121175D01*
X74363Y121333D01*
X74280Y121388D01*
X73819Y121480D01*
X73358Y121388D01*
X73275Y121333D01*
X73067Y121468D01*
X72988Y122224D01*
X73965Y123201D01*
X74161Y123494D01*
X74230Y123840D01*
Y131388D01*
X74912Y132069D01*
X75876D01*
X76005Y131940D01*
D02*
G37*
G36*
X158661Y123329D02*
Y120571D01*
X160138D01*
Y119783D01*
X158661D01*
Y118602D01*
X158104Y118521D01*
X153321D01*
X150430Y121412D01*
X150137Y121608D01*
X149792Y121677D01*
X144436D01*
X144095Y122018D01*
Y123622D01*
X141142D01*
Y122950D01*
X137926D01*
X137581Y122882D01*
X137288Y122686D01*
X137060Y122458D01*
X135630D01*
Y123454D01*
X136564Y124388D01*
X136698Y124589D01*
X151004D01*
X151324Y123998D01*
X151211Y123432D01*
X151348Y122740D01*
X151740Y122154D01*
X152326Y121763D01*
X153017Y121625D01*
X153708Y121763D01*
X153771Y121804D01*
X154427Y121532D01*
X154441Y121460D01*
X154833Y120874D01*
X155419Y120483D01*
X156110Y120345D01*
X156801Y120483D01*
X157387Y120874D01*
X157779Y121460D01*
X157916Y122152D01*
X157779Y122843D01*
X157387Y123429D01*
X156809Y123816D01*
Y124410D01*
X157354Y124636D01*
X158661Y123329D01*
D02*
G37*
G36*
X165746Y125496D02*
X166437Y125359D01*
X166878Y125447D01*
X169418Y122907D01*
X169224Y122266D01*
X169092Y122240D01*
X168506Y121848D01*
X168115Y121262D01*
X167977Y120571D01*
X168115Y119880D01*
X168326Y119562D01*
X168092Y118914D01*
X168018Y118899D01*
X167432Y118507D01*
X167182Y118133D01*
X166119D01*
X165995Y118257D01*
X165702Y118453D01*
X165596Y118474D01*
X165059Y118602D01*
Y119783D01*
X163583D01*
Y120571D01*
X165059D01*
Y123601D01*
X165084Y123728D01*
Y125228D01*
X165675Y125544D01*
X165746Y125496D01*
D02*
G37*
G36*
X150795Y109124D02*
X151378Y109240D01*
X151969Y108928D01*
Y104429D01*
X161248D01*
X161272Y104307D01*
X161468Y104014D01*
X161987Y103495D01*
X162280Y103299D01*
X162538Y103248D01*
X162480Y102657D01*
X158377D01*
X158376Y102658D01*
X157685Y102796D01*
X156994Y102658D01*
X156993Y102657D01*
X151969D01*
Y100470D01*
X151378Y100290D01*
X151179Y100588D01*
X150593Y100980D01*
X149902Y101117D01*
X149488Y101035D01*
X148898Y101427D01*
Y103189D01*
X147176D01*
X146242Y104123D01*
X145949Y104319D01*
X145603Y104387D01*
X143839D01*
X143060Y105166D01*
X142767Y105362D01*
X142421Y105431D01*
X141802D01*
X141742Y105521D01*
Y106093D01*
X142046Y106549D01*
X142080Y106721D01*
X142282Y106848D01*
X142729Y106953D01*
X142886Y106848D01*
X143232Y106779D01*
X143232Y106779D01*
X146238D01*
X146584Y106848D01*
X146877Y107044D01*
X147865Y108031D01*
X149587D01*
Y108985D01*
X149936Y109172D01*
X150177Y109247D01*
X150795Y109124D01*
D02*
G37*
G36*
X85472Y111772D02*
X87284D01*
Y105139D01*
X85703D01*
X84939Y105903D01*
X84980Y106107D01*
X84842Y106799D01*
X84451Y107385D01*
X83965Y107710D01*
X83847Y107873D01*
X83753Y108401D01*
X83811Y108488D01*
X83880Y108834D01*
Y111772D01*
X84685D01*
Y113386D01*
X85472D01*
Y111772D01*
D02*
G37*
G36*
X58387Y100346D02*
X58492Y100276D01*
X58312Y99685D01*
X57047D01*
Y98386D01*
X58661D01*
Y97598D01*
X57047D01*
Y96457D01*
X52142D01*
X51811Y97012D01*
X51813Y97047D01*
X51891Y97441D01*
X51825Y97772D01*
X51866Y97832D01*
X52003Y98524D01*
X51866Y99215D01*
X51856Y99230D01*
X51891Y99410D01*
X51807Y99832D01*
X51868Y100139D01*
X51883Y100149D01*
X53685Y101951D01*
X56781D01*
X58387Y100346D01*
D02*
G37*
G36*
X72447Y100204D02*
X73033Y99813D01*
X73724Y99675D01*
X74369Y99803D01*
X74606Y99284D01*
Y96179D01*
X74016Y95863D01*
X73959Y95901D01*
X73268Y96039D01*
X72576Y95901D01*
X71990Y95510D01*
X71599Y94924D01*
X71461Y94232D01*
X71599Y93541D01*
X71990Y92955D01*
X72576Y92563D01*
X72719Y92535D01*
Y92392D01*
X72788Y92046D01*
X72983Y91753D01*
X73211Y91525D01*
Y86614D01*
X73280Y86269D01*
X73475Y85975D01*
X77463Y81988D01*
X77218Y81398D01*
X74606D01*
Y70588D01*
X70934D01*
X69998Y71525D01*
Y75967D01*
X70175Y76085D01*
X70566Y76671D01*
X70704Y77362D01*
X70566Y78053D01*
X70175Y78640D01*
X69589Y79031D01*
X69374Y79074D01*
X68883Y79274D01*
X68817Y79741D01*
Y81718D01*
X70521Y83422D01*
X70716Y83715D01*
X70785Y84061D01*
Y100394D01*
X72320D01*
X72447Y100204D01*
D02*
G37*
G36*
X64961Y96457D02*
X65435Y96260D01*
Y88677D01*
X64845Y88362D01*
X64668Y88480D01*
X63976Y88617D01*
X63285Y88480D01*
X62699Y88088D01*
X62308Y87502D01*
X62170Y86811D01*
X62187Y86725D01*
X62042Y86580D01*
X61802Y86220D01*
X61767Y86186D01*
X61149Y86038D01*
X60600Y86586D01*
X60665Y86910D01*
X60527Y87601D01*
X60136Y88187D01*
X59549Y88578D01*
X58858Y88716D01*
X58167Y88578D01*
X57581Y88187D01*
X57189Y87601D01*
X57052Y86910D01*
X57189Y86218D01*
X57581Y85632D01*
X58167Y85241D01*
X58858Y85103D01*
X59181Y85167D01*
X60217Y84132D01*
Y82350D01*
X59527Y81659D01*
X59309Y81334D01*
X59233Y80950D01*
Y79588D01*
X58900Y79135D01*
X58900Y79135D01*
Y79135D01*
X58642Y79110D01*
X58637Y79136D01*
X58559Y79530D01*
X58167Y80116D01*
X57581Y80507D01*
X56890Y80645D01*
X56449Y80557D01*
X56052Y80954D01*
X55759Y81149D01*
X55413Y81218D01*
X53839D01*
Y81791D01*
X53658D01*
X53364Y82382D01*
X53482Y82977D01*
X53345Y83668D01*
X52953Y84254D01*
X52367Y84645D01*
X51676Y84783D01*
X50985Y84645D01*
X50398Y84254D01*
X50007Y83668D01*
X49869Y82977D01*
X49932Y82664D01*
X49059Y81791D01*
X47736D01*
Y78839D01*
X48307D01*
Y78248D01*
X47736D01*
Y75295D01*
X51476D01*
Y76772D01*
Y78248D01*
X50315D01*
Y78839D01*
X53839D01*
Y79412D01*
X54603D01*
X55084Y78840D01*
X55083Y78839D01*
X55221Y78147D01*
X55612Y77561D01*
X56199Y77170D01*
X56890Y77032D01*
X57581Y77170D01*
X58167Y77561D01*
X58559Y78147D01*
X58637Y78541D01*
X58642Y78567D01*
X58900Y78542D01*
Y78542D01*
X58900Y78542D01*
X59233Y78089D01*
Y73775D01*
X59309Y73391D01*
X59527Y73065D01*
X60217Y72375D01*
Y70101D01*
X56254Y66138D01*
X55785Y66045D01*
X55199Y65653D01*
X54808Y65067D01*
X54670Y64376D01*
X54808Y63685D01*
X55199Y63099D01*
X55785Y62707D01*
X56476Y62570D01*
X57168Y62707D01*
X57296Y62793D01*
X57929Y62506D01*
X57940Y62423D01*
X58198Y61800D01*
X58608Y61265D01*
X59143Y60855D01*
X59765Y60597D01*
X60335Y60522D01*
Y57776D01*
X63189D01*
X63505Y57645D01*
X64173Y57557D01*
X64841Y57645D01*
X65158Y57776D01*
X66618D01*
Y54697D01*
X66695Y54313D01*
X66912Y53987D01*
X67402Y53497D01*
Y51673D01*
X65158D01*
X64841Y51804D01*
X64173Y51892D01*
X55547D01*
X55192Y52483D01*
X55594Y54156D01*
X55747Y56102D01*
X55594Y58048D01*
X55138Y59947D01*
X54391Y61750D01*
X53371Y63414D01*
X52103Y64899D01*
X50619Y66167D01*
X48955Y67186D01*
X47151Y67933D01*
X45253Y68389D01*
X43307Y68542D01*
X41361Y68389D01*
X39463Y67933D01*
X37659Y67186D01*
X35995Y66167D01*
X34511Y64899D01*
X33243Y63414D01*
X32223Y61750D01*
X31476Y59947D01*
X31020Y58048D01*
X30867Y56102D01*
X31020Y54156D01*
X31476Y52258D01*
X32223Y50455D01*
X33243Y48790D01*
X34511Y47306D01*
X35995Y46038D01*
X37659Y45018D01*
X39463Y44271D01*
X41361Y43816D01*
X43307Y43662D01*
X45253Y43816D01*
X47151Y44271D01*
X48955Y45018D01*
X50619Y46038D01*
X51429Y46730D01*
X64173D01*
X64841Y46818D01*
X65158Y46949D01*
X67402D01*
Y46282D01*
X63857Y42737D01*
X63640Y42412D01*
X63563Y42028D01*
Y36220D01*
X62008D01*
Y31496D01*
X67126D01*
Y36220D01*
X65570D01*
Y41612D01*
X66074Y42115D01*
X66541Y41973D01*
X66674Y41880D01*
X67033Y41343D01*
X67619Y40951D01*
X67712Y40933D01*
X68072Y40342D01*
X67977Y39862D01*
X68115Y39171D01*
X68506Y38585D01*
X69092Y38193D01*
X69784Y38056D01*
X70475Y38193D01*
X71061Y38585D01*
X71452Y39171D01*
X71590Y39862D01*
X71502Y40304D01*
X71505Y40306D01*
X71701Y40599D01*
X71769Y40945D01*
Y42353D01*
X72315Y42579D01*
X74686Y40208D01*
X74979Y40012D01*
X75325Y39943D01*
X78000D01*
X78250Y39569D01*
X78836Y39178D01*
X79528Y39040D01*
X80219Y39178D01*
X80805Y39569D01*
X81196Y40155D01*
X81334Y40846D01*
X81196Y41538D01*
X80805Y42124D01*
X80219Y42515D01*
X79528Y42653D01*
X78836Y42515D01*
X78250Y42124D01*
X78000Y41750D01*
X77382D01*
X77108Y42340D01*
X77358Y42714D01*
X77495Y43406D01*
X77358Y44097D01*
X76966Y44683D01*
X76380Y45074D01*
X75689Y45212D01*
X75248Y45124D01*
X74132Y46240D01*
Y55059D01*
X74424Y55254D01*
X74722Y55372D01*
X75299Y55296D01*
X75967Y55384D01*
X76590Y55642D01*
X77124Y56052D01*
X77139Y56071D01*
X80991D01*
X81682Y56208D01*
X82268Y56599D01*
X86216Y60548D01*
X86707Y60220D01*
X86594Y59947D01*
X86138Y58048D01*
X85985Y56102D01*
X86138Y54156D01*
X86594Y52258D01*
X87341Y50455D01*
X88361Y48790D01*
X89629Y47306D01*
X91113Y46038D01*
X92778Y45018D01*
X94581Y44271D01*
X96479Y43816D01*
X98425Y43662D01*
X100371Y43816D01*
X102269Y44271D01*
X104073Y45018D01*
X105737Y46038D01*
X107222Y47306D01*
X108489Y48790D01*
X109509Y50455D01*
X110256Y52258D01*
X110712Y54156D01*
X110723Y54296D01*
X111850D01*
X124904Y41242D01*
X125490Y40851D01*
X126181Y40713D01*
X140222D01*
X145277Y35659D01*
X144939Y35162D01*
X144390Y35271D01*
X143699Y35133D01*
X143113Y34742D01*
X142721Y34156D01*
X142662Y33861D01*
X142038Y33750D01*
X141966Y33867D01*
X134674Y26575D01*
X141966Y19283D01*
X142974Y20927D01*
X143721Y22731D01*
X143986Y23834D01*
X144576Y23765D01*
Y15820D01*
X138617Y9860D01*
X136247D01*
X136189Y10451D01*
X136617Y10536D01*
X137203Y10927D01*
X137594Y11513D01*
X137732Y12205D01*
X137594Y12896D01*
X137203Y13482D01*
X136617Y13874D01*
X135925Y14011D01*
X135234Y13874D01*
X134648Y13482D01*
X134398Y13108D01*
X123474D01*
X122164Y14419D01*
X121871Y14614D01*
X121525Y14683D01*
X113036D01*
X112690Y14614D01*
X112398Y14419D01*
X111087Y13108D01*
X38268D01*
X17734Y33642D01*
Y49359D01*
X17813Y49412D01*
X18204Y49998D01*
X18342Y50689D01*
X18204Y51380D01*
X17813Y51966D01*
X17227Y52358D01*
X16535Y52495D01*
X15844Y52358D01*
X15258Y51966D01*
X14867Y51380D01*
X14729Y50689D01*
X14867Y49998D01*
X15258Y49412D01*
X15374Y49334D01*
X15143Y48778D01*
X14764Y48854D01*
X14073Y48716D01*
X13487Y48324D01*
X13095Y47739D01*
X12957Y47047D01*
X13095Y46356D01*
X13392Y45912D01*
X13123Y45393D01*
X13099Y45368D01*
X12894Y45409D01*
X12202Y45271D01*
X11616Y44880D01*
X11225Y44294D01*
X11087Y43602D01*
X11225Y42911D01*
X11616Y42325D01*
X12202Y41934D01*
X12393Y41896D01*
X12456Y41474D01*
X11961Y41088D01*
X11516Y41176D01*
X10825Y41039D01*
X10238Y40647D01*
X9847Y40061D01*
X9709Y39370D01*
X9847Y38679D01*
X10043Y38385D01*
X9957Y38151D01*
X9723Y37802D01*
X9145Y37687D01*
X8559Y37295D01*
X8168Y36709D01*
X8030Y36018D01*
X8168Y35327D01*
X8344Y35064D01*
X8075Y34408D01*
X8018Y34397D01*
X7432Y34005D01*
X7040Y33419D01*
X6903Y32728D01*
X7040Y32037D01*
X7132Y31899D01*
X7128Y31843D01*
X6833Y31284D01*
X6395Y31196D01*
X5809Y30805D01*
X5418Y30219D01*
X5280Y29528D01*
X5418Y28836D01*
X5809Y28250D01*
X5938Y28164D01*
X5711Y27653D01*
X5020Y27791D01*
X4328Y27653D01*
X3742Y27261D01*
X3351Y26676D01*
X3213Y25984D01*
X3351Y25293D01*
X3526Y25031D01*
X3171Y24499D01*
X2953Y24543D01*
X2262Y24405D01*
X1675Y24013D01*
X1284Y23427D01*
X1146Y22736D01*
X1244Y22244D01*
X889Y21654D01*
X0D01*
Y95818D01*
X19252D01*
Y95709D01*
X20866D01*
X22480D01*
Y95818D01*
X23327D01*
Y95768D01*
X24803D01*
X26280D01*
Y95818D01*
X38664D01*
Y88073D01*
X37156Y86565D01*
X36714Y86653D01*
X36023Y86515D01*
X35437Y86124D01*
X35045Y85538D01*
X34908Y84847D01*
X35045Y84155D01*
X35437Y83569D01*
X36023Y83178D01*
X36714Y83040D01*
X37406Y83178D01*
X37992Y83569D01*
X38383Y84155D01*
X38521Y84847D01*
X38433Y85288D01*
X40206Y87061D01*
X40401Y87354D01*
X40470Y87699D01*
Y94658D01*
X41016Y94884D01*
X43034Y92865D01*
X43327Y92669D01*
X43673Y92601D01*
X43891D01*
X44066Y92484D01*
X44488Y92400D01*
X46063D01*
X46485Y92484D01*
X46844Y92723D01*
X47083Y93081D01*
X47167Y93504D01*
X47083Y93926D01*
X46984Y94075D01*
X46890Y94488D01*
X46984Y94901D01*
X47083Y95050D01*
X47167Y95472D01*
X47100Y95811D01*
X47300Y96095D01*
X47497Y96307D01*
X47779D01*
X47822Y96260D01*
X50000D01*
Y94685D01*
X48341D01*
X48386Y94488D01*
X48341Y94291D01*
X50000D01*
X51659D01*
X51614Y94488D01*
X51708Y94901D01*
X51807Y95050D01*
X51856Y95297D01*
X51987Y95534D01*
X52425Y95818D01*
X57047D01*
Y95709D01*
X58661D01*
X60276D01*
Y96457D01*
X61122D01*
Y95768D01*
X64075D01*
Y96457D01*
X64961D01*
D02*
G37*
G36*
X88926Y96005D02*
X89043Y95956D01*
X89133Y95866D01*
X89260D01*
X89378Y95818D01*
X92874D01*
Y94626D01*
X94488D01*
Y93839D01*
X95276D01*
Y92146D01*
X96102D01*
X96260Y92421D01*
X96949D01*
Y93996D01*
X97736D01*
Y94784D01*
X99213D01*
Y95818D01*
X102097D01*
X105497Y92418D01*
X105643Y92358D01*
X105667Y92321D01*
X105709Y92313D01*
X105794Y92250D01*
X105869Y92231D01*
X106030Y92170D01*
X106189Y92050D01*
X106207Y91979D01*
X106098Y91403D01*
X105653Y91315D01*
X105067Y90923D01*
X104675Y90337D01*
X104538Y89646D01*
X104675Y88954D01*
X105067Y88368D01*
X105653Y87977D01*
X106344Y87839D01*
X106890Y87948D01*
X107480Y87618D01*
Y87401D01*
X111417D01*
Y86614D01*
X112205D01*
Y83858D01*
X115354D01*
Y83858D01*
X115748D01*
Y83858D01*
X118898D01*
Y86614D01*
Y89370D01*
X118289D01*
X118063Y89916D01*
X120667Y92520D01*
X159984D01*
X160085Y92275D01*
X160175Y92185D01*
X160223Y92068D01*
X160341Y92019D01*
X160431Y91929D01*
X160558D01*
X160675Y91881D01*
X169291D01*
X169743Y92068D01*
X173493Y95818D01*
X196850D01*
Y21654D01*
X187009D01*
X186829Y22042D01*
X186806Y22244D01*
X192174Y27612D01*
X192370Y27905D01*
X192439Y28251D01*
Y40157D01*
X192370Y40503D01*
X192174Y40796D01*
X190302Y42668D01*
X190009Y42864D01*
X189663Y42933D01*
X187461D01*
X187212Y43307D01*
X186626Y43698D01*
X185934Y43836D01*
X185243Y43698D01*
X184657Y43307D01*
X184265Y42721D01*
X184128Y42030D01*
X184240Y41468D01*
X183917Y40877D01*
X181299D01*
X180685Y40755D01*
X180164Y40407D01*
X180164Y40407D01*
X173173Y33417D01*
X171132D01*
X170934Y33896D01*
X170271Y34759D01*
X169408Y35422D01*
X168402Y35838D01*
X167323Y35980D01*
X166244Y35838D01*
X165238Y35422D01*
X164374Y34759D01*
X163712Y33896D01*
X163295Y32890D01*
X163153Y31811D01*
X163295Y30732D01*
X163712Y29726D01*
X164357Y28885D01*
X164325Y28674D01*
X164196Y28295D01*
X160591D01*
X160053Y28188D01*
X159597Y27883D01*
X157271Y25557D01*
X156591Y25839D01*
X155512Y25980D01*
X154433Y25839D01*
X153427Y25422D01*
X152564Y24759D01*
X152010Y24038D01*
X151420Y24208D01*
Y33169D01*
X152264D01*
X152580Y33038D01*
X153248Y32950D01*
X155118D01*
X155786Y33038D01*
X156102Y33169D01*
X158957D01*
Y37894D01*
X156102D01*
X155786Y38025D01*
X155118Y38113D01*
X154317D01*
X147498Y44932D01*
X147874Y45390D01*
X148037Y45282D01*
X148728Y45145D01*
X149419Y45282D01*
X149557Y45375D01*
X150288Y45153D01*
X150324Y45068D01*
X150734Y44533D01*
X151268Y44123D01*
X151279Y44118D01*
Y43996D01*
X151575D01*
X151891Y43865D01*
X152559Y43777D01*
X153227Y43865D01*
X153543Y43996D01*
X156357D01*
X156911Y43767D01*
X157579Y43679D01*
X158247Y43767D01*
X158801Y43996D01*
X158957D01*
Y44092D01*
X159175Y44259D01*
X178447D01*
X179139Y44397D01*
X179725Y44788D01*
X182773Y47837D01*
X183165Y48423D01*
X183302Y49114D01*
Y50466D01*
X183474Y50558D01*
X183893Y50666D01*
X184339Y50324D01*
X184962Y50066D01*
X185630Y49978D01*
X186298Y50066D01*
X186920Y50324D01*
X187455Y50734D01*
X187865Y51269D01*
X188123Y51891D01*
X188211Y52559D01*
X188123Y53227D01*
X187865Y53850D01*
X187455Y54384D01*
X186920Y54794D01*
X186298Y55052D01*
X185630Y55140D01*
X184962Y55052D01*
X184339Y54794D01*
X183805Y54384D01*
X183790Y54365D01*
X181496D01*
X181322Y54331D01*
X179331D01*
Y50787D01*
X179690D01*
Y49862D01*
X177699Y47872D01*
X175094D01*
X174868Y48417D01*
X176336Y49886D01*
X176336Y49886D01*
X176532Y50179D01*
X176601Y50524D01*
Y53670D01*
X178768Y55838D01*
X179266Y55898D01*
X179359Y55905D01*
X179477Y55905D01*
X183661D01*
Y59449D01*
X182500D01*
Y59684D01*
X182423Y60068D01*
X182206Y60393D01*
X178897Y63702D01*
X178571Y63919D01*
X178188Y63996D01*
X176044D01*
X175865Y64586D01*
X176286Y64868D01*
X176677Y65454D01*
X176815Y66145D01*
X176677Y66836D01*
X176286Y67422D01*
X175700Y67814D01*
X175008Y67951D01*
X174317Y67814D01*
X173731Y67422D01*
X173340Y66836D01*
X173202Y66145D01*
X173242Y65945D01*
X172757Y65354D01*
X170374D01*
Y61948D01*
X170300Y61850D01*
X169783Y61614D01*
X169783D01*
Y62205D01*
X167618D01*
X165453D01*
Y61041D01*
X164862D01*
Y62205D01*
X162697D01*
X160531D01*
Y61173D01*
X160339Y61013D01*
X160338Y61012D01*
X159941Y61264D01*
Y65354D01*
X158980D01*
Y66240D01*
X158960Y66339D01*
X159392Y66929D01*
X162598D01*
Y67207D01*
X163031D01*
X163377Y67276D01*
X163498Y67356D01*
X164075Y67242D01*
X164766Y67379D01*
X165352Y67771D01*
X165553Y68071D01*
X166731D01*
X166931Y67771D01*
X167517Y67379D01*
X168209Y67242D01*
X168900Y67379D01*
X169486Y67771D01*
X169878Y68357D01*
X170015Y69048D01*
X169969Y69277D01*
X170448Y69868D01*
X171112D01*
X171362Y69494D01*
X171948Y69102D01*
X172639Y68965D01*
X173330Y69102D01*
X173917Y69494D01*
X174308Y70080D01*
X174446Y70771D01*
X174308Y71462D01*
X174265Y71526D01*
X174544Y72047D01*
X175984D01*
Y74803D01*
Y77559D01*
X172835D01*
Y77559D01*
X172441D01*
Y77559D01*
X169291D01*
Y74803D01*
X168504D01*
Y74016D01*
X164567D01*
Y72047D01*
X167462D01*
X167749Y71457D01*
X167625Y71299D01*
X162913D01*
X162913Y71299D01*
Y71299D01*
X162604Y71753D01*
X162018Y72145D01*
X161327Y72282D01*
X160635Y72145D01*
X160074Y71769D01*
X158661D01*
X158316Y71701D01*
X158023Y71505D01*
X155814Y69296D01*
X155789Y69291D01*
X153937D01*
Y66929D01*
X155384D01*
X156368Y65945D01*
X156123Y65354D01*
X155610D01*
Y60630D01*
X157643D01*
X158071Y60236D01*
X158071Y60039D01*
Y58490D01*
X157525Y58264D01*
X157301Y58488D01*
X157075Y58639D01*
X156797Y59056D01*
X156211Y59447D01*
X155519Y59585D01*
X154828Y59447D01*
X154242Y59056D01*
X153850Y58470D01*
X153713Y57778D01*
X153850Y57087D01*
X154242Y56501D01*
X154828Y56110D01*
X155519Y55972D01*
X156211Y56110D01*
X156589Y56362D01*
X157952Y54999D01*
X158071Y54919D01*
Y54134D01*
X161024D01*
Y57758D01*
X161644D01*
X161989Y57827D01*
X162283Y58023D01*
X163494Y59235D01*
X166732D01*
Y58642D01*
X166339D01*
Y56949D01*
X165551D01*
Y56161D01*
X163937D01*
Y55256D01*
Y52185D01*
X165850D01*
X166335Y51595D01*
X166312Y51479D01*
X166426Y50906D01*
X166109Y50315D01*
X160903D01*
X160186Y51032D01*
X159893Y51228D01*
X159547Y51297D01*
X148574D01*
X148325Y51671D01*
X147739Y52063D01*
X147047Y52200D01*
X146356Y52063D01*
X145770Y51671D01*
X145378Y51085D01*
X145241Y50394D01*
X145378Y49702D01*
X145770Y49116D01*
X146356Y48725D01*
X147015Y48594D01*
X147125Y48435D01*
X147325Y48040D01*
X147059Y47642D01*
X146921Y46951D01*
X147059Y46260D01*
X147167Y46098D01*
X146708Y45721D01*
X142594Y49836D01*
X142974Y50455D01*
X143721Y52258D01*
X144176Y54156D01*
X144330Y56102D01*
X144176Y58048D01*
X143721Y59947D01*
X142974Y61750D01*
X141954Y63414D01*
X140686Y64899D01*
X139202Y66167D01*
X137537Y67186D01*
X135734Y67933D01*
X133836Y68389D01*
X131890Y68542D01*
X129944Y68389D01*
X128046Y67933D01*
X126242Y67186D01*
X124578Y66167D01*
X123093Y64899D01*
X121826Y63414D01*
X120806Y61750D01*
X120059Y59947D01*
X119603Y58048D01*
X119450Y56102D01*
X119603Y54156D01*
X120059Y52258D01*
X120219Y51872D01*
X119718Y51537D01*
X113876Y57380D01*
X113290Y57771D01*
X112598Y57909D01*
X110723D01*
X110712Y58048D01*
X110256Y59947D01*
X109509Y61750D01*
X108489Y63414D01*
X107222Y64899D01*
X105737Y66167D01*
X104073Y67186D01*
X102269Y67933D01*
X100371Y68389D01*
X98425Y68542D01*
X96479Y68389D01*
X94581Y67933D01*
X94308Y67820D01*
X93980Y68311D01*
X95713Y70044D01*
X143898D01*
X144589Y70182D01*
X145175Y70573D01*
X157835Y83233D01*
X164567D01*
Y82284D01*
X169982D01*
X170155Y82087D01*
X170243Y81419D01*
X170501Y80796D01*
X170911Y80261D01*
X171446Y79851D01*
X172068Y79593D01*
X172736Y79505D01*
X173404Y79593D01*
X174027Y79851D01*
X174561Y80261D01*
X174971Y80796D01*
X175229Y81419D01*
X175317Y82087D01*
X175490Y82284D01*
X180709D01*
Y82284D01*
X181102D01*
Y82284D01*
X187406D01*
X189631Y80059D01*
Y69646D01*
X189197Y69212D01*
X189173Y69215D01*
X188505Y69127D01*
X187883Y68869D01*
X187348Y68459D01*
X186938Y67924D01*
X186680Y67302D01*
X186592Y66634D01*
X186680Y65966D01*
X186938Y65343D01*
X187348Y64809D01*
X187883Y64398D01*
X188505Y64141D01*
X189173Y64053D01*
X189841Y64141D01*
X190464Y64398D01*
X190998Y64809D01*
X191409Y65343D01*
X191666Y65966D01*
X191754Y66634D01*
X191751Y66657D01*
X192714Y67620D01*
X193106Y68206D01*
X193243Y68898D01*
Y80807D01*
X193106Y81498D01*
X192714Y82084D01*
X188976Y85822D01*
Y87795D01*
X181102D01*
Y87795D01*
X180709D01*
Y87795D01*
X172888D01*
X172688Y88279D01*
X172278Y88813D01*
X171743Y89223D01*
X171121Y89481D01*
X170453Y89569D01*
X169785Y89481D01*
X169162Y89223D01*
X168628Y88813D01*
X168217Y88279D01*
X168017Y87795D01*
X164567D01*
Y86846D01*
X157087D01*
X156395Y86708D01*
X155809Y86317D01*
X145136Y75643D01*
X144592Y75934D01*
X144621Y76083D01*
X144484Y76774D01*
X144092Y77360D01*
X143506Y77751D01*
X142815Y77889D01*
X142224Y77772D01*
X141634Y78080D01*
Y78347D01*
X135531D01*
Y77889D01*
X131890D01*
Y79134D01*
X124016D01*
Y79134D01*
X123622Y79134D01*
Y79134D01*
X115748D01*
Y79134D01*
X115354D01*
Y79134D01*
X107480D01*
Y78184D01*
X94980D01*
X94289Y78047D01*
X93703Y77655D01*
X81950Y65902D01*
X81309Y66096D01*
X81299Y66147D01*
X80907Y66733D01*
X80321Y67125D01*
X79630Y67262D01*
X79429Y67222D01*
X77217Y69435D01*
X77443Y69980D01*
X79485D01*
X79495Y69903D01*
X79753Y69280D01*
X80163Y68746D01*
X80698Y68336D01*
X81320Y68078D01*
X81988Y67990D01*
X82656Y68078D01*
X83279Y68336D01*
X83813Y68746D01*
X84224Y69280D01*
X84481Y69903D01*
X84569Y70571D01*
X84481Y71239D01*
X84224Y71861D01*
X83813Y72396D01*
X83422Y72696D01*
X83266Y72931D01*
X81301Y74895D01*
X81299Y74897D01*
Y81243D01*
X81898D01*
X82148Y80868D01*
X82734Y80477D01*
X83425Y80339D01*
X84117Y80477D01*
X84702Y80868D01*
X85094Y81454D01*
X85232Y82146D01*
X85094Y82837D01*
X84702Y83423D01*
X84117Y83815D01*
X83425Y83952D01*
X82734Y83815D01*
X82148Y83423D01*
X81898Y83049D01*
X78957D01*
X75017Y86988D01*
Y87894D01*
X77165D01*
Y93602D01*
X78740D01*
Y87894D01*
X81299D01*
Y91941D01*
X81309Y91951D01*
X81890Y92202D01*
X82285Y91938D01*
X82977Y91801D01*
X83668Y91938D01*
X84254Y92330D01*
X84645Y92916D01*
X84744Y93410D01*
X84890Y93653D01*
X85337Y93848D01*
X85733Y93769D01*
X86424Y93907D01*
X87010Y94298D01*
X87401Y94884D01*
X87494Y95350D01*
X87510Y95361D01*
X88210Y96061D01*
X88361Y96100D01*
X88575Y96109D01*
X88926Y96005D01*
D02*
G37*
G36*
X169095Y56791D02*
X172400D01*
X172713Y56478D01*
X173038Y56261D01*
X173422Y56184D01*
X174434D01*
X174617Y55910D01*
X175117Y55576D01*
X175316Y54940D01*
X175059Y54682D01*
X174863Y54390D01*
X174794Y54044D01*
Y51384D01*
X174564Y51212D01*
X173811Y51351D01*
X173727Y51477D01*
X173141Y51868D01*
X172449Y52006D01*
X171758Y51868D01*
X171172Y51477D01*
X170781Y50891D01*
X170673Y50349D01*
X170099Y50368D01*
X169811Y50906D01*
X169925Y51479D01*
X169787Y52170D01*
X169396Y52756D01*
X168810Y53148D01*
X168118Y53285D01*
X168110Y53284D01*
X167245Y54149D01*
X167165Y54202D01*
Y56791D01*
X167520D01*
Y58268D01*
X169095D01*
Y56791D01*
D02*
G37*
%LPC*%
G36*
X147687Y195276D02*
Y191339D01*
X152559D01*
Y195276D01*
X147687D01*
D02*
G37*
G36*
X132923D02*
Y191339D01*
X135433D01*
Y195276D01*
X132923D01*
D02*
G37*
G36*
X138730D02*
X136221D01*
Y191339D01*
X138730D01*
Y195276D01*
D02*
G37*
G36*
X123967D02*
X119095D01*
Y191339D01*
X123967D01*
Y195276D01*
D02*
G37*
G36*
X138730Y190551D02*
X136221D01*
Y186614D01*
X138730D01*
Y190551D01*
D02*
G37*
G36*
X135433D02*
X132923D01*
Y186614D01*
X135433D01*
Y190551D01*
D02*
G37*
G36*
X104941Y192232D02*
X104119Y192124D01*
X103352Y191806D01*
X102695Y191301D01*
X102190Y190644D01*
X101872Y189877D01*
X101764Y189055D01*
X101872Y188233D01*
X102190Y187467D01*
X102695Y186809D01*
X103352Y186304D01*
X104119Y185987D01*
X104941Y185878D01*
X105763Y185987D01*
X106529Y186304D01*
X107187Y186809D01*
X107692Y187467D01*
X108010Y188233D01*
X108118Y189055D01*
X108010Y189877D01*
X107692Y190644D01*
X107187Y191301D01*
X106529Y191806D01*
X105763Y192124D01*
X104941Y192232D01*
D02*
G37*
G36*
X47697D02*
X46875Y192124D01*
X46108Y191806D01*
X45450Y191301D01*
X44946Y190644D01*
X44628Y189877D01*
X44520Y189055D01*
X44628Y188233D01*
X44946Y187467D01*
X45450Y186809D01*
X46108Y186304D01*
X46875Y185987D01*
X47697Y185878D01*
X48519Y185987D01*
X49285Y186304D01*
X49943Y186809D01*
X50448Y187467D01*
X50765Y188233D01*
X50874Y189055D01*
X50765Y189877D01*
X50448Y190644D01*
X49943Y191301D01*
X49285Y191806D01*
X48519Y192124D01*
X47697Y192232D01*
D02*
G37*
G36*
X37697D02*
X36875Y192124D01*
X36108Y191806D01*
X35451Y191301D01*
X34946Y190644D01*
X34628Y189877D01*
X34520Y189055D01*
X34628Y188233D01*
X34946Y187467D01*
X35451Y186809D01*
X36108Y186304D01*
X36875Y185987D01*
X37697Y185878D01*
X38519Y185987D01*
X39285Y186304D01*
X39943Y186809D01*
X40448Y187467D01*
X40765Y188233D01*
X40874Y189055D01*
X40765Y189877D01*
X40448Y190644D01*
X39943Y191301D01*
X39285Y191806D01*
X38519Y192124D01*
X37697Y192232D01*
D02*
G37*
G36*
X84429Y189716D02*
X83504Y189594D01*
X82642Y189237D01*
X81902Y188669D01*
X81334Y187929D01*
X80977Y187067D01*
X80855Y186142D01*
X80977Y185217D01*
X81334Y184355D01*
X81902Y183615D01*
X82642Y183047D01*
X83504Y182690D01*
X84429Y182568D01*
X85354Y182690D01*
X86216Y183047D01*
X86956Y183615D01*
X87524Y184355D01*
X87881Y185217D01*
X88003Y186142D01*
X87881Y187067D01*
X87524Y187929D01*
X86956Y188669D01*
X86216Y189237D01*
X85354Y189594D01*
X84429Y189716D01*
D02*
G37*
G36*
X27185D02*
X26260Y189594D01*
X25398Y189237D01*
X24658Y188669D01*
X24090Y187929D01*
X23733Y187067D01*
X23611Y186142D01*
X23733Y185217D01*
X24090Y184355D01*
X24658Y183615D01*
X25398Y183047D01*
X26260Y182690D01*
X27185Y182568D01*
X28110Y182690D01*
X28972Y183047D01*
X29712Y183615D01*
X30280Y184355D01*
X30637Y185217D01*
X30759Y186142D01*
X30637Y187067D01*
X30280Y187929D01*
X29712Y188669D01*
X28972Y189237D01*
X28110Y189594D01*
X27185Y189716D01*
D02*
G37*
G36*
X164075Y190383D02*
X158760D01*
X158184Y190269D01*
X157695Y189942D01*
X157369Y189454D01*
X157255Y188878D01*
Y183563D01*
X157369Y182987D01*
X157695Y182499D01*
X158184Y182172D01*
X158760Y182058D01*
X164075D01*
X164651Y182172D01*
X165139Y182499D01*
X165465Y182987D01*
X165580Y183563D01*
Y188878D01*
X165465Y189454D01*
X165139Y189942D01*
X164651Y190269D01*
X164075Y190383D01*
D02*
G37*
G36*
X89941Y182232D02*
X89119Y182124D01*
X88353Y181806D01*
X88325Y181785D01*
X89941Y180169D01*
X91557Y181785D01*
X91529Y181806D01*
X90763Y182124D01*
X89941Y182232D01*
D02*
G37*
G36*
X32697D02*
X31875Y182124D01*
X31108Y181806D01*
X31081Y181785D01*
X32697Y180169D01*
X34313Y181785D01*
X34285Y181806D01*
X33519Y182124D01*
X32697Y182232D01*
D02*
G37*
G36*
X87211Y180671D02*
X87190Y180643D01*
X86872Y179877D01*
X86764Y179055D01*
X86872Y178233D01*
X87190Y177467D01*
X87211Y177439D01*
X88827Y179055D01*
X87211Y180671D01*
D02*
G37*
G36*
X92671D02*
X91054Y179055D01*
X92671Y177439D01*
X92692Y177467D01*
X93010Y178233D01*
X93118Y179055D01*
X93010Y179877D01*
X92692Y180643D01*
X92671Y180671D01*
D02*
G37*
G36*
X161417Y180390D02*
X160338Y180248D01*
X159333Y179831D01*
X159099Y179652D01*
X161417Y177334D01*
X163735Y179652D01*
X163502Y179831D01*
X162496Y180248D01*
X161417Y180390D01*
D02*
G37*
G36*
X94941Y192232D02*
X94119Y192124D01*
X93353Y191806D01*
X92695Y191301D01*
X92190Y190644D01*
X91872Y189877D01*
X91764Y189055D01*
X91872Y188233D01*
X92190Y187467D01*
X92695Y186809D01*
X93353Y186304D01*
X93937Y186062D01*
Y182629D01*
X94014Y182245D01*
X94231Y181920D01*
X95394Y180757D01*
Y174042D01*
X95378Y174018D01*
X95241Y173327D01*
X95378Y172635D01*
X95770Y172049D01*
X96356Y171658D01*
X97047Y171520D01*
X97738Y171658D01*
X98325Y172049D01*
X98716Y172635D01*
X98854Y173327D01*
X98716Y174018D01*
X98325Y174604D01*
X97738Y174996D01*
X97401Y175063D01*
Y176290D01*
X97992Y176581D01*
X98352Y176304D01*
X99119Y175987D01*
X99941Y175878D01*
X100763Y175987D01*
X101529Y176304D01*
X102187Y176809D01*
X102692Y177467D01*
X103009Y178233D01*
X103118Y179055D01*
X103009Y179877D01*
X102692Y180643D01*
X102187Y181301D01*
X101529Y181806D01*
X100763Y182124D01*
X99941Y182232D01*
X99119Y182124D01*
X98352Y181806D01*
X97940Y181490D01*
X97714Y181514D01*
X97286Y181641D01*
X97247Y181673D01*
X97107Y181882D01*
X95944Y183045D01*
Y186062D01*
X96529Y186304D01*
X97187Y186809D01*
X97692Y187467D01*
X98010Y188233D01*
X98118Y189055D01*
X98010Y189877D01*
X97692Y190644D01*
X97187Y191301D01*
X96529Y191806D01*
X95763Y192124D01*
X94941Y192232D01*
D02*
G37*
G36*
X89941Y177942D02*
X88325Y176325D01*
X88353Y176304D01*
X89119Y175987D01*
X89941Y175878D01*
X90763Y175987D01*
X91529Y176304D01*
X91557Y176325D01*
X89941Y177942D01*
D02*
G37*
G36*
X149016Y180512D02*
X145915D01*
Y175197D01*
X149016D01*
Y180512D01*
D02*
G37*
G36*
X157985Y178539D02*
X157806Y178305D01*
X157390Y177300D01*
X157248Y176221D01*
X157390Y175141D01*
X157806Y174136D01*
X157985Y173902D01*
X160304Y176221D01*
X157985Y178539D01*
D02*
G37*
G36*
X164849D02*
X162531Y176221D01*
X164849Y173902D01*
X165028Y174136D01*
X165445Y175141D01*
X165587Y176221D01*
X165445Y177300D01*
X165028Y178305D01*
X164849Y178539D01*
D02*
G37*
G36*
X161417Y175107D02*
X159099Y172789D01*
X159333Y172610D01*
X160338Y172193D01*
X161417Y172051D01*
X162496Y172193D01*
X163502Y172610D01*
X163735Y172789D01*
X161417Y175107D01*
D02*
G37*
G36*
X148425Y172736D02*
X147343D01*
Y171555D01*
X148425D01*
Y172736D01*
D02*
G37*
G36*
X146358D02*
X145276D01*
Y171555D01*
X146358D01*
Y172736D01*
D02*
G37*
G36*
X144488D02*
X143405D01*
Y171555D01*
X144488D01*
Y172736D01*
D02*
G37*
G36*
X185630Y163416D02*
X184705Y163295D01*
X183843Y162938D01*
X183103Y162370D01*
X182535Y161629D01*
X182178Y160767D01*
X182056Y159843D01*
X182178Y158917D01*
X182535Y158056D01*
X183103Y157315D01*
X183843Y156747D01*
X184705Y156390D01*
X185630Y156269D01*
X186555Y156390D01*
X187417Y156747D01*
X188157Y157315D01*
X188725Y158056D01*
X189082Y158917D01*
X189204Y159843D01*
X189082Y160767D01*
X188725Y161629D01*
X188157Y162370D01*
X187417Y162938D01*
X186555Y163295D01*
X185630Y163416D01*
D02*
G37*
G36*
X123228Y157087D02*
X121457D01*
Y155118D01*
X123228D01*
Y157087D01*
D02*
G37*
G36*
X36299Y155945D02*
X35000D01*
Y154724D01*
X36299D01*
Y155945D01*
D02*
G37*
G36*
Y153937D02*
X35000D01*
Y152717D01*
X36299D01*
Y153937D01*
D02*
G37*
G36*
X123228Y154331D02*
X121457D01*
Y152362D01*
X123228D01*
Y154331D01*
D02*
G37*
G36*
X38091Y152067D02*
X36122D01*
Y149902D01*
X38091D01*
Y152067D01*
D02*
G37*
G36*
X185630Y153574D02*
X184705Y153452D01*
X183843Y153095D01*
X183103Y152527D01*
X182535Y151787D01*
X182178Y150925D01*
X182056Y150000D01*
X182178Y149075D01*
X182535Y148213D01*
X183103Y147473D01*
X183843Y146905D01*
X184705Y146548D01*
X185630Y146426D01*
X186555Y146548D01*
X187417Y146905D01*
X188157Y147473D01*
X188725Y148213D01*
X189082Y149075D01*
X189204Y150000D01*
X189082Y150925D01*
X188725Y151787D01*
X188157Y152527D01*
X187417Y153095D01*
X186555Y153452D01*
X185630Y153574D01*
D02*
G37*
G36*
X30020Y145177D02*
X28051D01*
Y143012D01*
X30020D01*
Y145177D01*
D02*
G37*
G36*
X32776Y142224D02*
X30807D01*
Y140059D01*
X32776D01*
Y142224D01*
D02*
G37*
G36*
X30020D02*
X28051D01*
Y140059D01*
X30020D01*
Y142224D01*
D02*
G37*
G36*
X31142Y139409D02*
X29842D01*
Y138189D01*
X31142D01*
Y139409D01*
D02*
G37*
G36*
X185630Y143731D02*
X184705Y143610D01*
X183843Y143253D01*
X183103Y142685D01*
X182535Y141944D01*
X182178Y141083D01*
X182056Y140157D01*
X182178Y139233D01*
X182535Y138371D01*
X183103Y137630D01*
X183843Y137062D01*
X184705Y136705D01*
X185630Y136584D01*
X186555Y136705D01*
X187417Y137062D01*
X188157Y137630D01*
X188725Y138371D01*
X189082Y139233D01*
X189204Y140157D01*
X189082Y141083D01*
X188725Y141944D01*
X188157Y142685D01*
X187417Y143253D01*
X186555Y143610D01*
X185630Y143731D01*
D02*
G37*
G36*
X31142Y137402D02*
X29842D01*
Y136181D01*
X31142D01*
Y137402D01*
D02*
G37*
G36*
X185630Y133889D02*
X184705Y133767D01*
X183843Y133410D01*
X183103Y132842D01*
X182535Y132102D01*
X182178Y131240D01*
X182056Y130315D01*
X182178Y129390D01*
X182535Y128528D01*
X183103Y127788D01*
X183843Y127220D01*
X184705Y126863D01*
X185630Y126741D01*
X186555Y126863D01*
X187417Y127220D01*
X188157Y127788D01*
X188725Y128528D01*
X189082Y129390D01*
X189204Y130315D01*
X189082Y131240D01*
X188725Y132102D01*
X188157Y132842D01*
X187417Y133410D01*
X186555Y133767D01*
X185630Y133889D01*
D02*
G37*
G36*
X41732Y124016D02*
X38189D01*
Y122244D01*
X41732D01*
Y124016D01*
D02*
G37*
G36*
X37402D02*
X33858D01*
Y122244D01*
X37402D01*
Y124016D01*
D02*
G37*
G36*
X44882Y120945D02*
X43661D01*
Y119646D01*
X44882D01*
Y120945D01*
D02*
G37*
G36*
X187845Y124042D02*
X183415D01*
X182897Y123939D01*
X182457Y123645D01*
X182164Y123205D01*
X182061Y122687D01*
Y118258D01*
X182164Y117739D01*
X182457Y117300D01*
X182897Y117006D01*
X183415Y116903D01*
X187845D01*
X188363Y117006D01*
X188803Y117300D01*
X189096Y117739D01*
X189199Y118258D01*
Y122687D01*
X189096Y123205D01*
X188803Y123645D01*
X188363Y123939D01*
X187845Y124042D01*
D02*
G37*
G36*
X56102Y108661D02*
X54331D01*
Y106693D01*
X56102D01*
Y108661D01*
D02*
G37*
G36*
X22480Y99685D02*
X21260D01*
Y98386D01*
X22480D01*
Y99685D01*
D02*
G37*
G36*
X20472D02*
X19252D01*
Y98386D01*
X20472D01*
Y99685D01*
D02*
G37*
G36*
X26280Y99508D02*
X25197D01*
Y98327D01*
X26280D01*
Y99508D01*
D02*
G37*
G36*
X24409D02*
X23327D01*
Y98327D01*
X24409D01*
Y99508D01*
D02*
G37*
G36*
X109055Y155020D02*
X107087D01*
Y153248D01*
X109055D01*
Y155020D01*
D02*
G37*
G36*
X146358Y132382D02*
X145276D01*
Y131201D01*
X146358D01*
Y132382D01*
D02*
G37*
G36*
X144488D02*
X143405D01*
Y131201D01*
X144488D01*
Y132382D01*
D02*
G37*
G36*
X124350Y122874D02*
X123051D01*
Y121653D01*
X124350D01*
Y122874D01*
D02*
G37*
G36*
X99213Y98524D02*
X98130D01*
Y97342D01*
X99213D01*
Y98524D01*
D02*
G37*
G36*
X94095Y98602D02*
X92874D01*
Y97303D01*
X94095D01*
Y98602D01*
D02*
G37*
G36*
X64075Y94193D02*
X63386D01*
Y93405D01*
X64075D01*
Y94193D01*
D02*
G37*
G36*
X61811D02*
X61122D01*
Y93405D01*
X61811D01*
Y94193D01*
D02*
G37*
G36*
X26280Y94193D02*
X25591D01*
Y93405D01*
X26280D01*
Y94193D01*
D02*
G37*
G36*
X24016D02*
X23327D01*
Y93405D01*
X24016D01*
Y94193D01*
D02*
G37*
G36*
X60276Y94134D02*
X59449D01*
Y93228D01*
X60276D01*
Y94134D01*
D02*
G37*
G36*
X57874D02*
X57047D01*
Y93228D01*
X57874D01*
Y94134D01*
D02*
G37*
G36*
X22480D02*
X21654D01*
Y93228D01*
X22480D01*
Y94134D01*
D02*
G37*
G36*
X20079D02*
X19252D01*
Y93228D01*
X20079D01*
Y94134D01*
D02*
G37*
G36*
X51558Y92716D02*
X50787D01*
Y92400D01*
X50787D01*
X51210Y92484D01*
X51558Y92716D01*
D02*
G37*
G36*
X49213D02*
X48442D01*
X48790Y92484D01*
X49213Y92400D01*
X49213D01*
Y92716D01*
D02*
G37*
G36*
X41339Y84976D02*
X40647Y84838D01*
X40061Y84447D01*
X39670Y83861D01*
X39532Y83169D01*
X39670Y82478D01*
X40061Y81892D01*
X40647Y81500D01*
X41339Y81363D01*
X42030Y81500D01*
X42616Y81892D01*
X42815Y82190D01*
X43406Y82183D01*
Y80807D01*
X46358D01*
Y81398D01*
Y84547D01*
X43406D01*
Y84156D01*
X42815Y84149D01*
X42616Y84447D01*
X42030Y84838D01*
X41339Y84976D01*
D02*
G37*
G36*
X46358Y79232D02*
X45669D01*
Y78445D01*
X46358D01*
Y79232D01*
D02*
G37*
G36*
X44094D02*
X43406D01*
Y78445D01*
X44094D01*
Y79232D01*
D02*
G37*
G36*
X53839Y78248D02*
X53051D01*
Y77559D01*
X53839D01*
Y78248D01*
D02*
G37*
G36*
Y75984D02*
X53051D01*
Y75295D01*
X53839D01*
Y75984D01*
D02*
G37*
G36*
X131890Y39015D02*
X129944Y38862D01*
X128046Y38406D01*
X126242Y37659D01*
X124598Y36651D01*
X131890Y29359D01*
X139182Y36651D01*
X137537Y37659D01*
X135734Y38406D01*
X133836Y38862D01*
X131890Y39015D01*
D02*
G37*
G36*
X98425D02*
X96479Y38862D01*
X94581Y38406D01*
X92778Y37659D01*
X91133Y36651D01*
X98425Y29359D01*
X105718Y36651D01*
X104073Y37659D01*
X102269Y38406D01*
X100371Y38862D01*
X98425Y39015D01*
D02*
G37*
G36*
X88349Y33867D02*
X87341Y32222D01*
X86594Y30419D01*
X86138Y28521D01*
X85985Y26575D01*
X86138Y24629D01*
X86594Y22731D01*
X87341Y20927D01*
X88349Y19283D01*
X95641Y26575D01*
X88349Y33867D01*
D02*
G37*
G36*
X121814D02*
X120806Y32222D01*
X120059Y30419D01*
X119603Y28521D01*
X119450Y26575D01*
X119603Y24629D01*
X120059Y22731D01*
X120806Y20927D01*
X121814Y19283D01*
X129106Y26575D01*
X121814Y33867D01*
D02*
G37*
G36*
X108501Y33867D02*
X101209Y26575D01*
X108501Y19283D01*
X109509Y20927D01*
X110256Y22731D01*
X110712Y24629D01*
X110865Y26575D01*
X110712Y28521D01*
X110256Y30419D01*
X109509Y32222D01*
X108501Y33867D01*
D02*
G37*
G36*
X67126Y24409D02*
X62008D01*
Y19951D01*
X61986Y19783D01*
X62074Y19115D01*
X62332Y18493D01*
X62742Y17958D01*
X63276Y17548D01*
X63899Y17290D01*
X64567Y17202D01*
X65235Y17290D01*
X65857Y17548D01*
X66392Y17958D01*
X66802Y18493D01*
X67060Y19115D01*
X67148Y19783D01*
X67126Y19951D01*
Y24409D01*
D02*
G37*
G36*
X131890Y23791D02*
X124598Y16499D01*
X126242Y15491D01*
X128046Y14744D01*
X129944Y14288D01*
X131890Y14135D01*
X133836Y14288D01*
X135734Y14744D01*
X137537Y15491D01*
X139182Y16499D01*
X131890Y23791D01*
D02*
G37*
G36*
X98425D02*
X91133Y16499D01*
X92778Y15491D01*
X94581Y14744D01*
X96479Y14288D01*
X98425Y14135D01*
X100371Y14288D01*
X102269Y14744D01*
X104073Y15491D01*
X105718Y16499D01*
X98425Y23791D01*
D02*
G37*
G36*
X43307Y39015D02*
X41361Y38862D01*
X39463Y38406D01*
X37659Y37659D01*
X35995Y36639D01*
X34511Y35371D01*
X33243Y33887D01*
X32223Y32222D01*
X31476Y30419D01*
X31020Y28521D01*
X30867Y26575D01*
X31020Y24629D01*
X31476Y22731D01*
X32223Y20927D01*
X33243Y19263D01*
X34511Y17778D01*
X35995Y16511D01*
X37659Y15491D01*
X39463Y14744D01*
X41361Y14288D01*
X43307Y14135D01*
X45253Y14288D01*
X47151Y14744D01*
X48955Y15491D01*
X50619Y16511D01*
X52103Y17778D01*
X53371Y19263D01*
X54391Y20927D01*
X55138Y22731D01*
X55594Y24629D01*
X55747Y26575D01*
X55594Y28521D01*
X55138Y30419D01*
X54391Y32222D01*
X53371Y33887D01*
X52103Y35371D01*
X50619Y36639D01*
X48955Y37659D01*
X47151Y38406D01*
X45253Y38862D01*
X43307Y39015D01*
D02*
G37*
G36*
X99213Y93209D02*
X98524D01*
Y92421D01*
X99213D01*
Y93209D01*
D02*
G37*
G36*
X93701Y93051D02*
X92874D01*
Y92146D01*
X93701D01*
Y93051D01*
D02*
G37*
G36*
X128740Y89370D02*
Y87402D01*
X131890D01*
Y89370D01*
X128740D01*
D02*
G37*
G36*
X131890Y85827D02*
X128740D01*
Y83858D01*
X131890D01*
Y85827D01*
D02*
G37*
G36*
X110630Y85827D02*
X107480D01*
Y83858D01*
X110630D01*
Y85827D01*
D02*
G37*
G36*
X124016Y89370D02*
X123462Y89370D01*
X120473D01*
Y86614D01*
Y83858D01*
X123425D01*
X123622Y83858D01*
X124176Y83858D01*
X127165D01*
Y86614D01*
Y89370D01*
X124213D01*
X124016Y89370D01*
D02*
G37*
G36*
X138384Y87717D02*
X137716Y87629D01*
X137093Y87371D01*
X136559Y86961D01*
X136149Y86426D01*
X135891Y85804D01*
X135803Y85136D01*
X135815Y85039D01*
X135531Y84449D01*
X135531D01*
Y79921D01*
X141634D01*
Y80888D01*
X142222Y81205D01*
X142913Y81068D01*
X143605Y81205D01*
X144191Y81597D01*
X144582Y82183D01*
X144720Y82874D01*
X144582Y83565D01*
X144191Y84151D01*
X143605Y84543D01*
X142913Y84680D01*
X142222Y84543D01*
X142193Y84524D01*
X141634Y84449D01*
X141180Y84779D01*
X140952Y85039D01*
X140965Y85136D01*
X140877Y85804D01*
X140619Y86426D01*
X140209Y86961D01*
X139674Y87371D01*
X139052Y87629D01*
X138384Y87717D01*
D02*
G37*
G36*
X185827Y77559D02*
Y75591D01*
X188976D01*
Y77559D01*
X185827D01*
D02*
G37*
G36*
X167717D02*
X164567D01*
Y75591D01*
X167717D01*
Y77559D01*
D02*
G37*
G36*
X188976Y74016D02*
X185827D01*
Y72047D01*
X188976D01*
Y74016D01*
D02*
G37*
G36*
X180709Y77559D02*
X180512Y77559D01*
X177559D01*
Y74803D01*
Y72047D01*
X180512D01*
X181102Y72047D01*
X181299Y72047D01*
X184252D01*
Y74803D01*
Y77559D01*
X181299D01*
X180709Y77559D01*
D02*
G37*
G36*
X164862Y65354D02*
X163484D01*
Y63779D01*
X164862D01*
Y65354D01*
D02*
G37*
G36*
X169783D02*
X168405D01*
Y63779D01*
X169783D01*
Y65354D01*
D02*
G37*
G36*
X166831D02*
X165453D01*
Y63779D01*
X166831D01*
Y65354D01*
D02*
G37*
G36*
X161909D02*
X160531D01*
Y63779D01*
X161909D01*
Y65354D01*
D02*
G37*
G36*
X164764Y58642D02*
X163937D01*
Y57736D01*
X164764D01*
Y58642D01*
D02*
G37*
%LPD*%
D10*
X84118Y90851D02*
X84380Y91113D01*
X80704Y90851D02*
X84118D01*
X77953Y93602D02*
X80704Y90851D01*
X181299Y39272D02*
X185433D01*
X173839Y31811D02*
X181299Y39272D01*
X185433D02*
X188386Y36319D01*
X167323Y31811D02*
X173839D01*
D12*
X74118Y66637D02*
X74118Y66637D01*
X74118Y66637D02*
X75299Y65456D01*
X80991Y57877D02*
X94964Y71850D01*
X75299Y57877D02*
X80991D01*
X94964Y71850D02*
X143898D01*
X75397Y62306D02*
X80909D01*
X94980Y76378D01*
X111417D01*
X168504Y85039D02*
X176772D01*
X143898Y71850D02*
X157087Y85039D01*
X168504D01*
X81988Y70571D02*
Y71653D01*
X80024Y73618D02*
X81988Y71653D01*
X75299Y62405D02*
X75397Y62306D01*
X155118Y46065D02*
Y46358D01*
X140971Y42520D02*
X149613Y33877D01*
Y17709D02*
Y33877D01*
Y17709D02*
X155512Y11811D01*
X126181Y42520D02*
X140971D01*
X112598Y56102D02*
X126181Y42520D01*
X98425Y56102D02*
X112598D01*
X181595Y28248D02*
X185827D01*
X167323Y13976D02*
X181595Y28248D01*
X167323Y11811D02*
Y13976D01*
X75299Y62405D02*
Y65456D01*
X155512Y11811D02*
X167323D01*
X178447Y46065D02*
X181496Y49114D01*
X155118Y46065D02*
X178447D01*
X181496Y49114D02*
Y52559D01*
X152559Y46358D02*
X155118D01*
X111417Y76378D02*
X119685D01*
X119685Y76378D01*
X127953D01*
X128248Y76083D01*
X138583D01*
Y82185D02*
Y84937D01*
X138384Y85136D02*
X138583Y84937D01*
X176772Y85039D02*
X185039D01*
X187205D01*
X191437Y80807D01*
Y68898D02*
Y80807D01*
X189173Y66634D02*
X191437Y68898D01*
X181496Y52559D02*
X185630D01*
D13*
X46065Y149409D02*
X50591D01*
X45474Y150000D02*
X46065Y149409D01*
X15545Y133865D02*
X17828D01*
X14764Y134646D02*
X15545Y133865D01*
X15453Y139862D02*
X18602D01*
X15158Y140157D02*
X15453Y139862D01*
X17677Y137402D02*
X18602Y136476D01*
X17828Y133865D02*
X18602Y133090D01*
X13134Y125591D02*
X17874D01*
X18730Y126447D01*
X83173Y106107D02*
X85246Y104035D01*
X88150D01*
X85044Y113883D02*
X85576D01*
X42996Y153149D02*
X43685Y153838D01*
X41732Y153149D02*
X42996D01*
X46865Y153838D02*
X47357Y153347D01*
X43685Y153838D02*
X46865D01*
X46213Y152263D02*
X47099Y151378D01*
X44338Y152263D02*
X46213D01*
X42126Y150052D02*
X44338Y152263D01*
X42126Y150000D02*
Y150052D01*
X47357Y153347D02*
X50591D01*
X144188Y106304D02*
X144882Y105610D01*
X142661Y106304D02*
X144188D01*
X141879Y107087D02*
X142661Y106304D01*
X139173Y107087D02*
X141879D01*
X80413Y122244D02*
X84264D01*
X85630Y120878D01*
Y118307D02*
Y120878D01*
X146850Y174114D02*
X146949Y174016D01*
Y171063D02*
Y174016D01*
X114567Y147933D02*
X138917D01*
X139272Y147579D01*
X48224Y137598D02*
X50591D01*
X47725Y138097D02*
X48224Y137598D01*
X43904Y138097D02*
X47725D01*
X42719Y136911D02*
X43904Y138097D01*
X42620Y136424D02*
Y136813D01*
X42719Y136911D01*
X68209Y158238D02*
Y162500D01*
X66883Y156912D02*
X68209Y158238D01*
X69882Y157677D02*
Y162795D01*
X65354Y153150D02*
X69882Y157677D01*
X91738Y153347D02*
X95079D01*
X95079Y153347D01*
X96161Y114764D02*
X101181D01*
X146850Y171161D02*
X146949Y171063D01*
X144882Y171161D02*
X146850D01*
X145522Y189173D02*
X147293Y190945D01*
X145522Y180905D02*
Y189173D01*
X124860Y190945D02*
X132529D01*
X124860D02*
X126132Y189673D01*
Y180905D02*
Y189673D01*
X139124Y190945D02*
X147293D01*
X132529D02*
X139124D01*
X112008Y152854D02*
X113779D01*
X109449D02*
X112008D01*
Y159252D02*
X112598Y159842D01*
X112008Y152854D02*
Y159252D01*
X114523Y147933D02*
X117421Y150831D01*
X114523Y147933D02*
X114567D01*
X116787Y155512D02*
X117421Y154878D01*
Y150831D02*
Y154878D01*
X160138Y120177D02*
X163583D01*
X106693Y133661D02*
X112992D01*
X116929Y129724D01*
X65574Y156912D02*
X66883D01*
X62458Y153797D02*
X65574Y156912D01*
X62458Y151673D02*
Y153797D01*
X61417Y112835D02*
X61673Y113091D01*
X61417Y109055D02*
Y112835D01*
X61673Y113091D02*
X62008Y113425D01*
Y118307D01*
X58602Y113091D02*
Y113677D01*
X60039Y115114D01*
Y118307D01*
X85576Y113883D02*
X85630Y113937D01*
X114070Y107092D02*
X114080D01*
X116443Y122841D02*
Y122939D01*
X120768Y126083D02*
Y128642D01*
X112303Y145669D02*
X114567Y147933D01*
X112303Y144698D02*
Y145669D01*
X118952Y137598D02*
X120866Y135685D01*
X106398Y137598D02*
X118952D01*
X85630Y113937D02*
Y118307D01*
X28655Y167323D02*
X71001D01*
X28003Y168898D02*
X71653D01*
X27351Y170473D02*
X75387D01*
X26698Y172047D02*
X76039D01*
X26046Y173622D02*
X76692D01*
X25394Y175197D02*
X77344D01*
X127815Y121260D02*
X128642D01*
X122545Y121167D02*
X124652D01*
X125498Y110931D02*
X129041Y114474D01*
X125498Y110288D02*
Y110931D01*
X122266Y107056D02*
X125498Y110288D01*
X124652Y121167D02*
X124744Y121260D01*
X129041Y114474D02*
X129337D01*
X124409Y139862D02*
Y144740D01*
X122835Y138287D02*
X124409Y139862D01*
X122835Y132622D02*
Y138287D01*
X122638Y132426D02*
X122835Y132622D01*
X122638Y132382D02*
Y132426D01*
X120768Y130512D02*
X122638Y132382D01*
X120768Y128642D02*
Y130512D01*
X118313Y145374D02*
X123775D01*
X124409Y144740D01*
X118313Y144594D02*
Y145374D01*
X120774Y142822D02*
Y143510D01*
X106693Y135630D02*
X116929D01*
X148370Y132776D02*
X148819D01*
X146850Y138287D02*
X146850Y138287D01*
X144882Y132776D02*
X145330D01*
X146850Y140748D02*
X146850Y140748D01*
X146661Y160244D02*
Y162999D01*
X146850Y163189D01*
X113386Y163287D02*
X115354D01*
Y161811D02*
Y163287D01*
X115065Y161521D02*
X115354Y161811D01*
X115065Y157231D02*
Y161521D01*
X117323Y163287D02*
X119291D01*
X115354D02*
X117323D01*
X115065Y157231D02*
X116784Y155512D01*
X116787D01*
X120866Y135630D02*
Y135685D01*
X18602Y126447D02*
X18730D01*
X18602Y126575D02*
X18730Y126447D01*
X17697Y129705D02*
X18602D01*
X16929Y128937D02*
X17697Y129705D01*
X14567Y128937D02*
X16929D01*
X13134Y137402D02*
X17677D01*
X14862Y122933D02*
X18602D01*
X14665Y123130D02*
X14862Y122933D01*
X14567Y123031D02*
X14665Y123130D01*
X10630Y123086D02*
X13134Y125591D01*
X10630Y134897D02*
X13134Y137402D01*
X10335Y141043D02*
X10630Y140748D01*
X6988Y141043D02*
X10335D01*
X7480Y153150D02*
X9646D01*
X10433Y152362D01*
X10630Y146708D02*
X13922Y150000D01*
X13134Y161024D02*
X15212D01*
X10630Y158519D02*
X13134Y161024D01*
X16634Y157991D02*
X19783Y161141D01*
X16634Y154626D02*
Y157991D01*
X14567Y152559D02*
X16634Y154626D01*
X18209Y157339D02*
X21358Y160488D01*
X18209Y152209D02*
Y157339D01*
X19783Y156686D02*
X22933Y159836D01*
X19783Y151557D02*
Y156686D01*
X22933Y161601D02*
X28655Y167323D01*
X71001D02*
X71850Y166474D01*
X21358Y162253D02*
X28003Y168898D01*
X71653D02*
X73819Y166732D01*
X19783Y162905D02*
X27351Y170473D01*
X75387D02*
X79724Y166135D01*
X18209Y163558D02*
X26698Y172047D01*
X76039D02*
X81693Y166394D01*
X16634Y164210D02*
X26046Y173622D01*
X76692D02*
X83661Y166652D01*
X14567Y164370D02*
X25394Y175197D01*
X77344D02*
X85630Y166911D01*
X45276Y150000D02*
X45474D01*
X47099Y151378D02*
X50591D01*
X67913Y162795D02*
X68209Y162500D01*
X14567Y146653D02*
X14880D01*
X19783Y151557D01*
X22933Y159836D02*
Y161601D01*
X21358Y160488D02*
Y162253D01*
X19783Y161141D02*
Y162905D01*
X18209Y161793D02*
Y163558D01*
X15865Y159449D02*
X18209Y161793D01*
X16634Y162445D02*
Y164210D01*
X15212Y161024D02*
X16634Y162445D01*
X73819Y162795D02*
Y166732D01*
X71850Y162795D02*
Y166474D01*
X10630Y146653D02*
Y146708D01*
X13922Y150000D02*
X16000D01*
X18209Y152209D01*
X10630Y158465D02*
Y158519D01*
X79724Y162795D02*
Y166135D01*
X14567Y158993D02*
X15022Y159449D01*
X15865D01*
X81693Y162795D02*
Y166394D01*
X83661Y162795D02*
Y166652D01*
X85630Y162795D02*
Y166911D01*
X136417Y107087D02*
X139173D01*
X116732D02*
X116763Y107056D01*
X122266D01*
X116831Y143420D02*
X118005Y144594D01*
X118313D01*
X120774Y143510D02*
X120907Y143643D01*
X95079Y133661D02*
X101673D01*
X95079Y135630D02*
X101181D01*
X95079Y137598D02*
X101181D01*
D14*
X40748Y147441D02*
X50591D01*
X42815Y145472D02*
X50591D01*
X42520Y145177D02*
X42815Y145472D01*
X39756Y146449D02*
X40748Y147441D01*
X33472Y146449D02*
X39756D01*
X36122Y142224D02*
X42520D01*
X35728Y142618D02*
X36122Y142224D01*
X31535Y150630D02*
Y154331D01*
X30413Y149508D02*
X31535Y150630D01*
X30413Y149508D02*
X33472Y146449D01*
X34606Y137795D02*
Y141496D01*
X35728Y142618D01*
D15*
X175008Y65461D02*
Y66145D01*
X172539Y62992D02*
X175008Y65461D01*
X167650Y56949D02*
X167807Y56791D01*
X165551Y56949D02*
X167650D01*
X163976Y58071D02*
X164764Y58858D01*
X167717D01*
X162590Y61417D02*
X162697D01*
Y62992D01*
X97579Y93839D02*
X97736Y93996D01*
X94488Y93839D02*
X97579D01*
X139272Y82874D02*
X142913D01*
X138583Y82185D02*
X139272Y82874D01*
X138583Y76083D02*
X142815D01*
X66732Y59252D02*
X67622Y58363D01*
Y54697D02*
Y58363D01*
Y54697D02*
X68405Y53913D01*
Y45866D02*
Y53913D01*
X65059Y59252D02*
X66732D01*
X61221Y81934D02*
Y84547D01*
X60236Y80950D02*
X61221Y81934D01*
X60236Y73775D02*
Y80950D01*
Y73775D02*
X61221Y72790D01*
Y69685D02*
Y72790D01*
X58858Y86910D02*
X61221Y84547D01*
X56890Y65354D02*
X61221Y69685D01*
X97697Y96909D02*
X97736Y96949D01*
X94488Y96909D02*
X97697D01*
X62539Y97992D02*
X62598Y97933D01*
X58661Y97992D02*
X62539D01*
X127173Y155519D02*
X129337D01*
X126772Y155118D02*
X127173Y155519D01*
X126575Y155315D02*
X126772Y155118D01*
X126476Y155217D02*
Y160433D01*
Y155217D02*
X126575Y155315D01*
X125984Y154724D02*
X126476Y155217D01*
X41339Y132283D02*
X41535Y132087D01*
X46358D01*
X47933Y133661D01*
X50591D01*
X89573Y154430D02*
X90551Y155408D01*
X90841Y151181D02*
X94882D01*
X89573Y152450D02*
X90841Y151181D01*
X89573Y152450D02*
Y154430D01*
X94882Y151181D02*
X95079Y151378D01*
X90551Y156693D02*
X94291Y160433D01*
X90551Y155408D02*
Y156693D01*
X94291Y160433D02*
Y162947D01*
X102362Y155020D02*
X109449Y147933D01*
X102362Y155020D02*
Y161614D01*
X56476Y64376D02*
Y64935D01*
X56988Y65447D01*
X56890Y65354D02*
X56893Y65351D01*
X64173Y60138D02*
X65059Y59252D01*
X64567Y42028D02*
X68405Y45866D01*
X47640Y104041D02*
X49510Y105911D01*
Y110734D01*
X64567Y19783D02*
Y22047D01*
Y33858D02*
Y42028D01*
X70079Y146949D02*
X72736D01*
X73425Y147638D01*
X73436D02*
X75394Y149595D01*
X73425Y147638D02*
X73436D01*
X75394Y149595D02*
Y154528D01*
X50884Y82185D02*
X51676Y82977D01*
X49311Y76772D02*
Y80315D01*
Y80624D01*
X50872Y82185D01*
X50884D01*
X94941Y182629D02*
Y189055D01*
Y182629D02*
X96398Y181172D01*
Y173976D02*
Y181172D01*
Y173976D02*
X97047Y173327D01*
X59353Y128381D02*
X67691Y136719D01*
X68015D01*
X105315Y117277D02*
X107467Y119429D01*
X105315Y111724D02*
Y117277D01*
X103346Y107185D02*
X105020Y108858D01*
X102854Y110236D02*
Y111699D01*
X105020Y108858D02*
Y111429D01*
X105315Y111724D01*
X101378Y119685D02*
X103937Y117126D01*
Y112781D02*
Y117126D01*
X102854Y111699D02*
X103937Y112781D01*
X112933Y119429D02*
X116443Y122939D01*
X107467Y119429D02*
X112933D01*
X109553Y147054D02*
Y147829D01*
X92028Y118760D02*
X92087D01*
X93799Y119685D02*
X96161D01*
X101181D01*
X101378D01*
X109055Y163779D02*
X110925Y165650D01*
X104528Y163779D02*
X109055D01*
X71240Y185059D02*
X89919Y166380D01*
X90857D02*
X94291Y162947D01*
X89919Y166380D02*
X90857D01*
X156592Y57778D02*
X158661Y55709D01*
X155519Y57778D02*
X156592D01*
X173422Y57188D02*
X175894D01*
X172539Y62992D02*
X178188D01*
X181496Y59684D01*
Y57677D02*
Y59684D01*
X172343Y58268D02*
X173422Y57188D01*
X158661Y55709D02*
X159547D01*
X168118Y51479D02*
X168307Y51667D01*
X166535Y53439D02*
X168307Y51667D01*
X102362Y161614D02*
X104528Y163779D01*
X109449Y147933D02*
X109553Y147829D01*
X110925Y165650D02*
X121260D01*
X126476Y160433D01*
X50591Y131693D02*
X53931D01*
X57697Y189055D02*
X61240Y192598D01*
X69165D01*
X71240Y190523D01*
Y185059D02*
Y190523D01*
D16*
X132529Y190945D02*
D03*
X139124D02*
D03*
D17*
X124360D02*
D03*
X147293D02*
D03*
D18*
X145522Y180905D02*
D03*
X126132D02*
D03*
D19*
X130709Y179488D02*
D03*
X133268D02*
D03*
X135827D02*
D03*
X138386D02*
D03*
X140945D02*
D03*
D20*
X120768Y128642D02*
D03*
X116831D02*
D03*
Y134547D02*
D03*
X120768D02*
D03*
X10630Y164370D02*
D03*
X14567D02*
D03*
Y158465D02*
D03*
X10630D02*
D03*
Y152559D02*
D03*
X14567D02*
D03*
Y146653D02*
D03*
X10630D02*
D03*
Y140748D02*
D03*
X14567D02*
D03*
Y134843D02*
D03*
X10630D02*
D03*
Y128937D02*
D03*
X14567D02*
D03*
Y123031D02*
D03*
X10630D02*
D03*
D21*
X35728Y149508D02*
D03*
Y142618D02*
D03*
X30413D02*
D03*
Y149508D02*
D03*
D22*
X58071Y162795D02*
D03*
X60039D02*
D03*
X62008D02*
D03*
X63976D02*
D03*
X65945D02*
D03*
X67913D02*
D03*
X69882D02*
D03*
X71850D02*
D03*
X73819D02*
D03*
X75787D02*
D03*
X77756D02*
D03*
X79724D02*
D03*
X81693D02*
D03*
X83661D02*
D03*
X85630D02*
D03*
X87598D02*
D03*
Y118307D02*
D03*
X85630D02*
D03*
X83661D02*
D03*
X81693D02*
D03*
X79724D02*
D03*
X77756D02*
D03*
X75787D02*
D03*
X73819D02*
D03*
X71850D02*
D03*
X69882D02*
D03*
X67913D02*
D03*
X65945D02*
D03*
X63976D02*
D03*
X62008D02*
D03*
X60039D02*
D03*
X58071D02*
D03*
D23*
X95079Y155315D02*
D03*
Y153347D02*
D03*
Y151378D02*
D03*
Y149409D02*
D03*
Y147441D02*
D03*
Y145472D02*
D03*
Y143504D02*
D03*
Y141535D02*
D03*
Y139567D02*
D03*
Y137598D02*
D03*
Y135630D02*
D03*
Y133661D02*
D03*
Y131693D02*
D03*
Y129724D02*
D03*
Y127756D02*
D03*
Y125787D02*
D03*
X50591D02*
D03*
Y127756D02*
D03*
Y129724D02*
D03*
Y131693D02*
D03*
Y133661D02*
D03*
Y135630D02*
D03*
Y137598D02*
D03*
Y139567D02*
D03*
Y141535D02*
D03*
Y143504D02*
D03*
Y145472D02*
D03*
Y147441D02*
D03*
Y149409D02*
D03*
Y151378D02*
D03*
Y153347D02*
D03*
Y155315D02*
D03*
D24*
X116732Y114764D02*
D03*
Y112205D02*
D03*
Y109646D02*
D03*
Y107087D02*
D03*
Y104528D02*
D03*
Y101969D02*
D03*
Y99410D02*
D03*
X139173Y114764D02*
D03*
Y112205D02*
D03*
Y109646D02*
D03*
Y107087D02*
D03*
Y104528D02*
D03*
Y101969D02*
D03*
Y99410D02*
D03*
D25*
X37795Y111024D02*
D03*
Y124409D02*
D03*
D26*
X113386Y163287D02*
D03*
X115354D02*
D03*
X117323D02*
D03*
X119291D02*
D03*
X113386Y168012D02*
D03*
X115354D02*
D03*
X117323D02*
D03*
X119291D02*
D03*
D27*
X164665Y107087D02*
D03*
X154232D02*
D03*
X164665Y100000D02*
D03*
X154232D02*
D03*
D28*
X161024Y107087D02*
D03*
X157874D02*
D03*
X161024Y100000D02*
D03*
X157874D02*
D03*
D29*
X138583Y82185D02*
D03*
Y76083D02*
D03*
D30*
X181496Y52559D02*
D03*
Y57677D02*
D03*
D31*
X64173Y60138D02*
D03*
Y49311D02*
D03*
X155118Y46358D02*
D03*
Y35531D02*
D03*
D32*
X160630Y68110D02*
D03*
X155905D02*
D03*
D33*
X188386Y36319D02*
D03*
X183268D02*
D03*
X185827Y28248D02*
D03*
D34*
X64567Y22047D02*
D03*
Y33858D02*
D03*
D35*
X77953Y75689D02*
D03*
Y93602D02*
D03*
D36*
X185039Y85039D02*
D03*
Y74803D02*
D03*
X176772Y85039D02*
D03*
Y74803D02*
D03*
X168504Y85039D02*
D03*
Y74803D02*
D03*
X127953Y76378D02*
D03*
Y86614D02*
D03*
X119685Y76378D02*
D03*
Y86614D02*
D03*
X111417Y76378D02*
D03*
Y86614D02*
D03*
D37*
X96161Y114764D02*
D03*
Y119685D02*
D03*
X101181Y114764D02*
D03*
Y119685D02*
D03*
X114567Y152854D02*
D03*
Y147933D02*
D03*
X109449Y152854D02*
D03*
Y147933D02*
D03*
D38*
X108701Y116142D02*
D03*
X111772D02*
D03*
X127815Y121260D02*
D03*
X124744D02*
D03*
X147894Y109646D02*
D03*
X144823D02*
D03*
X147894Y112992D02*
D03*
X144823D02*
D03*
X147205Y101575D02*
D03*
X144134D02*
D03*
X147205Y98032D02*
D03*
X144134D02*
D03*
X108701Y101575D02*
D03*
X111772D02*
D03*
X108701Y98032D02*
D03*
X111772D02*
D03*
X108701Y112598D02*
D03*
X111772D02*
D03*
X88150Y113386D02*
D03*
X85079D02*
D03*
X61673Y113091D02*
D03*
X58602D02*
D03*
X31535Y137795D02*
D03*
X34606D02*
D03*
X34606Y154331D02*
D03*
X31535D02*
D03*
X164606Y69685D02*
D03*
X167677D02*
D03*
D39*
X42520Y142224D02*
D03*
Y145177D02*
D03*
X148819Y168209D02*
D03*
Y171161D02*
D03*
X44882Y80020D02*
D03*
Y82972D02*
D03*
X148819Y135728D02*
D03*
Y132776D02*
D03*
X152756Y135728D02*
D03*
Y132776D02*
D03*
X144882Y135728D02*
D03*
Y132776D02*
D03*
X140945Y135728D02*
D03*
Y132776D02*
D03*
X144882Y168209D02*
D03*
Y171161D02*
D03*
X140945Y168209D02*
D03*
Y171161D02*
D03*
X152756Y168209D02*
D03*
Y171161D02*
D03*
X62598Y94980D02*
D03*
Y97933D02*
D03*
X159547Y58661D02*
D03*
Y55709D02*
D03*
X97736Y96949D02*
D03*
Y93996D02*
D03*
X24803Y97933D02*
D03*
Y94980D02*
D03*
X160138Y123130D02*
D03*
Y120177D02*
D03*
X163583D02*
D03*
Y123130D02*
D03*
X134055Y129429D02*
D03*
Y132382D02*
D03*
X134153Y126378D02*
D03*
Y123425D02*
D03*
X142618Y119095D02*
D03*
Y122047D02*
D03*
D40*
X92028Y115689D02*
D03*
Y118760D02*
D03*
X58661Y94921D02*
D03*
Y97992D02*
D03*
X165551Y56949D02*
D03*
Y53878D02*
D03*
X94488Y93839D02*
D03*
Y96909D02*
D03*
X20866Y94921D02*
D03*
Y97992D02*
D03*
X45276Y116181D02*
D03*
Y119252D02*
D03*
D41*
X154528Y163189D02*
D03*
X151969D02*
D03*
X149409D02*
D03*
X146850D02*
D03*
X144291D02*
D03*
X141732D02*
D03*
X139173D02*
D03*
X154528Y140748D02*
D03*
X151969D02*
D03*
X149409D02*
D03*
X146850D02*
D03*
X144291D02*
D03*
X141732D02*
D03*
X139173D02*
D03*
D42*
X166831Y137008D02*
D03*
X163878D02*
D03*
X49311Y76772D02*
D03*
X52264D02*
D03*
Y80315D02*
D03*
X49311D02*
D03*
X166831Y140551D02*
D03*
X163878D02*
D03*
X166831Y147638D02*
D03*
X163878D02*
D03*
X166831Y144095D02*
D03*
X163878D02*
D03*
X166831Y154724D02*
D03*
X163878D02*
D03*
X166831Y151181D02*
D03*
X163878D02*
D03*
X166831Y161811D02*
D03*
X163878D02*
D03*
X166831Y158268D02*
D03*
X163878D02*
D03*
X171260Y58268D02*
D03*
X168307D02*
D03*
D43*
X121063Y154724D02*
D03*
X125984D02*
D03*
X56496Y109055D02*
D03*
X61417D02*
D03*
X172539Y62992D02*
D03*
X167618D02*
D03*
X157776D02*
D03*
X162697D02*
D03*
X121752Y142520D02*
D03*
X116831D02*
D03*
D44*
X106398Y131693D02*
D03*
Y133661D02*
D03*
Y135630D02*
D03*
Y137598D02*
D03*
X101673Y131693D02*
D03*
Y133661D02*
D03*
Y135630D02*
D03*
Y137598D02*
D03*
X45276Y99410D02*
D03*
Y97441D02*
D03*
Y95472D02*
D03*
Y93504D02*
D03*
X50000Y99410D02*
D03*
Y97441D02*
D03*
Y95472D02*
D03*
Y93504D02*
D03*
D81*
X175008Y66145D02*
D03*
X146850Y131201D02*
D03*
X82977Y93607D02*
D03*
X86815Y99710D02*
D03*
X85733Y95575D02*
D03*
X84308Y101378D02*
D03*
X83173Y106107D02*
D03*
X86126Y107190D02*
D03*
X91732Y111811D02*
D03*
X85044Y113883D02*
D03*
X93405Y115551D02*
D03*
X60827Y106988D02*
D03*
X113490Y91737D02*
D03*
X108180Y92038D02*
D03*
X106344Y89646D02*
D03*
X104528Y96653D02*
D03*
X92819Y106895D02*
D03*
X79724Y113583D02*
D03*
X70673Y114080D02*
D03*
X66539Y113687D02*
D03*
X65650Y110728D02*
D03*
X83425Y82146D02*
D03*
X156496Y71653D02*
D03*
X153937Y70571D02*
D03*
X142913Y82874D02*
D03*
X142815Y76083D02*
D03*
X79630Y65456D02*
D03*
X68898Y77362D02*
D03*
X173327Y188878D02*
D03*
X173425Y184252D02*
D03*
X174311Y177953D02*
D03*
X166929Y194291D02*
D03*
X172343Y192126D02*
D03*
X177264Y174606D02*
D03*
X181299Y173425D02*
D03*
X185728Y173327D02*
D03*
X189665Y173228D02*
D03*
X194193Y173622D02*
D03*
X160138Y166043D02*
D03*
X181595Y167520D02*
D03*
X167618Y167126D02*
D03*
X174311D02*
D03*
X179331Y158563D02*
D03*
X189469Y154724D02*
D03*
X178740Y151673D02*
D03*
X189469Y134744D02*
D03*
X189272Y145276D02*
D03*
X179134Y142618D02*
D03*
X189075Y125591D02*
D03*
X179724Y121653D02*
D03*
X181496Y112500D02*
D03*
X181398Y108268D02*
D03*
X190157Y103642D02*
D03*
X187205Y98622D02*
D03*
X179232Y97835D02*
D03*
X171457Y97539D02*
D03*
X168307Y94587D02*
D03*
X101772Y116043D02*
D03*
X106595Y121949D02*
D03*
X129337Y155519D02*
D03*
X92815Y123130D02*
D03*
X147940Y116344D02*
D03*
X139075Y118602D02*
D03*
X150499Y128746D02*
D03*
X145472Y123130D02*
D03*
X78347Y181496D02*
D03*
X78642Y185236D02*
D03*
X78347Y188976D02*
D03*
X78642Y193110D02*
D03*
X22047Y179921D02*
D03*
X19882Y175492D02*
D03*
X16634Y172146D02*
D03*
X13287Y169783D02*
D03*
X7776Y169587D02*
D03*
X3839Y169390D02*
D03*
X139082Y153157D02*
D03*
X129769Y152567D02*
D03*
X137507Y159555D02*
D03*
X129626Y145571D02*
D03*
X139764Y150591D02*
D03*
X139272Y147579D02*
D03*
X42620Y136424D02*
D03*
X46754Y135735D02*
D03*
X65945Y159176D02*
D03*
X92126Y161417D02*
D03*
X91738Y153347D02*
D03*
X84645Y153149D02*
D03*
X131496Y166142D02*
D03*
X146949Y171063D02*
D03*
X104528Y156299D02*
D03*
X103150Y151083D02*
D03*
X102165Y145571D02*
D03*
X104926Y141936D02*
D03*
X112598Y159842D02*
D03*
X118504Y157480D02*
D03*
X113779Y152756D02*
D03*
X120866D02*
D03*
Y159843D02*
D03*
X117224Y96850D02*
D03*
X144882Y105610D02*
D03*
X131890Y103248D02*
D03*
X123819Y102756D02*
D03*
X84350Y142028D02*
D03*
X86024Y143898D02*
D03*
X82284Y148425D02*
D03*
X148524Y123327D02*
D03*
X163976Y62402D02*
D03*
X168307Y58071D02*
D03*
X163976D02*
D03*
X168307Y62402D02*
D03*
X157382Y160925D02*
D03*
X160039Y161122D02*
D03*
X159941Y148721D02*
D03*
X159055Y151673D02*
D03*
X152362Y149114D02*
D03*
X148917Y149508D02*
D03*
X149902Y157480D02*
D03*
X108366Y142520D02*
D03*
X125886Y129724D02*
D03*
X56476Y64376D02*
D03*
X58858Y86910D02*
D03*
X63976Y86811D02*
D03*
X61319Y91535D02*
D03*
X61417Y88976D02*
D03*
X72047Y91043D02*
D03*
X76181Y90748D02*
D03*
X72146Y98327D02*
D03*
X55118Y91437D02*
D03*
X56102Y106201D02*
D03*
X52756D02*
D03*
X47640Y104041D02*
D03*
X53841Y100399D02*
D03*
X49510Y110734D02*
D03*
X39665Y116929D02*
D03*
X50197Y98524D02*
D03*
X35041Y107584D02*
D03*
X32087Y106791D02*
D03*
X44998Y101673D02*
D03*
X68310Y42620D02*
D03*
X69784Y39862D02*
D03*
X58268Y91437D02*
D03*
X77264Y87795D02*
D03*
X75689Y96555D02*
D03*
X73268Y94232D02*
D03*
X73724Y101481D02*
D03*
X194291Y28839D02*
D03*
X189469Y39173D02*
D03*
X182087Y35583D02*
D03*
X145480Y30415D02*
D03*
X144390Y33465D02*
D03*
X147047Y50394D02*
D03*
X148728Y46951D02*
D03*
X135925Y12205D02*
D03*
X118411Y7973D02*
D03*
X123530Y6890D02*
D03*
X121555Y10827D02*
D03*
X115360Y8170D02*
D03*
X164075Y69048D02*
D03*
X168209D02*
D03*
X161327Y70476D02*
D03*
X186122Y31398D02*
D03*
X185934Y42030D02*
D03*
X72342Y137795D02*
D03*
X75787Y137894D02*
D03*
X68996Y133858D02*
D03*
X70079Y146949D02*
D03*
X72244Y144390D02*
D03*
X72539Y149803D02*
D03*
X82087Y138878D02*
D03*
X85339Y136129D02*
D03*
X84748Y129239D02*
D03*
X75394Y154528D02*
D03*
X79335Y155126D02*
D03*
X77756Y149606D02*
D03*
X82189Y127172D02*
D03*
X75394Y130905D02*
D03*
X78252Y130420D02*
D03*
X88390Y123825D02*
D03*
X88193Y126778D02*
D03*
X68898Y129921D02*
D03*
X90661Y133082D02*
D03*
X59747Y132290D02*
D03*
X54924Y135046D02*
D03*
Y139180D02*
D03*
X58661Y145669D02*
D03*
X54629Y142133D02*
D03*
X59646Y149704D02*
D03*
X60039Y159176D02*
D03*
X57480Y161811D02*
D03*
X62458Y151673D02*
D03*
X65354Y153150D02*
D03*
X54432Y131207D02*
D03*
X53940Y127762D02*
D03*
X59255Y128451D02*
D03*
X60731Y139082D02*
D03*
X66276Y104000D02*
D03*
X67716Y100984D02*
D03*
X59496Y103437D02*
D03*
X56299Y100787D02*
D03*
X60928Y100694D02*
D03*
X55709Y111909D02*
D03*
X16535Y50689D02*
D03*
X2953Y22736D02*
D03*
X7087Y29528D02*
D03*
X8709Y32728D02*
D03*
X5020Y25984D02*
D03*
X14764Y47047D02*
D03*
X12894Y43602D02*
D03*
X9837Y36018D02*
D03*
X11516Y39370D02*
D03*
X55315Y114961D02*
D03*
X30413Y111713D02*
D03*
X80020Y102264D02*
D03*
X36714Y84847D02*
D03*
X51676Y82977D02*
D03*
X56890Y78839D02*
D03*
X50984Y73228D02*
D03*
X44882Y75394D02*
D03*
Y78642D02*
D03*
X123524Y124606D02*
D03*
X128248Y138779D02*
D03*
X125394Y136221D02*
D03*
X129626Y142421D02*
D03*
X109055Y185138D02*
D03*
X107579Y180413D02*
D03*
X99410Y187205D02*
D03*
X112598Y182382D02*
D03*
Y190847D02*
D03*
X117323Y183268D02*
D03*
X117224Y190945D02*
D03*
X97047Y173327D02*
D03*
X71752Y155610D02*
D03*
X72638Y158465D02*
D03*
X26083Y120669D02*
D03*
X28248Y123917D02*
D03*
X23917Y124803D02*
D03*
X39272Y129724D02*
D03*
X41339Y132283D02*
D03*
X82874Y155610D02*
D03*
X86024Y157283D02*
D03*
X77461Y144291D02*
D03*
X68701Y126279D02*
D03*
X55512Y118110D02*
D03*
X68015Y136719D02*
D03*
X21457Y141535D02*
D03*
X107879Y104729D02*
D03*
X103346Y107185D02*
D03*
X102854Y110236D02*
D03*
X110531Y107972D02*
D03*
X114080Y107092D02*
D03*
X107289Y110635D02*
D03*
X99016Y106890D02*
D03*
X107480Y116147D02*
D03*
X106304Y126384D02*
D03*
X97441Y110236D02*
D03*
X95915Y106890D02*
D03*
X116443Y122841D02*
D03*
X120768Y126083D02*
D03*
X112407Y144594D02*
D03*
X109553Y147054D02*
D03*
X100792Y142920D02*
D03*
X85138Y139173D02*
D03*
X54756Y160303D02*
D03*
X54626Y164567D02*
D03*
X50223Y158861D02*
D03*
X51181Y164764D02*
D03*
X45571Y141043D02*
D03*
X93405Y120079D02*
D03*
X103647Y127959D02*
D03*
X102170Y125203D02*
D03*
X128839Y132283D02*
D03*
X130814Y126286D02*
D03*
X130912Y123333D02*
D03*
X128642Y121260D02*
D03*
X122545Y121167D02*
D03*
X124022Y118313D02*
D03*
Y115360D02*
D03*
X123234Y111226D02*
D03*
X107773Y169786D02*
D03*
X107776Y166142D02*
D03*
X89961Y164215D02*
D03*
X155519Y57778D02*
D03*
X172449Y50199D02*
D03*
X175894Y57188D02*
D03*
X177953Y50394D02*
D03*
X173630Y53152D02*
D03*
X176879Y60141D02*
D03*
X172639Y70771D02*
D03*
X168118Y51479D02*
D03*
X79528Y40846D02*
D03*
X75689Y43406D02*
D03*
X117815Y112205D02*
D03*
X129337Y114474D02*
D03*
X120774Y142822D02*
D03*
X104528Y160531D02*
D03*
X173721Y124705D02*
D03*
X169783Y120571D02*
D03*
X135925Y166535D02*
D03*
X136516Y169488D02*
D03*
X144291Y140748D02*
D03*
X145877Y146063D02*
D03*
X146850Y138287D02*
D03*
X146661Y160244D02*
D03*
X170776Y137015D02*
D03*
X134153Y97441D02*
D03*
X171465Y143216D02*
D03*
X171063Y149409D02*
D03*
X171161Y155610D02*
D03*
X171063Y161811D02*
D03*
X133169Y184153D02*
D03*
X18602Y122933D02*
D03*
Y126319D02*
D03*
Y129705D02*
D03*
Y133090D02*
D03*
Y136476D02*
D03*
Y139862D02*
D03*
X47250Y129724D02*
D03*
X41339Y83169D02*
D03*
X6988Y141043D02*
D03*
X10630Y128937D02*
D03*
X7480Y153150D02*
D03*
X10630Y164370D02*
D03*
X29823Y158268D02*
D03*
X36024Y158563D02*
D03*
X36909Y162402D02*
D03*
X30906Y162598D02*
D03*
X30315Y144980D02*
D03*
X34055Y149606D02*
D03*
X45282Y158230D02*
D03*
X45276Y150000D02*
D03*
X41732Y153149D02*
D03*
X42126Y150000D02*
D03*
X161268Y115453D02*
D03*
X157685Y100989D02*
D03*
Y114277D02*
D03*
X167922Y130026D02*
D03*
X169095Y107973D02*
D03*
X173130Y105905D02*
D03*
X155217Y151673D02*
D03*
X168709Y117230D02*
D03*
X170776Y114966D02*
D03*
X171465Y112013D02*
D03*
X166437Y127165D02*
D03*
X160734Y125993D02*
D03*
X155217Y140748D02*
D03*
X162114Y129731D02*
D03*
X160138Y133760D02*
D03*
X151877Y137310D02*
D03*
X156602Y137015D02*
D03*
X160736Y137113D02*
D03*
X113490Y171071D02*
D03*
X120177Y171260D02*
D03*
X116831Y170784D02*
D03*
X152756Y171161D02*
D03*
X153846Y107092D02*
D03*
X153452Y128746D02*
D03*
X153017Y123432D02*
D03*
X156110Y122152D02*
D03*
X157980Y107486D02*
D03*
X150795Y110931D02*
D03*
X152468Y97643D02*
D03*
X149902Y99311D02*
D03*
X123524Y95276D02*
D03*
X127270Y97446D02*
D03*
X143996Y111319D02*
D03*
X119691Y101678D02*
D03*
X136129Y110045D02*
D03*
X136417Y107087D02*
D03*
X132880Y108175D02*
D03*
X120866Y109320D02*
D03*
X118313Y144594D02*
D03*
D82*
X54031Y141535D02*
X54629Y142133D01*
X91142Y160433D02*
X92126Y161417D01*
X91142Y159968D02*
Y160433D01*
X89272Y158098D02*
X91142Y159968D01*
X89272Y155938D02*
Y158098D01*
X65945Y159176D02*
Y162795D01*
X62008D02*
X62106Y162697D01*
Y158320D02*
Y162697D01*
X37795Y114764D02*
X39665Y116634D01*
X37795Y111024D02*
Y114764D01*
X154695Y126673D02*
X155905Y125462D01*
Y121947D02*
Y125462D01*
X82977Y93607D02*
Y99118D01*
X83071Y99213D01*
X86815Y99710D02*
Y99710D01*
X86417Y99311D02*
X86815Y99710D01*
X83356Y99311D02*
X86417D01*
X84308Y101378D02*
Y101519D01*
X83164Y99119D02*
X83356Y99311D01*
X80020Y102264D02*
X83071Y99213D01*
X83164Y99119D01*
X81106Y104720D02*
X84308Y101519D01*
X63028Y105864D02*
X65825Y108661D01*
X63028Y102625D02*
Y105864D01*
X64209Y105375D02*
X66314Y107480D01*
X64209Y103114D02*
Y105375D01*
X108481Y91737D02*
X113490D01*
X108180Y92038D02*
X108481Y91737D01*
X106344Y89670D02*
X114346D01*
X114647Y89971D02*
X116841D01*
X114346Y89670D02*
X114647Y89971D01*
X116841D02*
X122146Y95276D01*
X31619Y104336D02*
X34949D01*
X30020Y105935D02*
X31619Y104336D01*
X34949D02*
X39567Y99717D01*
X81106Y106964D02*
X82977Y108834D01*
Y114740D01*
X73622Y104429D02*
X81791Y112598D01*
X81106Y104720D02*
Y106964D01*
X79724Y113583D02*
Y118307D01*
X81791Y112598D02*
Y118209D01*
X75787Y110728D02*
Y118307D01*
X69882Y104823D02*
X75787Y110728D01*
X73921Y110532D02*
Y118205D01*
X68701Y105312D02*
X73921Y110532D01*
X71850Y115826D02*
X72740Y114936D01*
Y111421D02*
Y114936D01*
X66276Y104957D02*
X72740Y111421D01*
X70079Y114674D02*
X70673Y114080D01*
X67982Y115748D02*
X68606Y115124D01*
Y112366D02*
Y115124D01*
Y112366D02*
X68898Y112074D01*
Y109383D02*
Y112074D01*
X65945Y114280D02*
X66539Y113687D01*
Y112762D02*
Y113687D01*
X63976Y112402D02*
Y118307D01*
X66539Y112762D02*
X67716Y111584D01*
Y109872D02*
Y111584D01*
X63976Y112402D02*
X65650Y110728D01*
X65825Y108661D02*
X66506D01*
X66314Y107480D02*
X66995D01*
X78583Y82146D02*
X83425D01*
X75689Y69685D02*
X79630Y65744D01*
X70560Y69685D02*
X75689D01*
X72445Y56695D02*
Y63150D01*
X70571Y65024D02*
X72445Y63150D01*
X71263Y56205D02*
Y62661D01*
X69390Y64534D02*
X71263Y62661D01*
X70082Y55716D02*
Y62171D01*
X68209Y64045D02*
X70082Y62171D01*
X68901Y55227D02*
Y61682D01*
X67028Y63556D02*
X68901Y61682D01*
X79630Y65456D02*
Y65744D01*
X69685Y43995D02*
Y54443D01*
X70866Y40945D02*
Y54932D01*
X72047Y44124D02*
Y55422D01*
X68901Y55227D02*
X69685Y54443D01*
X70082Y55716D02*
X70866Y54932D01*
X71263Y56205D02*
X72047Y55422D01*
X72445Y56695D02*
X73228Y55911D01*
Y45866D02*
Y55911D01*
X69095Y71151D02*
X70560Y69685D01*
X67913Y70662D02*
X70571Y68004D01*
Y65024D02*
Y68004D01*
X66732Y70173D02*
X69390Y67515D01*
Y64534D02*
Y67515D01*
X65551Y69683D02*
X68209Y67026D01*
Y64045D02*
Y67026D01*
X64370Y69194D02*
X67028Y66537D01*
Y63556D02*
Y66537D01*
X69095Y71151D02*
Y77165D01*
X68898Y77362D02*
X69095Y77165D01*
X64370Y80769D02*
Y83563D01*
X63287Y79686D02*
X64370Y80769D01*
X63287Y75038D02*
Y79686D01*
Y75038D02*
X64370Y73956D01*
Y69194D02*
Y73956D01*
X65551Y80279D02*
Y83071D01*
X64468Y79197D02*
X65551Y80279D01*
X64468Y75528D02*
Y79197D01*
Y75528D02*
X65551Y74445D01*
Y69683D02*
Y74445D01*
X66732Y79790D02*
Y82582D01*
X65650Y78708D02*
X66732Y79790D01*
X65650Y76017D02*
Y78708D01*
Y76017D02*
X66732Y74934D01*
Y70173D02*
Y74934D01*
X67913Y79301D02*
Y82092D01*
X66831Y78218D02*
X67913Y79301D01*
X66831Y76506D02*
Y78218D01*
Y76506D02*
X67913Y75423D01*
Y70662D02*
Y75423D01*
X69882Y84061D02*
Y104823D01*
X67913Y82092D02*
X69882Y84061D01*
X68701Y84550D02*
Y105312D01*
X66732Y82582D02*
X68701Y84550D01*
X67520Y85039D02*
Y98228D01*
X65551Y83071D02*
X67520Y85039D01*
X66339Y85532D02*
Y97739D01*
X64370Y83563D02*
X66339Y85532D01*
X160896Y163189D02*
X162274Y161811D01*
X163878D01*
X159183Y163189D02*
X160896D01*
X159119Y163125D02*
X159183Y163189D01*
X159119Y163125D02*
X159119D01*
X155709Y166535D02*
X159119Y163125D01*
X155709Y166535D02*
Y171332D01*
X154528Y163189D02*
Y169560D01*
X145799Y117126D02*
X147084Y118411D01*
X140551Y117126D02*
X145799D01*
X147084Y118411D02*
X148813D01*
X146097Y119095D02*
X146595Y119592D01*
X142618Y119095D02*
X146097D01*
X146595Y119592D02*
X149302D01*
X147940Y116344D02*
X148321D01*
X144062Y120773D02*
X149792D01*
X142788Y122047D02*
X144062Y120773D01*
X146292Y114902D02*
X146811Y114383D01*
X139311Y114902D02*
X146292D01*
X139075Y118602D02*
X140551Y117126D01*
X138219Y120669D02*
X140873D01*
X137923Y120374D02*
X138219Y120669D01*
X133279Y120374D02*
X137923D01*
X137434Y121555D02*
X137926Y122047D01*
X132480Y121555D02*
X137434D01*
X148321Y116344D02*
X152455Y112210D01*
X140873Y120669D02*
X142448Y119095D01*
X137926Y122047D02*
X142618D01*
X149792Y120773D02*
X152947Y117618D01*
X149302Y119592D02*
X152458Y116437D01*
X148813Y118411D02*
X152061Y115163D01*
X136221Y125492D02*
X152649D01*
X134449Y126673D02*
X154695D01*
X149607Y127854D02*
X150499Y128746D01*
X149735Y130905D02*
X155821D01*
X147865Y129035D02*
X149735Y130905D01*
X146811Y113681D02*
Y114383D01*
X142618Y122047D02*
X142788D01*
X135800Y127854D02*
X149607D01*
X137795Y129035D02*
X147865D01*
X92597Y131693D02*
X95079D01*
X91121Y130217D02*
X92597Y131693D01*
X92224Y139567D02*
X95079D01*
X90661Y138003D02*
X92224Y139567D01*
X90661Y133082D02*
Y138003D01*
X97167Y141535D02*
X98721Y143089D01*
X95079Y141535D02*
X97167D01*
X134252Y156624D02*
Y159223D01*
X140595Y159555D02*
X148477Y151673D01*
X134252Y159223D02*
X135925Y160897D01*
Y166535D01*
X137507Y159555D02*
X140595D01*
X141831Y144788D02*
Y153445D01*
X139862Y155413D02*
X141831Y153445D01*
X46754Y135735D02*
X50190D01*
X50289Y135833D01*
X50591Y135531D01*
X64035Y160190D02*
Y161725D01*
X63386Y159540D02*
X64035Y160190D01*
X63386Y157651D02*
Y159540D01*
X98721Y165827D02*
X106713Y173819D01*
X98721Y150591D02*
Y165827D01*
X106713Y173819D02*
X111366D01*
X134048D02*
X135827Y175598D01*
X122490Y173819D02*
X134048D01*
X99902Y149508D02*
Y165059D01*
X97835Y147441D02*
X99902Y149508D01*
X95079Y147441D02*
X97835D01*
X88189Y154855D02*
X89272Y155938D01*
X88189Y150274D02*
Y154855D01*
Y150274D02*
X92991Y145472D01*
X88090Y156427D02*
Y158587D01*
X89961Y160457D01*
X87008Y155345D02*
X88090Y156427D01*
X87008Y149487D02*
Y155345D01*
Y149487D02*
X92991Y143504D01*
X101083Y148228D02*
Y164570D01*
X102859Y142792D02*
X104765Y144698D01*
X98721Y145866D02*
X101083Y148228D01*
X104765Y144698D02*
X112303D01*
X102859Y140419D02*
Y142792D01*
X109783Y96220D02*
Y96949D01*
Y96220D02*
X109882Y96122D01*
X116496D01*
X117224Y96850D01*
X116732Y97342D02*
X117224Y96850D01*
X108701Y98032D02*
X109783Y96949D01*
X143465Y103484D02*
X145603D01*
X147205Y101883D01*
X142421Y104528D02*
X143465Y103484D01*
X139173Y104528D02*
X142421D01*
X122146Y95276D02*
X123524D01*
X53046Y158861D02*
X55216Y156690D01*
X150000Y146063D02*
X150295Y146358D01*
X162598D02*
X163878Y147638D01*
X150295Y146358D02*
X162598D01*
X148477Y151673D02*
X155217D01*
X57188Y127595D02*
X58071Y126712D01*
Y118307D02*
Y126712D01*
X57188Y127595D02*
Y129370D01*
X56004Y128621D02*
X56007Y128618D01*
Y126906D02*
Y128618D01*
X54796Y125695D02*
X56007Y126906D01*
X56004Y128621D02*
Y129856D01*
X56499Y130351D01*
X53083Y125695D02*
X54796D01*
X57188Y129370D02*
X57680Y129862D01*
X125886Y129724D02*
X133760D01*
X134055Y129429D01*
X160529Y49412D02*
X171755D01*
X159547Y50394D02*
X160529Y49412D01*
X147047Y50394D02*
X159547D01*
X159743Y48132D02*
X173305D01*
X158663Y49213D02*
X159743Y48132D01*
X73228Y45866D02*
X75689Y43406D01*
X72047Y44124D02*
X75325Y40846D01*
X68310Y42620D02*
X69685Y43995D01*
X69784Y39862D02*
X70866Y40945D01*
X74114Y86614D02*
Y91900D01*
X73622Y92392D02*
X74114Y91900D01*
X73622Y92392D02*
Y94232D01*
X65650Y100098D02*
X67520Y98228D01*
X64468Y99609D02*
X66339Y97739D01*
X45294Y101969D02*
X50755D01*
X48642Y100787D02*
X51244D01*
X47264Y99410D02*
X48642Y100787D01*
X50755Y101969D02*
X52822Y104035D01*
X53311Y102854D02*
X57155D01*
X51244Y100787D02*
X53311Y102854D01*
X52822Y104035D02*
X57645D01*
X39665Y116634D02*
Y116929D01*
X43804D01*
X45081Y115652D01*
X44998Y101673D02*
X45294Y101969D01*
X45276Y99410D02*
X47264D01*
X35041Y107584D02*
X42042Y100583D01*
X32087Y106791D02*
X32911D01*
X30020Y105935D02*
Y111319D01*
X75325Y40846D02*
X79528D01*
X74114Y86614D02*
X78583Y82146D01*
X73724Y101473D02*
Y101481D01*
X73622Y101575D02*
X73724Y101473D01*
X66276Y104000D02*
Y104957D01*
X174016Y15062D02*
X181788Y22835D01*
X174016Y4924D02*
Y15062D01*
X171454Y2363D02*
X174016Y4924D01*
X172835Y15551D02*
X181299Y24016D01*
X172835Y5413D02*
Y15551D01*
X170965Y3544D02*
X172835Y5413D01*
X181788Y22835D02*
X186119D01*
X191535Y28251D01*
X185630Y24016D02*
X188779Y27165D01*
X181299Y24016D02*
X185630D01*
X189663Y42030D02*
X191535Y40157D01*
Y28251D02*
Y40157D01*
X188779Y27165D02*
Y29724D01*
X187106Y31398D02*
X188779Y29724D01*
X138991Y8957D02*
X145480Y15446D01*
X122608Y8957D02*
X138991D01*
X122411Y8760D02*
X122608Y8957D01*
X120699Y8760D02*
X122411D01*
X118041Y11418D02*
X120699Y8760D01*
X136429Y4725D02*
X146661Y14956D01*
X35352Y4725D02*
X136429D01*
X146661Y14956D02*
Y28673D01*
X145480Y15446D02*
Y30415D01*
X144390Y33465D02*
X145353D01*
X146661Y28673D02*
X147547Y29559D01*
Y31271D01*
X145353Y33465D02*
X147547Y31271D01*
X148728Y46951D02*
Y47448D01*
X150492Y49213D01*
X123100Y12205D02*
X135925D01*
X121525Y13780D02*
X123100Y12205D01*
X113036Y13780D02*
X121525D01*
X111461Y12205D02*
X113036Y13780D01*
X37894Y12205D02*
X111461D01*
X114015Y11418D02*
X118041D01*
X112341Y9744D02*
X114015Y11418D01*
X37014Y9744D02*
X112341D01*
X14000Y22736D02*
X34373Y2363D01*
X12422Y25984D02*
X34863Y3544D01*
X10549Y29528D02*
X35352Y4725D01*
X9463Y32283D02*
X35841Y5906D01*
X119783Y12599D02*
X121555Y10827D01*
X113525Y12599D02*
X119783D01*
X121752Y5906D02*
X122737Y6890D01*
X35841Y5906D02*
X121752D01*
X34863Y3544D02*
X170965D01*
X34373Y2363D02*
X171454D01*
X37503Y10925D02*
X111852D01*
X118411Y7973D02*
Y8951D01*
X117126Y10237D02*
X118411Y8951D01*
X122737Y6890D02*
X123530D01*
X111852Y10925D02*
X113525Y12599D01*
X114504Y10237D02*
X117126D01*
X112830Y8563D02*
X114504Y10237D01*
X36134Y7283D02*
X114370D01*
X115256Y8170D01*
X115360D01*
X36525Y8563D02*
X112830D01*
X14961Y33468D02*
X37503Y10925D01*
X12303Y32784D02*
X36525Y8563D01*
X158661Y70866D02*
X161717D01*
X155905Y68110D02*
X158661Y70866D01*
X161327Y70476D02*
X161717Y70866D01*
X186122Y31398D02*
X187106D01*
X185934Y42030D02*
X189663D01*
X16831Y33268D02*
Y50394D01*
Y33268D02*
X37894Y12205D01*
X13583Y33175D02*
X37014Y9744D01*
X14961Y33468D02*
Y46850D01*
X2953Y22736D02*
X14000D01*
X5020Y25984D02*
X12422D01*
X7087Y29528D02*
X10549D01*
X9154Y32283D02*
X9463D01*
X11122Y32295D02*
Y33238D01*
X9837Y34523D02*
X11122Y33238D01*
Y32295D02*
X36134Y7283D01*
X12303Y32784D02*
Y38583D01*
X82087Y136945D02*
Y138878D01*
X83268Y136981D02*
X85138Y138851D01*
X83268Y136456D02*
Y136981D01*
X80572Y133760D02*
X83268Y136456D01*
X84449Y136129D02*
X85339D01*
X84748Y128320D02*
Y129239D01*
X75787Y158465D02*
X75984Y158268D01*
X87474Y129042D02*
X88853D01*
X85567Y127135D02*
X87474Y129042D01*
X82226Y127135D02*
X85567D01*
X82189Y127172D02*
X82226Y127135D01*
X84744Y128316D02*
X86651Y130223D01*
X89670Y126778D02*
X90648Y127756D01*
X88193Y126778D02*
X89670D01*
X90353Y125787D02*
X95079D01*
X88390Y123825D02*
X90353Y125787D01*
X88859Y129035D02*
X91610D01*
X88853Y129042D02*
X88859Y129035D01*
X89348Y130217D02*
X91121D01*
X89342Y130223D02*
X89348Y130217D01*
X81061Y132579D02*
X84449Y135967D01*
X77392Y132579D02*
X81061D01*
X77133Y133760D02*
X80572D01*
X80083Y134941D02*
X82087Y136945D01*
X77622Y134941D02*
X80083D01*
X76739Y134153D02*
X77133Y133760D01*
X74048Y134153D02*
X76739D01*
X77228Y135335D02*
X77622Y134941D01*
X73559Y135335D02*
X77228D01*
X76644Y132579D02*
X77362D01*
X76250Y132972D02*
X76644Y132579D01*
X74537Y132972D02*
X76250D01*
X73327Y131762D02*
X74537Y132972D01*
X73327Y123840D02*
Y131762D01*
X72146Y132251D02*
X74048Y134153D01*
X72146Y124937D02*
Y132251D01*
X70965Y132740D02*
X73559Y135335D01*
X70965Y125426D02*
Y132740D01*
X58228Y133757D02*
Y143179D01*
X57680Y133209D02*
X58228Y133757D01*
X57680Y129862D02*
Y133209D01*
X57047Y134246D02*
Y142690D01*
X56499Y133698D02*
X57047Y134246D01*
X56499Y130351D02*
Y133698D01*
X54537Y139567D02*
X54924Y139180D01*
X55216Y144520D02*
Y156690D01*
Y144520D02*
X57047Y142690D01*
X58661Y144416D02*
Y145669D01*
Y146752D01*
X56398Y145010D02*
Y158563D01*
Y145010D02*
X58228Y143179D01*
X54036Y144861D02*
Y156201D01*
X52679Y143504D02*
X54036Y144861D01*
X59646Y149016D02*
Y149704D01*
X50591Y141535D02*
X54031D01*
X50591Y143504D02*
X52679D01*
X59842Y154108D02*
X63386Y157651D01*
X46719Y156794D02*
X53442D01*
X54036Y156201D01*
X50781Y127762D02*
X53940D01*
X59646Y149016D02*
X59842Y148819D01*
Y154108D01*
X60243Y139082D02*
X60731D01*
X65945Y114280D02*
Y118307D01*
X66995Y107480D02*
X68898Y109383D01*
X66506Y108661D02*
X67716Y109872D01*
X73622Y101575D02*
Y104429D01*
X64209Y103114D02*
X65650Y101673D01*
X63028Y102625D02*
X64468Y101184D01*
Y99609D02*
Y101184D01*
X67913Y115748D02*
Y118307D01*
Y115748D02*
X67982D01*
X65650Y100098D02*
Y101673D01*
X58243Y103437D02*
X59496D01*
X57155Y102854D02*
X59025Y100984D01*
X60928Y100694D02*
X61219Y100984D01*
X70079Y114674D02*
Y118110D01*
X71850Y115826D02*
Y118307D01*
X57645Y104035D02*
X58243Y103437D01*
X59025Y100984D02*
X61219D01*
X44508Y97441D02*
X45276D01*
X43110Y98839D02*
X44508Y97441D01*
X43917Y100787D02*
X44783D01*
X16535Y50689D02*
X16831Y50394D01*
X43110Y99980D02*
X43917Y100787D01*
X30020Y111319D02*
X30413Y111713D01*
X8709Y32728D02*
X9154Y32283D01*
X14764Y47047D02*
X14961Y46850D01*
X13583Y33175D02*
Y42913D01*
X12894Y43602D02*
X13583Y42913D01*
X11516Y39370D02*
X12303Y38583D01*
X9837Y34523D02*
Y36018D01*
X39567Y87699D02*
Y99717D01*
X36714Y84847D02*
X39567Y87699D01*
X40748Y96429D02*
Y100207D01*
X35438Y105517D02*
X40748Y100207D01*
X34185Y105517D02*
X35438D01*
X40748Y96429D02*
X43673Y93504D01*
X45276D01*
X41929Y96918D02*
Y100469D01*
Y96918D02*
X43375Y95472D01*
X45276D01*
X42042Y100583D02*
Y100583D01*
X41929Y100469D02*
X42042Y100583D01*
X32911Y106791D02*
X34185Y105517D01*
X43110Y98839D02*
Y99980D01*
X44882Y115453D02*
X45081Y115652D01*
X37795Y111024D02*
X40453D01*
X55413Y80315D02*
X56890Y78839D01*
X52264Y80315D02*
X55413D01*
X134449Y132382D02*
X137795Y129035D01*
X134055Y132382D02*
X134449D01*
X101279Y106329D02*
Y107549D01*
X97441Y110236D02*
X98592D01*
X101279Y107549D01*
X83661Y115425D02*
Y118307D01*
X82977Y114740D02*
X83661Y115425D01*
X89961Y160457D02*
Y164215D01*
X84449Y135967D02*
Y136129D01*
X65945Y120406D02*
X70965Y125426D01*
X68400Y121191D02*
X72146Y124937D01*
X68400Y121191D02*
Y121191D01*
X70374Y120887D02*
X73327Y123840D01*
X67913Y120705D02*
X68400Y121191D01*
X67913Y118307D02*
Y120705D01*
X70374Y118799D02*
Y120887D01*
X69882Y118307D02*
X70374Y118799D01*
X50591Y139567D02*
X54537D01*
X60236Y139075D02*
X60243Y139082D01*
X59409Y139902D02*
Y143668D01*
X58661Y144416D02*
X59409Y143668D01*
X107687Y105128D02*
X110531Y107972D01*
X108111Y101575D02*
X108701D01*
X105812Y103873D02*
X108111Y101575D01*
X105812Y103873D02*
Y104454D01*
X105148Y105118D02*
X105812Y104454D01*
X108701Y101883D02*
X111346Y104528D01*
X102490Y105118D02*
X105148D01*
X111346Y104528D02*
X116732D01*
X101279Y106329D02*
X102490Y105118D01*
X110952Y110039D02*
X116339D01*
X108701Y112291D02*
X110952Y110039D01*
X106738Y110635D02*
X107289D01*
X112165Y112205D02*
X116732D01*
X111772Y112598D02*
X112165Y112205D01*
X116339Y110039D02*
X116732Y109646D01*
X107480Y116147D02*
X109778D01*
X105339Y124317D02*
X107160D01*
X104453Y125203D02*
X105339Y124317D01*
X106304Y126384D02*
X115375D01*
X120472Y111735D02*
Y118647D01*
X119297Y119822D02*
X120472Y118647D01*
X119297Y119822D02*
Y122930D01*
X117129Y125098D02*
X119297Y122930D01*
X114990Y125098D02*
X117129D01*
X114886Y125203D02*
X114990Y125098D01*
X108046Y125203D02*
X114886D01*
X120478Y120311D02*
X121955Y118835D01*
X120478Y120311D02*
Y123419D01*
X117618Y126279D02*
X120478Y123419D01*
X121955Y117138D02*
Y118835D01*
X115480Y126279D02*
X117618D01*
X115375Y126384D02*
X115480Y126279D01*
X106738Y110635D02*
X108701Y112598D01*
X109778Y116147D02*
X109783Y116142D01*
X98721Y143089D02*
Y145866D01*
X102840Y140399D02*
X103839Y139400D01*
Y131122D02*
Y139400D01*
X102840Y140399D02*
X102859Y140419D01*
X65945Y118307D02*
Y120406D01*
X86651Y130223D02*
X89342D01*
X90648Y127756D02*
X90746Y127854D01*
X94980D01*
X85138Y138851D02*
Y139173D01*
X92299Y129724D02*
X95079D01*
X91610Y129035D02*
X92299Y129724D01*
X52991Y125787D02*
X53083Y125695D01*
X50591Y125787D02*
X52991D01*
X50689Y127854D02*
X50781Y127762D01*
X50591Y125787D02*
X50591Y125787D01*
X54658Y160303D02*
X54756D01*
X54658D02*
X56398Y158563D01*
X50223Y158861D02*
X53046D01*
X45571Y141043D02*
X48031Y143504D01*
X59409Y139902D02*
X60236Y139075D01*
X57579Y150561D02*
X58661Y151643D01*
X57579Y148848D02*
Y150561D01*
Y148848D02*
X57579Y148848D01*
Y147835D02*
Y148848D01*
Y147835D02*
X58661Y146752D01*
X103358Y130641D02*
X103839Y131122D01*
X103358Y128248D02*
Y130641D01*
Y128248D02*
X103647Y127959D01*
X102170Y125203D02*
X104453D01*
X107160Y124317D02*
X108046Y125203D01*
X128839Y132283D02*
X128937Y132382D01*
X130814Y126286D02*
X134061D01*
X130703Y123333D02*
X130912D01*
X155821Y130905D02*
X160734Y125993D01*
X134225Y129429D02*
X135800Y127854D01*
X134055Y129429D02*
X134225D01*
X135925Y125197D02*
X136221Y125492D01*
X134153Y126378D02*
X134449Y126673D01*
X129331Y118405D02*
X132480Y121555D01*
X129446Y116541D02*
X133279Y120374D01*
X128481Y116541D02*
X129446D01*
X124022Y118313D02*
X129120D01*
X124022Y115360D02*
X127300D01*
X123136Y111226D02*
X123234D01*
Y111510D01*
X121943Y112418D02*
Y117126D01*
X121955Y117138D01*
X106299Y169786D02*
X107773D01*
X107480Y172638D02*
X112133D01*
X99902Y165059D02*
X107480Y172638D01*
X107776Y166142D02*
X109646Y168012D01*
X101083Y164570D02*
X106299Y169786D01*
X150492Y49213D02*
X158663D01*
X178150Y56496D02*
Y58870D01*
X175698Y54044D02*
X178150Y56496D01*
X175698Y50524D02*
Y54044D01*
X173305Y48132D02*
X175698Y50524D01*
X171755Y49412D02*
X172542Y50199D01*
X172449D02*
X172542D01*
X176879Y60141D02*
X178150Y58870D01*
X168763Y70771D02*
X172639D01*
X170177Y59449D02*
Y59521D01*
X169658Y60039D02*
X170177Y59521D01*
X169587Y60039D02*
X169658D01*
X169488Y60138D02*
X169587Y60039D01*
X163120Y60138D02*
X169488D01*
X170177Y59449D02*
X171358Y58268D01*
X172343D01*
X161644Y58661D02*
X163120Y60138D01*
X159547Y58661D02*
X161644D01*
X167677Y69685D02*
X168763Y70771D01*
X163031Y68110D02*
X164606Y69685D01*
X160630Y68110D02*
X163031D01*
X121943Y112418D02*
X123136Y111226D01*
X129272Y118465D02*
X129331Y118405D01*
X129120Y118313D02*
X129272Y118465D01*
X127300Y115360D02*
X128481Y116541D01*
X97539Y149409D02*
X98721Y150591D01*
X95079Y149409D02*
X97539D01*
X140059Y143016D02*
X141831Y144788D01*
X135463Y155413D02*
X139862D01*
X134252Y156624D02*
X135463Y155413D01*
X139102Y169488D02*
X139173Y169560D01*
X136516Y169488D02*
X139102D01*
X144291Y140748D02*
X144291D01*
X145877Y146063D02*
X150000D01*
X143405Y143996D02*
X149603D01*
X141732Y142323D02*
X143405Y143996D01*
X149508Y142815D02*
X150093D01*
X149409Y142717D02*
X149508Y142815D01*
X149409Y140748D02*
Y142717D01*
X151969Y161031D02*
Y163189D01*
Y161031D02*
X152242D01*
X153452Y159821D01*
Y159540D02*
Y159821D01*
X144291Y159252D02*
X148819Y154724D01*
X141732Y160141D02*
X148330Y153543D01*
X141732Y140748D02*
Y142323D01*
Y160141D02*
Y163189D01*
X144291Y159252D02*
Y163189D01*
Y167618D01*
X144882Y168209D01*
X139173Y163189D02*
X139173Y163189D01*
Y169560D01*
X140775Y171161D01*
X140945D01*
X151969Y163189D02*
Y167421D01*
X152756Y168209D01*
X149409Y163189D02*
Y167618D01*
X148819Y168209D02*
X149409Y167618D01*
X141732Y163189D02*
Y167421D01*
X140945Y168209D02*
X141732Y167421D01*
X139173Y140748D02*
X139173D01*
X139173Y134377D02*
Y140748D01*
Y134377D02*
X140775Y132776D01*
X140945D01*
X152756D02*
X152926D01*
X151969Y136516D02*
Y140748D01*
Y136516D02*
X152756Y135728D01*
X149409Y136319D02*
Y140748D01*
X148819Y135728D02*
X149409Y136319D01*
X144291Y136319D02*
Y140748D01*
Y136319D02*
X144882Y135728D01*
X141732Y136516D02*
Y140748D01*
X140945Y135728D02*
X141732Y136516D01*
X166837Y137015D02*
X170776D01*
X136909Y94685D02*
X157579D01*
X136420Y93504D02*
X159547D01*
X134153Y97441D02*
X136909Y94685D01*
X157579D02*
X161024Y98130D01*
X136322Y93602D02*
X136420Y93504D01*
X159547D02*
X163091Y97047D01*
X125197Y93602D02*
X136322D01*
X145446Y95965D02*
X147205Y97724D01*
X142618Y95965D02*
X145446D01*
X139173Y99410D02*
X142618Y95965D01*
X163091Y97047D02*
Y98425D01*
X164665Y100000D01*
X161024Y98130D02*
Y100000D01*
X147835Y109279D02*
Y110039D01*
X147205Y101575D02*
Y101883D01*
Y97724D02*
Y98032D01*
X144134D02*
Y101575D01*
X143740Y101969D02*
X144134Y101575D01*
X139173Y101969D02*
X143740D01*
X136811D02*
X139173D01*
X134153Y99311D02*
X136811Y101969D01*
X134153Y97441D02*
Y99311D01*
X166831Y137008D02*
X166837Y137015D01*
X171154Y143216D02*
X171465D01*
X170276Y144095D02*
X171154Y143216D01*
X166831Y149409D02*
X171063D01*
X170276Y156496D02*
X171161Y155610D01*
X166831Y140551D02*
Y144095D01*
X170276D01*
X166831Y149409D02*
Y151181D01*
Y147638D02*
Y149409D01*
X166831Y149409D01*
X166831Y156496D02*
X170276D01*
X166831D02*
Y158268D01*
Y154724D02*
Y156496D01*
X166831Y161811D02*
X171063D01*
X113490Y170989D02*
X115354Y169124D01*
Y168012D02*
Y169124D01*
X134816Y172638D02*
X137598Y175420D01*
X133268Y179488D02*
Y184055D01*
X133169Y184153D02*
X133268Y184055D01*
X50591Y127756D02*
X50689Y127854D01*
X47250Y129724D02*
X50591D01*
X50591Y129724D01*
X44685Y83169D02*
X44882Y82972D01*
X41339Y83169D02*
X44685D01*
X48031Y143504D02*
X50591D01*
X45282Y158230D02*
X46719Y156794D01*
X92991Y143504D02*
X95079D01*
X92991Y145472D02*
X95079D01*
X57766Y184252D02*
X62569Y189055D01*
X56223Y184252D02*
X57766D01*
X54471Y182500D02*
X56223Y184252D01*
X52697Y179055D02*
X56713Y183071D01*
X58661Y151643D02*
Y154875D01*
X62106Y158320D01*
X56713Y183071D02*
X71419D01*
X87598Y166891D01*
X41210Y182500D02*
X54471D01*
X37795Y179085D02*
X41210Y182500D01*
X37795Y179085D02*
Y179134D01*
X62569Y189055D02*
X67697D01*
X87598Y162795D02*
Y166891D01*
X75787Y158465D02*
Y162795D01*
X138386Y177362D02*
Y179488D01*
X135827Y175598D02*
Y179488D01*
X137598Y175420D02*
Y176575D01*
X138386Y177362D01*
X139173Y114764D02*
X139311Y114902D01*
X160138Y106201D02*
X161024Y107087D01*
X146238Y107682D02*
X147835Y109279D01*
X143232Y107682D02*
X146238D01*
X139173Y109646D02*
X141269D01*
X143232Y107682D01*
X134061Y126286D02*
X134153Y126378D01*
X130611Y123425D02*
X130703Y123333D01*
X130611Y123425D02*
X134153D01*
X163583Y117618D02*
X165357D01*
X159764Y115453D02*
X161268D01*
X162106Y104653D02*
X162625Y104134D01*
X162106Y104653D02*
Y106004D01*
X161024Y107087D02*
X162106Y106004D01*
X165357Y117618D02*
X165745Y117230D01*
X162625Y104134D02*
X171358D01*
X173130Y105905D01*
X164665Y107087D02*
X165945Y105807D01*
X169852D01*
X148330Y153543D02*
X154164D01*
X154360Y153740D01*
X148819Y154724D02*
X153674D01*
X153871Y154921D01*
X163681D02*
X163878Y154724D01*
X153871Y154921D02*
X163681D01*
X154360Y153740D02*
X161319D01*
X163878Y151181D01*
X169852Y105807D02*
X171161Y107116D01*
Y108369D01*
X165745Y117230D02*
X168709D01*
X161268Y115453D02*
X161754Y114966D01*
X170776D01*
X169095Y107973D02*
X171069Y109946D01*
X172321D01*
X173532Y111157D01*
X171161Y108369D02*
X171558Y108765D01*
X172810D01*
X174713Y110668D01*
Y120560D01*
X173532Y111157D02*
Y120070D01*
X171175Y112303D02*
X171465Y112013D01*
X158634Y112303D02*
X171175D01*
X158541Y112210D02*
X158634Y112303D01*
X152455Y112210D02*
X158541D01*
X158780Y116437D02*
X159764Y115453D01*
X142448Y119095D02*
X142618D01*
X147835Y113583D02*
Y113681D01*
X146811D02*
X147835D01*
X128937Y132382D02*
X134055D01*
X153452Y159540D02*
X154724Y158268D01*
X163878D01*
X152926Y171161D02*
X154528Y169560D01*
X148819Y168209D02*
X148989D01*
X151700Y173228D02*
X153812D01*
X155709Y171332D01*
X162005Y144095D02*
X163878D01*
X167922Y130026D02*
X168504Y129444D01*
Y126769D02*
X174713Y120560D01*
X168504Y126769D02*
Y129444D01*
X166437Y127165D02*
X173532Y120070D01*
X160922Y145177D02*
X162005Y144095D01*
X149603Y143996D02*
X150785Y145177D01*
X150093Y142815D02*
X151274Y143996D01*
X150785Y145177D02*
X160922D01*
X151274Y143996D02*
X160433D01*
X154528Y140748D02*
X155217D01*
X163583Y123130D02*
X164181Y123728D01*
X160138Y131891D02*
X162114Y129915D01*
X160377Y136444D02*
X164181Y132640D01*
Y123728D02*
Y132640D01*
X162114Y129731D02*
Y129915D01*
X160138Y131891D02*
Y133760D01*
X158387Y139180D02*
X161706D01*
X163878Y137008D01*
X151877Y136607D02*
Y137310D01*
X156222Y137015D02*
X156602D01*
X160736Y136803D02*
Y137113D01*
X156222Y137015D02*
X158387Y139180D01*
X151877Y136607D02*
X152756Y135728D01*
X160433Y143996D02*
X163878Y140551D01*
X152926Y132776D02*
X154528Y134377D01*
Y137080D01*
X154535Y137087D01*
Y137871D01*
X154823Y138158D01*
Y140453D01*
X113490Y170989D02*
Y171071D01*
X109646Y168012D02*
X113386D01*
X121033Y173327D02*
X121722Y172638D01*
X134816D01*
X119291Y170374D02*
X120177Y171260D01*
X119291Y168012D02*
Y170374D01*
X116831Y170784D02*
X117323Y170292D01*
Y168012D02*
Y170292D01*
X150689Y172217D02*
X151700Y173228D01*
X148989Y168209D02*
X150689Y169909D01*
Y172217D01*
X112822Y173327D02*
X121033D01*
X112133Y172638D02*
X112822Y173327D01*
X111366Y173819D02*
X112251Y174705D01*
X121604D01*
X122490Y173819D01*
X154626Y128642D02*
X160138Y123130D01*
X157199Y115163D02*
X157697Y114665D01*
X153452Y128642D02*
X154626D01*
X160377Y136444D02*
X160736Y136803D01*
X152061Y115163D02*
X157199D01*
X152458Y116437D02*
X158780D01*
X152947Y117618D02*
X165357D01*
X135925Y125027D02*
Y125197D01*
X134153Y123425D02*
X134324D01*
X135925Y125027D01*
X152649Y125492D02*
X153017Y125124D01*
Y123432D02*
Y125124D01*
X150782Y110931D02*
X150795D01*
X148721Y112992D02*
X150782Y110931D01*
X147894Y112992D02*
X148721D01*
X152468Y98236D02*
X154232Y100000D01*
X152468Y97643D02*
Y98236D01*
X148484Y99311D02*
X149902D01*
X147205Y98032D02*
X148484Y99311D01*
X116732Y97342D02*
Y99410D01*
X123524Y95276D02*
X125197Y93602D01*
X133169Y112205D02*
X139173D01*
X127270Y106305D02*
X133169Y112205D01*
X127270Y97446D02*
Y106305D01*
X116732Y101969D02*
X117023Y101678D01*
X119691D01*
X108701Y101575D02*
Y101883D01*
X111772Y98032D02*
Y101575D01*
X112165Y101969D02*
X116732D01*
X108701Y112291D02*
Y112598D01*
X138774Y110045D02*
X139173Y109646D01*
X136129Y110045D02*
X138774D01*
X136053Y104528D02*
X139173D01*
X134350Y106230D02*
X136053Y104528D01*
X134350Y106230D02*
Y106595D01*
X132880Y108064D02*
X134350Y106595D01*
X132880Y108064D02*
Y108175D01*
X123136Y111609D02*
X123234Y111510D01*
X120472Y111735D02*
X120866Y111341D01*
Y109320D02*
Y111341D01*
X116528Y114764D02*
X116732D01*
X113241Y118051D02*
X116528Y114764D01*
X110302Y118051D02*
X113241D01*
X109783Y117532D02*
X110302Y118051D01*
X109783Y116142D02*
Y117532D01*
X111772Y112598D02*
Y116142D01*
X139173Y112205D02*
X143110D01*
X144823Y109646D02*
Y112992D01*
X139173Y140748D02*
X140059Y141634D01*
Y143016D01*
X94980Y127854D02*
X95079Y127756D01*
X69882Y118307D02*
X70079Y118110D01*
X73819Y118307D02*
X73921Y118205D01*
X81693Y118307D02*
X81791Y118209D01*
D83*
X60039Y162795D02*
X60039Y162795D01*
X60039Y159176D02*
Y162795D01*
X86370Y96213D02*
X86659D01*
X89178Y98731D01*
Y103008D01*
X88150Y104035D02*
X89178Y103008D01*
X88489Y104374D02*
Y113047D01*
X88150Y113386D02*
X88489Y113047D01*
X87598Y113937D02*
Y118307D01*
Y113937D02*
X88150Y113386D01*
X176772Y74803D02*
X185039D01*
X168504D02*
X176772D01*
X157776Y62992D02*
Y66240D01*
X155905Y68110D02*
X157776Y66240D01*
X62894Y81380D02*
Y85728D01*
X61811Y80297D02*
X62894Y81380D01*
X61811Y74427D02*
Y80297D01*
Y74427D02*
X62894Y73344D01*
Y66634D02*
Y73344D01*
Y85728D02*
X63976Y86811D01*
X62894Y66634D02*
X63779Y65748D01*
X88150Y104035D02*
X88489Y104374D01*
X84645Y149761D02*
Y153149D01*
X88386Y135835D02*
Y146021D01*
X84645Y149761D02*
X88386Y146021D01*
X188386Y36319D02*
X189469Y37402D01*
Y39173D01*
X86317Y133766D02*
X88386Y135835D01*
X85065Y133766D02*
X86317D01*
X79827Y128529D02*
X85065Y133766D01*
X79827Y125291D02*
X80413Y124705D01*
X84170D02*
X87412Y121463D01*
X80413Y124705D02*
X84170D01*
X79827Y125291D02*
Y128529D01*
X87412Y121463D02*
X87598D01*
Y118307D02*
Y121463D01*
X51378Y118110D02*
X55512D01*
X42224Y127264D02*
X51378Y118110D01*
X25295Y127264D02*
X42224D01*
X21457Y131102D02*
X25295Y127264D01*
X21457Y131102D02*
Y141535D01*
D84*
X63779Y65748D02*
X64173Y65354D01*
Y60138D02*
Y65354D01*
X50098Y49311D02*
X64173D01*
X43307Y56102D02*
X50098Y49311D01*
X153248Y35531D02*
X155118D01*
X132677Y56102D02*
X153248Y35531D01*
D85*
X173839Y26890D02*
X182309Y35360D01*
X160591Y26890D02*
X173839D01*
X155512Y21811D02*
X160591Y26890D01*
D86*
X98425Y26575D02*
X131890D01*
D87*
X161417Y176221D02*
D03*
X155512Y21811D02*
D03*
X167323D02*
D03*
Y31811D02*
D03*
D88*
X161417Y186221D02*
D03*
X155512Y11811D02*
D03*
X167323D02*
D03*
D89*
X43307Y56102D02*
D03*
Y26575D02*
D03*
X98425Y56102D02*
D03*
Y26575D02*
D03*
X131890Y56102D02*
D03*
Y26575D02*
D03*
D90*
X185630Y120472D02*
D03*
D91*
Y130315D02*
D03*
Y140157D02*
D03*
Y150000D02*
D03*
Y159843D02*
D03*
D92*
X89941Y179055D02*
D03*
X94941Y189055D02*
D03*
X99941Y179055D02*
D03*
X104941Y189055D02*
D03*
X32697Y179055D02*
D03*
X37697Y189055D02*
D03*
X42697Y179055D02*
D03*
X47697Y189055D02*
D03*
X52697Y179055D02*
D03*
X57697Y189055D02*
D03*
X62697Y179055D02*
D03*
X67697Y189055D02*
D03*
D93*
X9843Y187008D02*
D03*
X187008D02*
D03*
Y9843D02*
D03*
X9843D02*
D03*
D94*
X30118Y63189D02*
D03*
X35925Y69095D02*
D03*
X184843Y79921D02*
D03*
X177264D02*
D03*
X188386Y92028D02*
D03*
X183071Y91929D02*
D03*
X177559Y92224D02*
D03*
X146063Y88484D02*
D03*
X156791Y89764D02*
D03*
X115655Y86914D02*
D03*
X74118Y66637D02*
D03*
X115256Y17126D02*
D03*
X54232Y37697D02*
D03*
X56102Y44783D02*
D03*
X29528Y32283D02*
D03*
X19094Y57087D02*
D03*
X23524Y69587D02*
D03*
X16535Y84153D02*
D03*
X24705Y81299D02*
D03*
X32972Y93799D02*
D03*
X44291Y89961D02*
D03*
X47539Y86614D02*
D03*
X123721Y87008D02*
D03*
X79232Y47343D02*
D03*
X111319Y48425D02*
D03*
X123425Y68110D02*
D03*
X146752Y57677D02*
D03*
X140847Y68012D02*
D03*
X144882Y64173D02*
D03*
X149902Y53543D02*
D03*
X154823Y53642D02*
D03*
X75299Y57877D02*
D03*
X117224Y58366D02*
D03*
X118996Y62598D02*
D03*
X81988Y70571D02*
D03*
X63779Y65748D02*
D03*
X78150Y73228D02*
D03*
X24016Y147933D02*
D03*
X24902Y155217D02*
D03*
X3543Y155709D02*
D03*
X3937Y144488D02*
D03*
X4528Y131595D02*
D03*
X4331Y121555D02*
D03*
X3839Y111024D02*
D03*
X2953Y101181D02*
D03*
X172736Y82087D02*
D03*
X60433Y63090D02*
D03*
X64567Y19783D02*
D03*
X127854Y82087D02*
D03*
X119882Y82185D02*
D03*
X111516Y82284D02*
D03*
X54429Y67618D02*
D03*
X51378Y41339D02*
D03*
X22736Y33858D02*
D03*
X32677Y42126D02*
D03*
X22343Y46654D02*
D03*
X24902Y58268D02*
D03*
X18799Y65158D02*
D03*
X75886Y22539D02*
D03*
X79626Y27657D02*
D03*
X72047Y27362D02*
D03*
X98130Y41240D02*
D03*
X89961Y40354D02*
D03*
X86221Y45177D02*
D03*
X112303Y61713D02*
D03*
X111221Y66535D02*
D03*
X122539Y39272D02*
D03*
X110433Y37303D02*
D03*
X118996Y43012D02*
D03*
X107874Y42913D02*
D03*
X160138Y30413D02*
D03*
X163583Y39469D02*
D03*
X192421Y23819D02*
D03*
X191831Y45768D02*
D03*
X177756Y40945D02*
D03*
X75299Y62405D02*
D03*
X78130Y78169D02*
D03*
X177756Y69784D02*
D03*
X184252Y69980D02*
D03*
X157579Y46260D02*
D03*
X152559Y46358D02*
D03*
X164567Y75197D02*
D03*
Y79724D02*
D03*
X138384Y85136D02*
D03*
X170453Y86988D02*
D03*
X189173Y66634D02*
D03*
X185630Y52559D02*
D03*
D95*
X75984Y158268D02*
D03*
X96063Y156299D02*
D03*
X37795Y179134D02*
D03*
M02*
